# Dev59 single streamlined ventral pylon. Y=0 store surface; Y=1 carrier belly.
g fairing
v 0.00000000 0.00000000 0.19008000
v 0.02450000 0.00000000 0.12096000
v 0.04900000 0.00000000 0.00000000
v 0.02450000 0.00000000 -0.13824000
v 0.00000000 0.00000000 -0.17971200
v -0.02450000 0.00000000 -0.13824000
v -0.04900000 0.00000000 0.00000000
v -0.02450000 0.00000000 0.12096000
v 0.00000000 0.72000000 0.23232000
v 0.03150000 0.72000000 0.14784000
v 0.06300000 0.72000000 0.00000000
v 0.03150000 0.72000000 -0.16896000
v 0.00000000 0.72000000 -0.21964800
v -0.03150000 0.72000000 -0.16896000
v -0.06300000 0.72000000 0.00000000
v -0.03150000 0.72000000 0.14784000
v 0.00000000 1.00000000 0.26400000
v 0.04900000 1.00000000 0.16800000
v 0.09800000 1.00000000 0.00000000
v 0.04900000 1.00000000 -0.19200000
v 0.00000000 1.00000000 -0.24960000
v -0.04900000 1.00000000 -0.19200000
v -0.09800000 1.00000000 0.00000000
v -0.04900000 1.00000000 0.16800000
vt .12 .12
vt .20 .12
vt .20 .20
vt .12 .20
vn 0.94232083 -0.02163120 0.33401130
vn 0.97991988 -0.01905400 0.19847915
vn 0.98451309 -0.01701627 -0.17448329
vn 0.86064030 -0.02820102 -0.50843189
vn -0.86059369 -0.03005880 -0.50840434
vn -0.98447523 -0.01914257 -0.17447660
vn -0.97995722 -0.01693753 0.19848671
vn -0.94236038 -0.01959615 0.33402530
vn 0.93371767 -0.08342449 0.34815467
vn 0.97081749 -0.12135218 0.20685031
vn 0.98019570 -0.07629933 -0.18274244
vn 0.84800047 -0.05637276 -0.52698892
vn -0.84542244 -0.09607073 -0.52538682
vn -0.97572219 -0.12196527 -0.18190844
vn -0.97522357 -0.07591229 0.20778911
vn -0.93625271 -0.03949816 0.34909991
vn 0.00000000 -1.00000000 0.00000000
vn 0.00000000 1.00000000 0.00000000
f 1/1/1 2/2/1 10/3/1 9/4/1
f 2/1/2 3/2/2 11/3/2 10/4/2
f 3/1/3 4/2/3 12/3/3 11/4/3
f 4/1/4 5/2/4 13/3/4 12/4/4
f 5/1/5 6/2/5 14/3/5 13/4/5
f 6/1/6 7/2/6 15/3/6 14/4/6
f 7/1/7 8/2/7 16/3/7 15/4/7
f 8/1/8 1/2/8 9/3/8 16/4/8
f 9/1/9 10/2/9 18/3/9 17/4/9
f 10/1/10 11/2/10 19/3/10 18/4/10
f 11/1/11 12/2/11 20/3/11 19/4/11
f 12/1/12 13/2/12 21/3/12 20/4/12
f 13/1/13 14/2/13 22/3/13 21/4/13
f 14/1/14 15/2/14 23/3/14 22/4/14
f 15/1/15 16/2/15 24/3/15 23/4/15
f 16/1/16 9/2/16 17/3/16 24/4/16
f 8/1/17 7/2/17 6/3/17 5/4/17 4/1/17 3/2/17 2/3/17 1/4/17
f 17/1/18 18/2/18 19/3/18 20/4/18 21/1/18 22/2/18 23/3/18 24/4/18
