# UJ-32 Lastvika by SpinoCactus, CC BY 4.0.
# https://sketchfab.com/3d-models/uj-32-lastvika-uav-3f681c071708442c91f54407acdd33aa
# Author UVs/detail preserved; only propeller and piston motor removed.
# Decorative recessed jet nozzle; X right, Y up, +Z nose; game length 3.6.
v 0.10036631 0.00000000 -1.46989155
v 0.10203353 0.00000000 -1.49656701
v 0.10007299 0.01990575 -1.49656701
v 0.09843780 0.01958050 -1.46989155
v 0.09426669 0.03904654 -1.49656701
v 0.09272639 0.03840853 -1.46989155
v 0.08483778 0.05668679 -1.49656701
v 0.08345154 0.05576054 -1.46989155
v 0.07214860 0.07214860 -1.49656701
v 0.07096970 0.07096970 -1.46989155
v 0.05668679 0.08483778 -1.49656701
v 0.05576054 0.08345154 -1.46989155
v 0.03904654 0.09426669 -1.49656701
v 0.03840853 0.09272639 -1.46989155
v 0.01990575 0.10007299 -1.49656701
v 0.01958050 0.09843780 -1.46989155
v 0.00000000 0.10203353 -1.49656701
v 0.00000000 0.10036631 -1.46989155
v -0.01990575 0.10007299 -1.49656701
v -0.01958050 0.09843780 -1.46989155
v -0.03904654 0.09426669 -1.49656701
v -0.03840853 0.09272639 -1.46989155
v -0.05668679 0.08483778 -1.49656701
v -0.05576054 0.08345154 -1.46989155
v -0.07214860 0.07214860 -1.49656701
v -0.07096970 0.07096970 -1.46989155
v -0.08483778 0.05668679 -1.49656701
v -0.08345154 0.05576054 -1.46989155
v -0.09426669 0.03904654 -1.49656701
v -0.09272639 0.03840853 -1.46989155
v -0.10007299 0.01990575 -1.49656701
v -0.09843780 0.01958050 -1.46989155
v -0.10203353 0.00000000 -1.49656701
v -0.10036631 0.00000000 -1.46989155
v -0.10007299 -0.01990575 -1.49656701
v -0.09843780 -0.01958050 -1.46989155
v -0.09426669 -0.03904654 -1.49656701
v -0.09272639 -0.03840853 -1.46989155
v -0.08483778 -0.05668679 -1.49656701
v -0.08345154 -0.05576054 -1.46989155
v -0.07214860 -0.07214860 -1.49656701
v -0.07096970 -0.07096970 -1.46989155
v -0.05668679 -0.08483778 -1.49656701
v -0.05576054 -0.08345154 -1.46989155
v -0.03904654 -0.09426669 -1.49656701
v -0.03840853 -0.09272639 -1.46989155
v -0.01990575 -0.10007299 -1.49656701
v -0.01958050 -0.09843780 -1.46989155
v -0.00000000 -0.10203353 -1.49656701
v -0.00000000 -0.10036631 -1.46989155
v 0.01990575 -0.10007299 -1.49656701
v 0.01958050 -0.09843780 -1.46989155
v 0.03904654 -0.09426669 -1.49656701
v 0.03840853 -0.09272639 -1.46989155
v 0.05668679 -0.08483778 -1.49656701
v 0.05576054 -0.08345154 -1.46989155
v 0.07214860 -0.07214860 -1.49656701
v 0.07096970 -0.07096970 -1.46989155
v 0.08483778 -0.05668679 -1.49656701
v 0.08345154 -0.05576054 -1.46989155
v 0.09426669 -0.03904654 -1.49656701
v 0.09272639 -0.03840853 -1.46989155
v 0.10007299 -0.01990575 -1.49656701
v 0.09843780 -0.01958050 -1.46989155
v 0.10336730 0.00000000 -1.51657355
v 0.10138113 0.02016596 -1.51657355
v 0.09549893 0.03955695 -1.51657355
v 0.08594677 0.05742779 -1.51657355
v 0.07309172 0.07309172 -1.51657355
v 0.05742779 0.08594677 -1.51657355
v 0.03955695 0.09549893 -1.51657355
v 0.02016596 0.10138113 -1.51657355
v 0.00000000 0.10336730 -1.51657355
v -0.02016596 0.10138113 -1.51657355
v -0.03955695 0.09549893 -1.51657355
v -0.05742779 0.08594677 -1.51657355
v -0.07309172 0.07309172 -1.51657355
v -0.08594677 0.05742779 -1.51657355
v -0.09549893 0.03955695 -1.51657355
v -0.10138113 0.02016596 -1.51657355
v -0.10336730 0.00000000 -1.51657355
v -0.10138113 -0.02016596 -1.51657355
v -0.09549893 -0.03955695 -1.51657355
v -0.08594677 -0.05742779 -1.51657355
v -0.07309172 -0.07309172 -1.51657355
v -0.05742779 -0.08594677 -1.51657355
v -0.03955695 -0.09549893 -1.51657355
v -0.02016596 -0.10138113 -1.51657355
v -0.00000000 -0.10336730 -1.51657355
v 0.02016596 -0.10138113 -1.51657355
v 0.03955695 -0.09549893 -1.51657355
v 0.05742779 -0.08594677 -1.51657355
v 0.07309172 -0.07309172 -1.51657355
v 0.08594677 -0.05742779 -1.51657355
v 0.09549893 -0.03955695 -1.51657355
v 0.10138113 -0.02016596 -1.51657355
v 0.10170009 0.00000000 -1.53324568
v 0.09974594 0.01984070 -1.53324568
v 0.09395862 0.03891894 -1.53324568
v 0.08456053 0.05650154 -1.53324568
v 0.07191282 0.07191282 -1.53324568
v 0.05650154 0.08456053 -1.53324568
v 0.03891894 0.09395862 -1.53324568
v 0.01984070 0.09974594 -1.53324568
v 0.00000000 0.10170009 -1.53324568
v -0.01984070 0.09974594 -1.53324568
v -0.03891894 0.09395862 -1.53324568
v -0.05650154 0.08456053 -1.53324568
v -0.07191282 0.07191282 -1.53324568
v -0.08456053 0.05650154 -1.53324568
v -0.09395862 0.03891894 -1.53324568
v -0.09974594 0.01984070 -1.53324568
v -0.10170009 0.00000000 -1.53324568
v -0.09974594 -0.01984070 -1.53324568
v -0.09395862 -0.03891894 -1.53324568
v -0.08456053 -0.05650154 -1.53324568
v -0.07191282 -0.07191282 -1.53324568
v -0.05650154 -0.08456053 -1.53324568
v -0.03891894 -0.09395862 -1.53324568
v -0.01984070 -0.09974594 -1.53324568
v -0.00000000 -0.10170009 -1.53324568
v 0.01984070 -0.09974594 -1.53324568
v 0.03891894 -0.09395862 -1.53324568
v 0.05650154 -0.08456053 -1.53324568
v 0.07191282 -0.07191282 -1.53324568
v 0.08456053 -0.05650154 -1.53324568
v 0.09395862 -0.03891894 -1.53324568
v 0.09974594 -0.01984070 -1.53324568
v 0.09203024 0.00000000 -1.71663940
v 0.09026191 0.01795421 -1.71663940
v 0.08502486 0.03521845 -1.71663940
v 0.07652035 0.05112926 -1.71663940
v 0.06507521 0.06507521 -1.71663940
v 0.05112926 0.07652035 -1.71663940
v 0.03521845 0.08502486 -1.71663940
v 0.01795421 0.09026191 -1.71663940
v 0.00000000 0.09203024 -1.71663940
v -0.01795421 0.09026191 -1.71663940
v -0.03521845 0.08502486 -1.71663940
v -0.05112926 0.07652035 -1.71663940
v -0.06507521 0.06507521 -1.71663940
v -0.07652035 0.05112926 -1.71663940
v -0.08502486 0.03521845 -1.71663940
v -0.09026191 0.01795421 -1.71663940
v -0.09203024 0.00000000 -1.71663940
v -0.09026191 -0.01795421 -1.71663940
v -0.08502486 -0.03521845 -1.71663940
v -0.07652035 -0.05112926 -1.71663940
v -0.06507521 -0.06507521 -1.71663940
v -0.05112926 -0.07652035 -1.71663940
v -0.03521845 -0.08502486 -1.71663940
v -0.01795421 -0.09026191 -1.71663940
v -0.00000000 -0.09203024 -1.71663940
v 0.01795421 -0.09026191 -1.71663940
v 0.03521845 -0.08502486 -1.71663940
v 0.05112926 -0.07652035 -1.71663940
v 0.06507521 -0.06507521 -1.71663940
v 0.07652035 -0.05112926 -1.71663940
v 0.08502486 -0.03521845 -1.71663940
v 0.09026191 -0.01795421 -1.71663940
v 0.09203024 0.00000000 -1.78999674
v 0.09026191 0.01795421 -1.78999674
v 0.08502486 0.03521845 -1.78999674
v 0.07652035 0.05112926 -1.78999674
v 0.06507521 0.06507521 -1.78999674
v 0.05112926 0.07652035 -1.78999674
v 0.03521845 0.08502486 -1.78999674
v 0.01795421 0.09026191 -1.78999674
v 0.00000000 0.09203024 -1.78999674
v -0.01795421 0.09026191 -1.78999674
v -0.03521845 0.08502486 -1.78999674
v -0.05112926 0.07652035 -1.78999674
v -0.06507521 0.06507521 -1.78999674
v -0.07652035 0.05112926 -1.78999674
v -0.08502486 0.03521845 -1.78999674
v -0.09026191 0.01795421 -1.78999674
v -0.09203024 0.00000000 -1.78999674
v -0.09026191 -0.01795421 -1.78999674
v -0.08502486 -0.03521845 -1.78999674
v -0.07652035 -0.05112926 -1.78999674
v -0.06507521 -0.06507521 -1.78999674
v -0.05112926 -0.07652035 -1.78999674
v -0.03521845 -0.08502486 -1.78999674
v -0.01795421 -0.09026191 -1.78999674
v -0.00000000 -0.09203024 -1.78999674
v 0.01795421 -0.09026191 -1.78999674
v 0.03521845 -0.08502486 -1.78999674
v 0.05112926 -0.07652035 -1.78999674
v 0.06507521 -0.06507521 -1.78999674
v 0.07652035 -0.05112926 -1.78999674
v 0.08502486 -0.03521845 -1.78999674
v 0.09026191 -0.01795421 -1.78999674
v 0.08819565 0.00000000 -1.80000007
v 0.08650099 0.01720612 -1.80000007
v 0.08148216 0.03375101 -1.80000007
v 0.07333200 0.04899887 -1.80000007
v 0.06236374 0.06236374 -1.80000007
v 0.04899887 0.07333200 -1.80000007
v 0.03375101 0.08148216 -1.80000007
v 0.01720612 0.08650099 -1.80000007
v 0.00000000 0.08819565 -1.80000007
v -0.01720612 0.08650099 -1.80000007
v -0.03375101 0.08148216 -1.80000007
v -0.04899887 0.07333200 -1.80000007
v -0.06236374 0.06236374 -1.80000007
v -0.07333200 0.04899887 -1.80000007
v -0.08148216 0.03375101 -1.80000007
v -0.08650099 0.01720612 -1.80000007
v -0.08819565 0.00000000 -1.80000007
v -0.08650099 -0.01720612 -1.80000007
v -0.08148216 -0.03375101 -1.80000007
v -0.07333200 -0.04899887 -1.80000007
v -0.06236374 -0.06236374 -1.80000007
v -0.04899887 -0.07333200 -1.80000007
v -0.03375101 -0.08148216 -1.80000007
v -0.01720612 -0.08650099 -1.80000007
v -0.00000000 -0.08819565 -1.80000007
v 0.01720612 -0.08650099 -1.80000007
v 0.03375101 -0.08148216 -1.80000007
v 0.04899887 -0.07333200 -1.80000007
v 0.06236374 -0.06236374 -1.80000007
v 0.07333200 -0.04899887 -1.80000007
v 0.08148216 -0.03375101 -1.80000007
v 0.08650099 -0.01720612 -1.80000007
v 0.06518809 0.00000000 -1.80000007
v 0.06393552 0.01271756 -1.80000007
v 0.06022594 0.02494640 -1.80000007
v 0.05420192 0.03621656 -1.80000007
v 0.04609494 0.04609494 -1.80000007
v 0.03621656 0.05420192 -1.80000007
v 0.02494640 0.06022594 -1.80000007
v 0.01271756 0.06393552 -1.80000007
v 0.00000000 0.06518809 -1.80000007
v -0.01271756 0.06393552 -1.80000007
v -0.02494640 0.06022594 -1.80000007
v -0.03621656 0.05420192 -1.80000007
v -0.04609494 0.04609494 -1.80000007
v -0.05420192 0.03621656 -1.80000007
v -0.06022594 0.02494640 -1.80000007
v -0.06393552 0.01271756 -1.80000007
v -0.06518809 0.00000000 -1.80000007
v -0.06393552 -0.01271756 -1.80000007
v -0.06022594 -0.02494640 -1.80000007
v -0.05420192 -0.03621656 -1.80000007
v -0.04609494 -0.04609494 -1.80000007
v -0.03621656 -0.05420192 -1.80000007
v -0.02494640 -0.06022594 -1.80000007
v -0.01271756 -0.06393552 -1.80000007
v -0.00000000 -0.06518809 -1.80000007
v 0.01271756 -0.06393552 -1.80000007
v 0.02494640 -0.06022594 -1.80000007
v 0.03621656 -0.05420192 -1.80000007
v 0.04609494 -0.04609494 -1.80000007
v 0.05420192 -0.03621656 -1.80000007
v 0.06022594 -0.02494640 -1.80000007
v 0.06393552 -0.01271756 -1.80000007
v 0.06327079 0.00000000 -1.77999353
v 0.06205506 0.01234352 -1.77999353
v 0.05845459 0.02421268 -1.77999353
v 0.05260774 0.03515137 -1.77999353
v 0.04473921 0.04473921 -1.77999353
v 0.03515137 0.05260774 -1.77999353
v 0.02421268 0.05845459 -1.77999353
v 0.01234352 0.06205506 -1.77999353
v 0.00000000 0.06327079 -1.77999353
v -0.01234352 0.06205506 -1.77999353
v -0.02421268 0.05845459 -1.77999353
v -0.03515137 0.05260774 -1.77999353
v -0.04473921 0.04473921 -1.77999353
v -0.05260774 0.03515137 -1.77999353
v -0.05845459 0.02421268 -1.77999353
v -0.06205506 0.01234352 -1.77999353
v -0.06327079 0.00000000 -1.77999353
v -0.06205506 -0.01234352 -1.77999353
v -0.05845459 -0.02421268 -1.77999353
v -0.05260774 -0.03515137 -1.77999353
v -0.04473921 -0.04473921 -1.77999353
v -0.03515137 -0.05260774 -1.77999353
v -0.02421268 -0.05845459 -1.77999353
v -0.01234352 -0.06205506 -1.77999353
v -0.00000000 -0.06327079 -1.77999353
v 0.01234352 -0.06205506 -1.77999353
v 0.02421268 -0.05845459 -1.77999353
v 0.03515137 -0.05260774 -1.77999353
v 0.04473921 -0.04473921 -1.77999353
v 0.05260774 -0.03515137 -1.77999353
v 0.05845459 -0.02421268 -1.77999353
v 0.06205506 -0.01234352 -1.77999353
v 0.04668201 0.00000000 -1.55325222
v 0.04578502 0.00910721 -1.55325222
v 0.04312855 0.01786443 -1.55325222
v 0.03881467 0.02593513 -1.55325222
v 0.03300916 0.03300916 -1.55325222
v 0.02593513 0.03881467 -1.55325222
v 0.01786443 0.04312855 -1.55325222
v 0.00910721 0.04578502 -1.55325222
v 0.00000000 0.04668201 -1.55325222
v -0.00910721 0.04578502 -1.55325222
v -0.01786443 0.04312855 -1.55325222
v -0.02593513 0.03881467 -1.55325222
v -0.03300916 0.03300916 -1.55325222
v -0.03881467 0.02593513 -1.55325222
v -0.04312855 0.01786443 -1.55325222
v -0.04578502 0.00910721 -1.55325222
v -0.04668201 0.00000000 -1.55325222
v -0.04578502 -0.00910721 -1.55325222
v -0.04312855 -0.01786443 -1.55325222
v -0.03881467 -0.02593513 -1.55325222
v -0.03300916 -0.03300916 -1.55325222
v -0.02593513 -0.03881467 -1.55325222
v -0.01786443 -0.04312855 -1.55325222
v -0.00910721 -0.04578502 -1.55325222
v -0.00000000 -0.04668201 -1.55325222
v 0.00910721 -0.04578502 -1.55325222
v 0.01786443 -0.04312855 -1.55325222
v 0.02593513 -0.03881467 -1.55325222
v 0.03300916 -0.03300916 -1.55325222
v 0.03881467 -0.02593513 -1.55325222
v 0.04312855 -0.01786443 -1.55325222
v 0.04578502 -0.00910721 -1.55325222
v 0.00000000 0.00000000 -1.55325222
vt 0.67000000 0.50000000
vt 0.15000000 0.85000000
vt 0.12000000 0.20000000
vn 0.99807858 0.00000000 0.06196003
vn 0.99807864 0.00000000 0.06196004
vn 0.97890085 0.19471548 0.06196004
vn 0.99807858 0.00000000 0.06196000
vn 0.97890085 0.19471548 0.06196001
vn 0.97890085 0.19471550 0.06196001
vn 0.97890085 0.19471550 0.06195999
vn 0.97890085 0.19471548 0.06195999
vn 0.92210448 0.38194817 0.06195999
vn 0.97890085 0.19471550 0.06195989
vn 0.92210448 0.38194817 0.06195989
vn 0.92210442 0.38194817 0.06195989
vn 0.92210442 0.38194817 0.06195987
vn 0.92210448 0.38194817 0.06195987
vn 0.82987207 0.55450284 0.06195987
vn 0.92210442 0.38194817 0.06195996
vn 0.82987201 0.55450279 0.06195996
vn 0.82987207 0.55450279 0.06195996
vn 0.82987207 0.55450279 0.06195995
vn 0.82987201 0.55450279 0.06195995
vn 0.70574820 0.70574820 0.06195996
vn 0.82987207 0.55450279 0.06196009
vn 0.70574814 0.70574814 0.06196009
vn 0.70574814 0.70574814 0.06196006
vn 0.55450279 0.82987201 0.06196006
vn 0.70574820 0.70574820 0.06195994
vn 0.55450279 0.82987201 0.06195993
vn 0.55450279 0.82987207 0.06195993
vn 0.55450279 0.82987207 0.06195994
vn 0.55450279 0.82987201 0.06195994
vn 0.38194817 0.92210448 0.06195995
vn 0.55450279 0.82987207 0.06195984
vn 0.38194817 0.92210448 0.06195985
vn 0.38194817 0.92210442 0.06195984
vn 0.38194817 0.92210442 0.06195988
vn 0.38194817 0.92210448 0.06195989
vn 0.19471548 0.97890085 0.06195989
vn 0.38194817 0.92210442 0.06195999
vn 0.19471548 0.97890085 0.06196000
vn 0.19471550 0.97890085 0.06196000
vn 0.19471550 0.97890085 0.06196001
vn 0.19471548 0.97890085 0.06196001
vn 0.00000000 0.99807864 0.06196001
vn 0.19471550 0.97890085 0.06196003
vn 0.00000000 0.99807864 0.06196003
vn 0.00000000 0.99807858 0.06196002
vn 0.00000000 0.99807858 0.06196003
vn 0.00000000 0.99807864 0.06196004
vn -0.19471548 0.97890085 0.06196004
vn 0.00000000 0.99807858 0.06196000
vn -0.19471548 0.97890085 0.06196001
vn -0.19471550 0.97890085 0.06196001
vn -0.19471550 0.97890085 0.06195999
vn -0.19471548 0.97890085 0.06195999
vn -0.38194817 0.92210448 0.06195999
vn -0.19471550 0.97890085 0.06195989
vn -0.38194817 0.92210448 0.06195989
vn -0.38194817 0.92210442 0.06195989
vn -0.38194817 0.92210442 0.06195987
vn -0.38194817 0.92210448 0.06195987
vn -0.55450284 0.82987207 0.06195987
vn -0.38194817 0.92210442 0.06195996
vn -0.55450279 0.82987201 0.06195996
vn -0.55450279 0.82987207 0.06195996
vn -0.55450279 0.82987207 0.06195995
vn -0.55450279 0.82987201 0.06195995
vn -0.70574820 0.70574820 0.06195996
vn -0.55450279 0.82987207 0.06196009
vn -0.70574814 0.70574814 0.06196009
vn -0.70574814 0.70574814 0.06196006
vn -0.82987201 0.55450279 0.06196006
vn -0.70574820 0.70574820 0.06195994
vn -0.82987201 0.55450279 0.06195993
vn -0.82987207 0.55450279 0.06195993
vn -0.82987207 0.55450279 0.06195994
vn -0.82987201 0.55450279 0.06195994
vn -0.92210448 0.38194817 0.06195995
vn -0.82987207 0.55450279 0.06195984
vn -0.92210448 0.38194817 0.06195985
vn -0.92210442 0.38194817 0.06195984
vn -0.92210442 0.38194817 0.06195988
vn -0.92210448 0.38194817 0.06195989
vn -0.97890085 0.19471548 0.06195989
vn -0.92210442 0.38194817 0.06195999
vn -0.97890085 0.19471548 0.06196000
vn -0.97890085 0.19471550 0.06196000
vn -0.97890085 0.19471550 0.06196001
vn -0.97890085 0.19471548 0.06196001
vn -0.99807864 0.00000000 0.06196001
vn -0.97890085 0.19471550 0.06196003
vn -0.99807864 0.00000000 0.06196003
vn -0.99807858 0.00000000 0.06196002
vn -0.99807858 0.00000000 0.06196003
vn -0.99807864 0.00000000 0.06196004
vn -0.97890085 -0.19471548 0.06196004
vn -0.99807858 0.00000000 0.06196000
vn -0.97890085 -0.19471548 0.06196001
vn -0.97890085 -0.19471550 0.06196001
vn -0.97890085 -0.19471550 0.06195999
vn -0.97890085 -0.19471548 0.06195999
vn -0.92210448 -0.38194817 0.06195999
vn -0.97890085 -0.19471550 0.06195989
vn -0.92210448 -0.38194817 0.06195989
vn -0.92210442 -0.38194817 0.06195989
vn -0.92210442 -0.38194817 0.06195987
vn -0.92210448 -0.38194817 0.06195987
vn -0.82987207 -0.55450284 0.06195987
vn -0.92210442 -0.38194817 0.06195996
vn -0.82987201 -0.55450279 0.06195996
vn -0.82987207 -0.55450279 0.06195996
vn -0.82987207 -0.55450279 0.06195995
vn -0.82987201 -0.55450279 0.06195995
vn -0.70574820 -0.70574820 0.06195996
vn -0.82987207 -0.55450279 0.06196009
vn -0.70574814 -0.70574814 0.06196009
vn -0.70574814 -0.70574814 0.06196006
vn -0.55450279 -0.82987201 0.06196006
vn -0.70574820 -0.70574820 0.06195994
vn -0.55450279 -0.82987201 0.06195993
vn -0.55450279 -0.82987207 0.06195993
vn -0.55450279 -0.82987207 0.06195994
vn -0.55450279 -0.82987201 0.06195994
vn -0.38194817 -0.92210448 0.06195995
vn -0.55450279 -0.82987207 0.06195984
vn -0.38194817 -0.92210448 0.06195985
vn -0.38194817 -0.92210442 0.06195984
vn -0.38194817 -0.92210442 0.06195988
vn -0.38194817 -0.92210448 0.06195989
vn -0.19471548 -0.97890085 0.06195989
vn -0.38194817 -0.92210442 0.06195999
vn -0.19471548 -0.97890085 0.06196000
vn -0.19471550 -0.97890085 0.06196000
vn -0.19471550 -0.97890085 0.06196001
vn -0.19471548 -0.97890085 0.06196001
vn -0.00000000 -0.99807864 0.06196001
vn -0.19471550 -0.97890085 0.06196003
vn -0.00000000 -0.99807864 0.06196003
vn -0.00000000 -0.99807858 0.06196002
vn -0.00000000 -0.99807858 0.06196003
vn -0.00000000 -0.99807864 0.06196004
vn 0.19471548 -0.97890085 0.06196004
vn -0.00000000 -0.99807858 0.06196000
vn 0.19471548 -0.97890085 0.06196001
vn 0.19471550 -0.97890085 0.06196001
vn 0.19471550 -0.97890085 0.06195999
vn 0.19471548 -0.97890085 0.06195999
vn 0.38194817 -0.92210448 0.06195999
vn 0.19471550 -0.97890085 0.06195989
vn 0.38194817 -0.92210448 0.06195989
vn 0.38194817 -0.92210442 0.06195989
vn 0.38194817 -0.92210442 0.06195987
vn 0.38194817 -0.92210448 0.06195987
vn 0.55450284 -0.82987207 0.06195987
vn 0.38194817 -0.92210442 0.06195996
vn 0.55450279 -0.82987201 0.06195996
vn 0.55450279 -0.82987207 0.06195996
vn 0.55450279 -0.82987207 0.06195995
vn 0.55450279 -0.82987201 0.06195995
vn 0.70574820 -0.70574820 0.06195996
vn 0.55450279 -0.82987207 0.06196009
vn 0.70574814 -0.70574814 0.06196009
vn 0.70574814 -0.70574814 0.06196006
vn 0.82987201 -0.55450279 0.06196006
vn 0.70574820 -0.70574820 0.06195994
vn 0.82987201 -0.55450279 0.06195993
vn 0.82987207 -0.55450279 0.06195993
vn 0.82987207 -0.55450279 0.06195994
vn 0.82987201 -0.55450279 0.06195994
vn 0.92210448 -0.38194817 0.06195995
vn 0.82987207 -0.55450279 0.06195984
vn 0.92210448 -0.38194817 0.06195985
vn 0.92210442 -0.38194817 0.06195984
vn 0.92210442 -0.38194817 0.06195988
vn 0.92210448 -0.38194817 0.06195989
vn 0.97890085 -0.19471548 0.06195989
vn 0.92210442 -0.38194817 0.06195999
vn 0.97890085 -0.19471548 0.06196000
vn 0.97890085 -0.19471550 0.06196000
vn 0.97890085 -0.19471550 0.06196001
vn 0.97890085 -0.19471548 0.06196001
vn 0.99807864 0.00000000 0.06196001
vn 0.97890085 -0.19471550 0.06196003
vn 0.99807864 0.00000000 0.06196003
vn 0.99807858 0.00000000 0.06196002
vn 0.99781591 0.00000000 0.06605528
vn 0.99781597 0.00000000 0.06605528
vn 0.97864324 0.19466424 0.06605528
vn 0.99781591 0.00000000 0.06605539
vn 0.97864324 0.19466424 0.06605539
vn 0.97864318 0.19466422 0.06605539
vn 0.92186171 0.38184762 0.06605539
vn 0.97864318 0.19466422 0.06605519
vn 0.92186171 0.38184762 0.06605519
vn 0.92186171 0.38184762 0.06605520
vn 0.82965362 0.55435681 0.06605520
vn 0.92186171 0.38184762 0.06605509
vn 0.82965362 0.55435681 0.06605509
vn 0.82965362 0.55435687 0.06605509
vn 0.82965362 0.55435687 0.06605507
vn 0.82965362 0.55435681 0.06605507
vn 0.70556241 0.70556241 0.06605507
vn 0.82965362 0.55435687 0.06605539
vn 0.70556241 0.70556241 0.06605539
vn 0.70556241 0.70556241 0.06605537
vn 0.55435681 0.82965362 0.06605537
vn 0.70556241 0.70556241 0.06605505
vn 0.55435681 0.82965362 0.06605505
vn 0.55435687 0.82965362 0.06605505
vn 0.55435687 0.82965362 0.06605507
vn 0.55435681 0.82965362 0.06605507
vn 0.38184762 0.92186171 0.06605507
vn 0.55435687 0.82965362 0.06605519
vn 0.38184762 0.92186171 0.06605519
vn 0.19466424 0.97864324 0.06605519
vn 0.38184762 0.92186171 0.06605539
vn 0.19466424 0.97864324 0.06605539
vn 0.19466422 0.97864318 0.06605539
vn 0.00000000 0.99781597 0.06605539
vn 0.19466422 0.97864318 0.06605528
vn 0.00000000 0.99781597 0.06605528
vn 0.00000000 0.99781591 0.06605528
vn -0.19466424 0.97864324 0.06605528
vn 0.00000000 0.99781591 0.06605539
vn -0.19466424 0.97864324 0.06605539
vn -0.19466422 0.97864318 0.06605539
vn -0.38184762 0.92186171 0.06605539
vn -0.19466422 0.97864318 0.06605519
vn -0.38184762 0.92186171 0.06605519
vn -0.38184762 0.92186171 0.06605520
vn -0.55435681 0.82965362 0.06605520
vn -0.38184762 0.92186171 0.06605509
vn -0.55435681 0.82965362 0.06605509
vn -0.55435687 0.82965362 0.06605509
vn -0.55435687 0.82965362 0.06605507
vn -0.55435681 0.82965362 0.06605507
vn -0.70556241 0.70556241 0.06605507
vn -0.55435687 0.82965362 0.06605539
vn -0.70556241 0.70556241 0.06605539
vn -0.70556241 0.70556241 0.06605537
vn -0.82965362 0.55435681 0.06605537
vn -0.70556241 0.70556241 0.06605505
vn -0.82965362 0.55435681 0.06605505
vn -0.82965362 0.55435687 0.06605505
vn -0.82965362 0.55435687 0.06605507
vn -0.82965362 0.55435681 0.06605507
vn -0.92186171 0.38184762 0.06605507
vn -0.82965362 0.55435687 0.06605519
vn -0.92186171 0.38184762 0.06605519
vn -0.97864324 0.19466424 0.06605519
vn -0.92186171 0.38184762 0.06605539
vn -0.97864324 0.19466424 0.06605539
vn -0.97864318 0.19466422 0.06605539
vn -0.99781597 0.00000000 0.06605539
vn -0.97864318 0.19466422 0.06605528
vn -0.99781597 0.00000000 0.06605528
vn -0.99781591 0.00000000 0.06605528
vn -0.97864324 -0.19466424 0.06605528
vn -0.99781591 0.00000000 0.06605539
vn -0.97864324 -0.19466424 0.06605539
vn -0.97864318 -0.19466422 0.06605539
vn -0.92186171 -0.38184762 0.06605539
vn -0.97864318 -0.19466422 0.06605519
vn -0.92186171 -0.38184762 0.06605519
vn -0.92186171 -0.38184762 0.06605520
vn -0.82965362 -0.55435681 0.06605520
vn -0.92186171 -0.38184762 0.06605509
vn -0.82965362 -0.55435681 0.06605509
vn -0.82965362 -0.55435687 0.06605509
vn -0.82965362 -0.55435687 0.06605507
vn -0.82965362 -0.55435681 0.06605507
vn -0.70556241 -0.70556241 0.06605507
vn -0.82965362 -0.55435687 0.06605539
vn -0.70556241 -0.70556241 0.06605539
vn -0.70556241 -0.70556241 0.06605537
vn -0.55435681 -0.82965362 0.06605537
vn -0.70556241 -0.70556241 0.06605505
vn -0.55435681 -0.82965362 0.06605505
vn -0.55435687 -0.82965362 0.06605505
vn -0.55435687 -0.82965362 0.06605507
vn -0.55435681 -0.82965362 0.06605507
vn -0.38184762 -0.92186171 0.06605507
vn -0.55435687 -0.82965362 0.06605519
vn -0.38184762 -0.92186171 0.06605519
vn -0.19466424 -0.97864324 0.06605519
vn -0.38184762 -0.92186171 0.06605539
vn -0.19466424 -0.97864324 0.06605539
vn -0.19466422 -0.97864318 0.06605539
vn -0.00000000 -0.99781597 0.06605539
vn -0.19466422 -0.97864318 0.06605528
vn -0.00000000 -0.99781597 0.06605528
vn -0.00000000 -0.99781591 0.06605528
vn 0.19466424 -0.97864324 0.06605528
vn -0.00000000 -0.99781591 0.06605539
vn 0.19466424 -0.97864324 0.06605539
vn 0.19466422 -0.97864318 0.06605539
vn 0.38184762 -0.92186171 0.06605539
vn 0.19466422 -0.97864318 0.06605519
vn 0.38184762 -0.92186171 0.06605519
vn 0.38184762 -0.92186171 0.06605520
vn 0.55435681 -0.82965362 0.06605520
vn 0.38184762 -0.92186171 0.06605509
vn 0.55435681 -0.82965362 0.06605509
vn 0.55435687 -0.82965362 0.06605509
vn 0.55435687 -0.82965362 0.06605507
vn 0.55435681 -0.82965362 0.06605507
vn 0.70556241 -0.70556241 0.06605507
vn 0.55435687 -0.82965362 0.06605539
vn 0.70556241 -0.70556241 0.06605539
vn 0.70556241 -0.70556241 0.06605537
vn 0.82965362 -0.55435681 0.06605537
vn 0.70556241 -0.70556241 0.06605505
vn 0.82965362 -0.55435681 0.06605505
vn 0.82965362 -0.55435687 0.06605505
vn 0.82965362 -0.55435687 0.06605507
vn 0.82965362 -0.55435681 0.06605507
vn 0.92186171 -0.38184762 0.06605507
vn 0.82965362 -0.55435687 0.06605519
vn 0.92186171 -0.38184762 0.06605519
vn 0.97864324 -0.19466424 0.06605519
vn 0.92186171 -0.38184762 0.06605539
vn 0.97864324 -0.19466424 0.06605539
vn 0.97864318 -0.19466422 0.06605539
vn 0.99781597 0.00000000 0.06605539
vn 0.97864318 -0.19466422 0.06605528
vn 0.99513239 0.00000000 -0.09854718
vn 0.97601116 0.19414070 -0.09854718
vn 0.99513227 0.00000000 -0.09854750
vn 0.97601116 0.19414070 -0.09854752
vn 0.97601110 0.19414067 -0.09854750
vn 0.91938239 0.38082069 -0.09854750
vn 0.97601110 0.19414067 -0.09854730
vn 0.91938239 0.38082069 -0.09854730
vn 0.91938239 0.38082066 -0.09854731
vn 0.91938239 0.38082066 -0.09854729
vn 0.91938239 0.38082069 -0.09854729
vn 0.82742226 0.55286592 -0.09854729
vn 0.91938239 0.38082066 -0.09854723
vn 0.82742226 0.55286592 -0.09854723
vn 0.82742232 0.55286586 -0.09854723
vn 0.82742232 0.55286586 -0.09854720
vn 0.82742226 0.55286592 -0.09854720
vn 0.70366484 0.70366484 -0.09854719
vn 0.82742232 0.55286586 -0.09854755
vn 0.70366484 0.70366484 -0.09854753
vn 0.70366484 0.70366484 -0.09854755
vn 0.70366484 0.70366484 -0.09854759
vn 0.70366484 0.70366484 -0.09854757
vn 0.55286592 0.82742226 -0.09854759
vn 0.55286592 0.82742226 -0.09854719
vn 0.55286586 0.82742232 -0.09854719
vn 0.55286586 0.82742232 -0.09854724
vn 0.55286592 0.82742226 -0.09854724
vn 0.38082069 0.91938239 -0.09854724
vn 0.55286586 0.82742232 -0.09854729
vn 0.38082069 0.91938239 -0.09854728
vn 0.38082066 0.91938239 -0.09854729
vn 0.38082066 0.91938239 -0.09854731
vn 0.38082069 0.91938239 -0.09854730
vn 0.19414070 0.97601116 -0.09854731
vn 0.38082066 0.91938239 -0.09854752
vn 0.19414070 0.97601116 -0.09854752
vn 0.19414067 0.97601110 -0.09854750
vn 0.19414070 0.97601116 -0.09854751
vn 0.00000000 0.99513227 -0.09854750
vn 0.19414067 0.97601110 -0.09854717
vn 0.00000000 0.99513239 -0.09854718
vn -0.19414070 0.97601116 -0.09854718
vn -0.19414070 0.97601116 -0.09854752
vn -0.19414067 0.97601110 -0.09854750
vn -0.38082069 0.91938239 -0.09854750
vn -0.19414067 0.97601110 -0.09854730
vn -0.38082069 0.91938239 -0.09854730
vn -0.38082066 0.91938239 -0.09854731
vn -0.38082066 0.91938239 -0.09854729
vn -0.38082069 0.91938239 -0.09854729
vn -0.55286592 0.82742226 -0.09854729
vn -0.38082066 0.91938239 -0.09854723
vn -0.55286592 0.82742226 -0.09854723
vn -0.55286586 0.82742232 -0.09854723
vn -0.55286586 0.82742232 -0.09854720
vn -0.55286592 0.82742226 -0.09854720
vn -0.70366484 0.70366484 -0.09854719
vn -0.55286586 0.82742232 -0.09854755
vn -0.70366484 0.70366484 -0.09854753
vn -0.70366484 0.70366484 -0.09854755
vn -0.70366484 0.70366484 -0.09854759
vn -0.70366484 0.70366484 -0.09854757
vn -0.82742226 0.55286592 -0.09854759
vn -0.82742226 0.55286592 -0.09854719
vn -0.82742232 0.55286586 -0.09854719
vn -0.82742232 0.55286586 -0.09854724
vn -0.82742226 0.55286592 -0.09854724
vn -0.91938239 0.38082069 -0.09854724
vn -0.82742232 0.55286586 -0.09854729
vn -0.91938239 0.38082069 -0.09854728
vn -0.91938239 0.38082066 -0.09854729
vn -0.91938239 0.38082066 -0.09854731
vn -0.91938239 0.38082069 -0.09854730
vn -0.97601116 0.19414070 -0.09854731
vn -0.91938239 0.38082066 -0.09854752
vn -0.97601116 0.19414070 -0.09854752
vn -0.97601110 0.19414067 -0.09854750
vn -0.97601116 0.19414070 -0.09854751
vn -0.99513227 0.00000000 -0.09854750
vn -0.97601110 0.19414067 -0.09854717
vn -0.99513239 0.00000000 -0.09854718
vn -0.97601116 -0.19414070 -0.09854718
vn -0.97601116 -0.19414070 -0.09854752
vn -0.97601110 -0.19414067 -0.09854750
vn -0.91938239 -0.38082069 -0.09854750
vn -0.97601110 -0.19414067 -0.09854730
vn -0.91938239 -0.38082069 -0.09854730
vn -0.91938239 -0.38082066 -0.09854731
vn -0.91938239 -0.38082066 -0.09854729
vn -0.91938239 -0.38082069 -0.09854729
vn -0.82742226 -0.55286592 -0.09854729
vn -0.91938239 -0.38082066 -0.09854723
vn -0.82742226 -0.55286592 -0.09854723
vn -0.82742232 -0.55286586 -0.09854723
vn -0.82742232 -0.55286586 -0.09854720
vn -0.82742226 -0.55286592 -0.09854720
vn -0.70366484 -0.70366484 -0.09854719
vn -0.82742232 -0.55286586 -0.09854755
vn -0.70366484 -0.70366484 -0.09854753
vn -0.70366484 -0.70366484 -0.09854755
vn -0.70366484 -0.70366484 -0.09854759
vn -0.70366484 -0.70366484 -0.09854757
vn -0.55286592 -0.82742226 -0.09854759
vn -0.55286592 -0.82742226 -0.09854719
vn -0.55286586 -0.82742232 -0.09854719
vn -0.55286586 -0.82742232 -0.09854724
vn -0.55286592 -0.82742226 -0.09854724
vn -0.38082069 -0.91938239 -0.09854724
vn -0.55286586 -0.82742232 -0.09854729
vn -0.38082069 -0.91938239 -0.09854728
vn -0.38082066 -0.91938239 -0.09854729
vn -0.38082066 -0.91938239 -0.09854731
vn -0.38082069 -0.91938239 -0.09854730
vn -0.19414070 -0.97601116 -0.09854731
vn -0.38082066 -0.91938239 -0.09854752
vn -0.19414070 -0.97601116 -0.09854752
vn -0.19414067 -0.97601110 -0.09854750
vn -0.19414070 -0.97601116 -0.09854751
vn -0.00000000 -0.99513227 -0.09854750
vn -0.19414067 -0.97601110 -0.09854717
vn -0.00000000 -0.99513239 -0.09854718
vn 0.19414070 -0.97601116 -0.09854718
vn 0.19414070 -0.97601116 -0.09854752
vn 0.19414067 -0.97601110 -0.09854750
vn 0.38082069 -0.91938239 -0.09854750
vn 0.19414067 -0.97601110 -0.09854730
vn 0.38082069 -0.91938239 -0.09854730
vn 0.38082066 -0.91938239 -0.09854731
vn 0.38082066 -0.91938239 -0.09854729
vn 0.38082069 -0.91938239 -0.09854729
vn 0.55286592 -0.82742226 -0.09854729
vn 0.38082066 -0.91938239 -0.09854723
vn 0.55286592 -0.82742226 -0.09854723
vn 0.55286586 -0.82742232 -0.09854723
vn 0.55286586 -0.82742232 -0.09854720
vn 0.55286592 -0.82742226 -0.09854720
vn 0.70366484 -0.70366484 -0.09854719
vn 0.55286586 -0.82742232 -0.09854755
vn 0.70366484 -0.70366484 -0.09854753
vn 0.70366484 -0.70366484 -0.09854755
vn 0.70366484 -0.70366484 -0.09854759
vn 0.70366484 -0.70366484 -0.09854757
vn 0.82742226 -0.55286592 -0.09854759
vn 0.82742226 -0.55286592 -0.09854719
vn 0.82742232 -0.55286586 -0.09854719
vn 0.82742232 -0.55286586 -0.09854724
vn 0.82742226 -0.55286592 -0.09854724
vn 0.91938239 -0.38082069 -0.09854724
vn 0.82742232 -0.55286586 -0.09854729
vn 0.91938239 -0.38082069 -0.09854728
vn 0.91938239 -0.38082066 -0.09854729
vn 0.91938239 -0.38082066 -0.09854731
vn 0.91938239 -0.38082069 -0.09854730
vn 0.97601116 -0.19414070 -0.09854731
vn 0.91938239 -0.38082066 -0.09854752
vn 0.97601116 -0.19414070 -0.09854752
vn 0.97601110 -0.19414067 -0.09854750
vn 0.97601116 -0.19414070 -0.09854751
vn 0.97601110 -0.19414067 -0.09854717
vn 0.99862993 0.00000000 -0.05232950
vn 0.97944152 0.19482303 -0.05232950
vn 0.97944152 0.19482304 -0.05232950
vn 0.97944152 0.19482304 -0.05232949
vn 0.97944152 0.19482303 -0.05232949
vn 0.92261380 0.38215914 -0.05232950
vn 0.97944152 0.19482304 -0.05232946
vn 0.92261380 0.38215914 -0.05232947
vn 0.92261368 0.38215914 -0.05232945
vn 0.92261380 0.38215914 -0.05232946
vn 0.83033043 0.55480909 -0.05232945
vn 0.92261368 0.38215914 -0.05232948
vn 0.83033043 0.55480909 -0.05232948
vn 0.83033037 0.55480909 -0.05232948
vn 0.70613801 0.70613801 -0.05232949
vn 0.83033037 0.55480909 -0.05232945
vn 0.70613801 0.70613801 -0.05232945
vn 0.70613796 0.70613796 -0.05232944
vn 0.70613801 0.70613801 -0.05232946
vn 0.55480909 0.83033043 -0.05232945
vn 0.70613796 0.70613796 -0.05232948
vn 0.55480909 0.83033043 -0.05232949
vn 0.55480909 0.83033037 -0.05232949
vn 0.55480909 0.83033037 -0.05232948
vn 0.55480909 0.83033043 -0.05232948
vn 0.38215914 0.92261380 -0.05232948
vn 0.55480909 0.83033037 -0.05232946
vn 0.38215914 0.92261380 -0.05232947
vn 0.38215914 0.92261368 -0.05232945
vn 0.19482303 0.97944152 -0.05232946
vn 0.38215914 0.92261368 -0.05232949
vn 0.19482303 0.97944152 -0.05232950
vn 0.19482304 0.97944152 -0.05232950
vn 0.19482304 0.97944152 -0.05232949
vn 0.19482303 0.97944152 -0.05232949
vn 0.00000000 0.99862993 -0.05232949
vn 0.00000000 0.99862993 -0.05232950
vn -0.19482303 0.97944152 -0.05232950
vn -0.19482304 0.97944152 -0.05232950
vn -0.19482304 0.97944152 -0.05232949
vn -0.19482303 0.97944152 -0.05232949
vn -0.38215914 0.92261380 -0.05232950
vn -0.19482304 0.97944152 -0.05232946
vn -0.38215914 0.92261380 -0.05232947
vn -0.38215914 0.92261368 -0.05232945
vn -0.38215914 0.92261380 -0.05232946
vn -0.55480909 0.83033043 -0.05232945
vn -0.38215914 0.92261368 -0.05232948
vn -0.55480909 0.83033043 -0.05232948
vn -0.55480909 0.83033037 -0.05232948
vn -0.70613801 0.70613801 -0.05232949
vn -0.55480909 0.83033037 -0.05232945
vn -0.70613801 0.70613801 -0.05232945
vn -0.70613796 0.70613796 -0.05232944
vn -0.70613801 0.70613801 -0.05232946
vn -0.83033043 0.55480909 -0.05232945
vn -0.70613796 0.70613796 -0.05232948
vn -0.83033043 0.55480909 -0.05232949
vn -0.83033037 0.55480909 -0.05232949
vn -0.83033037 0.55480909 -0.05232948
vn -0.83033043 0.55480909 -0.05232948
vn -0.92261380 0.38215914 -0.05232948
vn -0.83033037 0.55480909 -0.05232946
vn -0.92261380 0.38215914 -0.05232947
vn -0.92261368 0.38215914 -0.05232945
vn -0.97944152 0.19482303 -0.05232946
vn -0.92261368 0.38215914 -0.05232949
vn -0.97944152 0.19482303 -0.05232950
vn -0.97944152 0.19482304 -0.05232950
vn -0.97944152 0.19482304 -0.05232949
vn -0.97944152 0.19482303 -0.05232949
vn -0.99862993 0.00000000 -0.05232949
vn -0.99862993 0.00000000 -0.05232950
vn -0.97944152 -0.19482303 -0.05232950
vn -0.97944152 -0.19482304 -0.05232950
vn -0.97944152 -0.19482304 -0.05232949
vn -0.97944152 -0.19482303 -0.05232949
vn -0.92261380 -0.38215914 -0.05232950
vn -0.97944152 -0.19482304 -0.05232946
vn -0.92261380 -0.38215914 -0.05232947
vn -0.92261368 -0.38215914 -0.05232945
vn -0.92261380 -0.38215914 -0.05232946
vn -0.83033043 -0.55480909 -0.05232945
vn -0.92261368 -0.38215914 -0.05232948
vn -0.83033043 -0.55480909 -0.05232948
vn -0.83033037 -0.55480909 -0.05232948
vn -0.70613801 -0.70613801 -0.05232949
vn -0.83033037 -0.55480909 -0.05232945
vn -0.70613801 -0.70613801 -0.05232945
vn -0.70613796 -0.70613796 -0.05232944
vn -0.70613801 -0.70613801 -0.05232946
vn -0.55480909 -0.83033043 -0.05232945
vn -0.70613796 -0.70613796 -0.05232948
vn -0.55480909 -0.83033043 -0.05232949
vn -0.55480909 -0.83033037 -0.05232949
vn -0.55480909 -0.83033037 -0.05232948
vn -0.55480909 -0.83033043 -0.05232948
vn -0.38215914 -0.92261380 -0.05232948
vn -0.55480909 -0.83033037 -0.05232946
vn -0.38215914 -0.92261380 -0.05232947
vn -0.38215914 -0.92261368 -0.05232945
vn -0.19482303 -0.97944152 -0.05232946
vn -0.38215914 -0.92261368 -0.05232949
vn -0.19482303 -0.97944152 -0.05232950
vn -0.19482304 -0.97944152 -0.05232950
vn -0.19482304 -0.97944152 -0.05232949
vn -0.19482303 -0.97944152 -0.05232949
vn -0.00000000 -0.99862993 -0.05232949
vn -0.00000000 -0.99862993 -0.05232950
vn 0.19482303 -0.97944152 -0.05232950
vn 0.19482304 -0.97944152 -0.05232950
vn 0.19482304 -0.97944152 -0.05232949
vn 0.19482303 -0.97944152 -0.05232949
vn 0.38215914 -0.92261380 -0.05232950
vn 0.19482304 -0.97944152 -0.05232946
vn 0.38215914 -0.92261380 -0.05232947
vn 0.38215914 -0.92261368 -0.05232945
vn 0.38215914 -0.92261380 -0.05232946
vn 0.55480909 -0.83033043 -0.05232945
vn 0.38215914 -0.92261368 -0.05232948
vn 0.55480909 -0.83033043 -0.05232948
vn 0.55480909 -0.83033037 -0.05232948
vn 0.70613801 -0.70613801 -0.05232949
vn 0.55480909 -0.83033037 -0.05232945
vn 0.70613801 -0.70613801 -0.05232945
vn 0.70613796 -0.70613796 -0.05232944
vn 0.70613801 -0.70613801 -0.05232946
vn 0.83033043 -0.55480909 -0.05232945
vn 0.70613796 -0.70613796 -0.05232948
vn 0.83033043 -0.55480909 -0.05232949
vn 0.83033037 -0.55480909 -0.05232949
vn 0.83033037 -0.55480909 -0.05232948
vn 0.83033043 -0.55480909 -0.05232948
vn 0.92261380 -0.38215914 -0.05232948
vn 0.83033037 -0.55480909 -0.05232946
vn 0.92261380 -0.38215914 -0.05232947
vn 0.92261368 -0.38215914 -0.05232945
vn 0.97944152 -0.19482303 -0.05232946
vn 0.92261368 -0.38215914 -0.05232949
vn 0.97944152 -0.19482303 -0.05232950
vn 0.97944152 -0.19482304 -0.05232950
vn 0.97944152 -0.19482304 -0.05232949
vn 0.97944152 -0.19482303 -0.05232949
vn 0.99862993 0.00000000 -0.05232949
vn 1.00000000 0.00000000 0.00000000
vn 0.98078537 0.19509034 0.00000000
vn 0.92387956 0.38268346 0.00000000
vn 0.83146960 0.55557024 0.00000000
vn 0.70710677 0.70710677 0.00000000
vn 0.55557024 0.83146960 0.00000000
vn 0.38268346 0.92387956 0.00000000
vn 0.19509034 0.98078537 0.00000000
vn 0.00000000 1.00000000 0.00000000
vn -0.19509034 0.98078537 -0.00000000
vn -0.38268346 0.92387956 -0.00000000
vn -0.55557024 0.83146960 -0.00000000
vn -0.70710677 0.70710677 -0.00000000
vn -0.83146960 0.55557024 -0.00000000
vn -0.92387956 0.38268346 -0.00000000
vn -0.98078537 0.19509034 -0.00000000
vn -1.00000000 0.00000000 -0.00000000
vn -0.98078537 -0.19509034 -0.00000000
vn -0.92387956 -0.38268346 -0.00000000
vn -0.83146960 -0.55557024 -0.00000000
vn -0.70710677 -0.70710677 -0.00000000
vn -0.55557024 -0.83146960 -0.00000000
vn -0.38268346 -0.92387956 -0.00000000
vn -0.19509034 -0.98078537 -0.00000000
vn -0.00000000 -1.00000000 -0.00000000
vn 0.19509034 -0.98078537 -0.00000000
vn 0.38268346 -0.92387956 -0.00000000
vn 0.55557024 -0.83146960 -0.00000000
vn 0.70710677 -0.70710677 -0.00000000
vn 0.83146960 -0.55557024 -0.00000000
vn 0.92387956 -0.38268346 -0.00000000
vn 0.98078537 -0.19509034 -0.00000000
vn 0.94195366 0.00000000 -0.33574292
vn 0.92385423 0.18376604 -0.33574292
vn 0.94195354 0.00000000 -0.33574301
vn 0.92385423 0.18376604 -0.33574307
vn 0.92385423 0.18376604 -0.33574301
vn 0.87025166 0.36047006 -0.33574301
vn 0.92385411 0.18376601 -0.33574337
vn 0.87025160 0.36047000 -0.33574337
vn 0.87025154 0.36046997 -0.33574337
vn 0.87025154 0.36046997 -0.33574331
vn 0.87025160 0.36047000 -0.33574331
vn 0.78320575 0.52332133 -0.33574328
vn 0.78320575 0.52332133 -0.33574334
vn 0.78320569 0.52332133 -0.33574334
vn 0.78320575 0.52332133 -0.33574325
vn 0.66606170 0.66606170 -0.33574328
vn 0.78320575 0.52332133 -0.33574319
vn 0.66606170 0.66606170 -0.33574319
vn 0.66606176 0.66606176 -0.33574322
vn 0.66606164 0.66606164 -0.33574328
vn 0.52332133 0.78320575 -0.33574325
vn 0.66606164 0.66606164 -0.33574331
vn 0.52332133 0.78320575 -0.33574328
vn 0.52332133 0.78320575 -0.33574331
vn 0.36047000 0.87025160 -0.33574331
vn 0.52332133 0.78320575 -0.33574334
vn 0.36047000 0.87025160 -0.33574334
vn 0.36046997 0.87025154 -0.33574334
vn 0.18376601 0.92385411 -0.33574334
vn 0.36047003 0.87025160 -0.33574304
vn 0.18376604 0.92385423 -0.33574304
vn 0.18376604 0.92385423 -0.33574301
vn 0.00000000 0.94195366 -0.33574301
vn 0.18376604 0.92385423 -0.33574292
vn 0.00000000 0.94195366 -0.33574292
vn -0.18376604 0.92385423 -0.33574292
vn 0.00000000 0.94195354 -0.33574301
vn -0.18376604 0.92385423 -0.33574307
vn -0.18376604 0.92385423 -0.33574301
vn -0.36047006 0.87025166 -0.33574301
vn -0.18376601 0.92385411 -0.33574337
vn -0.36047000 0.87025160 -0.33574337
vn -0.36046997 0.87025154 -0.33574337
vn -0.36046997 0.87025154 -0.33574331
vn -0.36047000 0.87025160 -0.33574331
vn -0.52332133 0.78320575 -0.33574328
vn -0.52332133 0.78320575 -0.33574334
vn -0.52332133 0.78320569 -0.33574334
vn -0.52332133 0.78320575 -0.33574325
vn -0.66606170 0.66606170 -0.33574328
vn -0.52332133 0.78320575 -0.33574319
vn -0.66606170 0.66606170 -0.33574319
vn -0.66606176 0.66606176 -0.33574322
vn -0.66606164 0.66606164 -0.33574328
vn -0.78320575 0.52332133 -0.33574325
vn -0.66606164 0.66606164 -0.33574331
vn -0.78320575 0.52332133 -0.33574328
vn -0.78320575 0.52332133 -0.33574331
vn -0.87025160 0.36047000 -0.33574331
vn -0.78320575 0.52332133 -0.33574334
vn -0.87025160 0.36047000 -0.33574334
vn -0.87025154 0.36046997 -0.33574334
vn -0.92385411 0.18376601 -0.33574334
vn -0.87025160 0.36047003 -0.33574304
vn -0.92385423 0.18376604 -0.33574304
vn -0.92385423 0.18376604 -0.33574301
vn -0.94195366 0.00000000 -0.33574301
vn -0.92385423 0.18376604 -0.33574292
vn -0.94195366 0.00000000 -0.33574292
vn -0.92385423 -0.18376604 -0.33574292
vn -0.94195354 0.00000000 -0.33574301
vn -0.92385423 -0.18376604 -0.33574307
vn -0.92385423 -0.18376604 -0.33574301
vn -0.87025166 -0.36047006 -0.33574301
vn -0.92385411 -0.18376601 -0.33574337
vn -0.87025160 -0.36047000 -0.33574337
vn -0.87025154 -0.36046997 -0.33574337
vn -0.87025154 -0.36046997 -0.33574331
vn -0.87025160 -0.36047000 -0.33574331
vn -0.78320575 -0.52332133 -0.33574328
vn -0.78320575 -0.52332133 -0.33574334
vn -0.78320569 -0.52332133 -0.33574334
vn -0.78320575 -0.52332133 -0.33574325
vn -0.66606170 -0.66606170 -0.33574328
vn -0.78320575 -0.52332133 -0.33574319
vn -0.66606170 -0.66606170 -0.33574319
vn -0.66606176 -0.66606176 -0.33574322
vn -0.66606164 -0.66606164 -0.33574328
vn -0.52332133 -0.78320575 -0.33574325
vn -0.66606164 -0.66606164 -0.33574331
vn -0.52332133 -0.78320575 -0.33574328
vn -0.52332133 -0.78320575 -0.33574331
vn -0.36047000 -0.87025160 -0.33574331
vn -0.52332133 -0.78320575 -0.33574334
vn -0.36047000 -0.87025160 -0.33574334
vn -0.36046997 -0.87025154 -0.33574334
vn -0.18376601 -0.92385411 -0.33574334
vn -0.36047003 -0.87025160 -0.33574304
vn -0.18376604 -0.92385423 -0.33574304
vn -0.18376604 -0.92385423 -0.33574301
vn -0.00000000 -0.94195366 -0.33574301
vn -0.18376604 -0.92385423 -0.33574292
vn -0.00000000 -0.94195366 -0.33574292
vn 0.18376604 -0.92385423 -0.33574292
vn -0.00000000 -0.94195354 -0.33574301
vn 0.18376604 -0.92385423 -0.33574307
vn 0.18376604 -0.92385423 -0.33574301
vn 0.36047006 -0.87025166 -0.33574301
vn 0.18376601 -0.92385411 -0.33574337
vn 0.36047000 -0.87025160 -0.33574337
vn 0.36046997 -0.87025154 -0.33574337
vn 0.36046997 -0.87025154 -0.33574331
vn 0.36047000 -0.87025160 -0.33574331
vn 0.52332133 -0.78320575 -0.33574328
vn 0.52332133 -0.78320575 -0.33574334
vn 0.52332133 -0.78320569 -0.33574334
vn 0.52332133 -0.78320575 -0.33574325
vn 0.66606170 -0.66606170 -0.33574328
vn 0.52332133 -0.78320575 -0.33574319
vn 0.66606170 -0.66606170 -0.33574319
vn 0.66606176 -0.66606176 -0.33574322
vn 0.66606164 -0.66606164 -0.33574328
vn 0.78320575 -0.52332133 -0.33574325
vn 0.66606164 -0.66606164 -0.33574331
vn 0.78320575 -0.52332133 -0.33574328
vn 0.78320575 -0.52332133 -0.33574331
vn 0.87025160 -0.36047000 -0.33574331
vn 0.78320575 -0.52332133 -0.33574334
vn 0.87025160 -0.36047000 -0.33574334
vn 0.87025154 -0.36046997 -0.33574334
vn 0.92385411 -0.18376601 -0.33574334
vn 0.87025160 -0.36047003 -0.33574304
vn 0.92385423 -0.18376604 -0.33574304
vn 0.92385423 -0.18376604 -0.33574301
vn 0.94195366 0.00000000 -0.33574301
vn 0.92385423 -0.18376604 -0.33574292
vn 0.00000000 0.00000000 -1.00000000
vn -0.99552333 -0.00000000 -0.09451608
vn -0.97639459 -0.19421695 -0.09451608
vn -0.99552333 -0.00000000 -0.09451627
vn -0.97639459 -0.19421695 -0.09451627
vn -0.97639465 -0.19421698 -0.09451627
vn -0.91974360 -0.38097027 -0.09451627
vn -0.97639465 -0.19421698 -0.09451621
vn -0.91974360 -0.38097027 -0.09451621
vn -0.91974366 -0.38097030 -0.09451621
vn -0.82774740 -0.55308312 -0.09451621
vn -0.91974354 -0.38097027 -0.09451649
vn -0.82774740 -0.55308312 -0.09451650
vn -0.82774740 -0.55308306 -0.09451650
vn -0.70394129 -0.70394129 -0.09451650
vn -0.82774740 -0.55308306 -0.09451637
vn -0.70394129 -0.70394129 -0.09451637
vn -0.70394129 -0.70394129 -0.09451635
vn -0.55308312 -0.82774740 -0.09451637
vn -0.70394129 -0.70394129 -0.09451647
vn -0.55308312 -0.82774740 -0.09451649
vn -0.55308306 -0.82774740 -0.09451649
vn -0.55308306 -0.82774740 -0.09451652
vn -0.55308312 -0.82774740 -0.09451652
vn -0.38097027 -0.91974360 -0.09451652
vn -0.55308306 -0.82774740 -0.09451620
vn -0.38097027 -0.91974360 -0.09451620
vn -0.38097030 -0.91974366 -0.09451620
vn -0.38097030 -0.91974366 -0.09451622
vn -0.38097027 -0.91974360 -0.09451622
vn -0.19421695 -0.97639459 -0.09451622
vn -0.38097030 -0.91974366 -0.09451628
vn -0.19421695 -0.97639459 -0.09451628
vn -0.19421698 -0.97639465 -0.09451628
vn -0.19421698 -0.97639465 -0.09451627
vn -0.19421695 -0.97639459 -0.09451627
vn -0.00000000 -0.99552333 -0.09451627
vn -0.19421698 -0.97639465 -0.09451610
vn -0.00000000 -0.99552333 -0.09451610
vn -0.00000000 -0.99552333 -0.09451608
vn 0.19421695 -0.97639459 -0.09451608
vn 0.19421695 -0.97639459 -0.09451627
vn 0.19421698 -0.97639465 -0.09451627
vn 0.38097027 -0.91974360 -0.09451627
vn 0.19421698 -0.97639465 -0.09451621
vn 0.38097027 -0.91974360 -0.09451621
vn 0.38097030 -0.91974366 -0.09451621
vn 0.55308312 -0.82774740 -0.09451621
vn 0.38097027 -0.91974354 -0.09451649
vn 0.55308312 -0.82774740 -0.09451650
vn 0.55308306 -0.82774740 -0.09451650
vn 0.70394129 -0.70394129 -0.09451650
vn 0.55308306 -0.82774740 -0.09451637
vn 0.70394129 -0.70394129 -0.09451637
vn 0.70394129 -0.70394129 -0.09451635
vn 0.82774740 -0.55308312 -0.09451637
vn 0.70394129 -0.70394129 -0.09451647
vn 0.82774740 -0.55308312 -0.09451649
vn 0.82774740 -0.55308306 -0.09451649
vn 0.82774740 -0.55308306 -0.09451652
vn 0.82774740 -0.55308312 -0.09451652
vn 0.91974360 -0.38097027 -0.09451652
vn 0.82774740 -0.55308306 -0.09451620
vn 0.91974360 -0.38097027 -0.09451620
vn 0.91974366 -0.38097030 -0.09451620
vn 0.91974366 -0.38097030 -0.09451622
vn 0.91974360 -0.38097027 -0.09451622
vn 0.97639459 -0.19421695 -0.09451622
vn 0.91974366 -0.38097030 -0.09451628
vn 0.97639459 -0.19421695 -0.09451628
vn 0.97639465 -0.19421698 -0.09451628
vn 0.97639465 -0.19421698 -0.09451627
vn 0.97639459 -0.19421695 -0.09451627
vn 0.99552333 -0.00000000 -0.09451627
vn 0.97639465 -0.19421698 -0.09451610
vn 0.99552333 -0.00000000 -0.09451610
vn 0.99552333 -0.00000000 -0.09451608
vn 0.97639459 0.19421695 -0.09451608
vn 0.97639459 0.19421695 -0.09451627
vn 0.97639465 0.19421698 -0.09451627
vn 0.91974360 0.38097027 -0.09451627
vn 0.97639465 0.19421698 -0.09451621
vn 0.91974360 0.38097027 -0.09451621
vn 0.91974366 0.38097030 -0.09451621
vn 0.82774740 0.55308312 -0.09451621
vn 0.91974354 0.38097027 -0.09451649
vn 0.82774740 0.55308312 -0.09451650
vn 0.82774740 0.55308306 -0.09451650
vn 0.70394129 0.70394129 -0.09451650
vn 0.82774740 0.55308306 -0.09451637
vn 0.70394129 0.70394129 -0.09451637
vn 0.70394129 0.70394129 -0.09451635
vn 0.55308312 0.82774740 -0.09451637
vn 0.70394129 0.70394129 -0.09451647
vn 0.55308312 0.82774740 -0.09451649
vn 0.55308306 0.82774740 -0.09451649
vn 0.55308306 0.82774740 -0.09451652
vn 0.55308312 0.82774740 -0.09451652
vn 0.38097027 0.91974360 -0.09451652
vn 0.55308306 0.82774740 -0.09451620
vn 0.38097027 0.91974360 -0.09451620
vn 0.38097030 0.91974366 -0.09451620
vn 0.38097030 0.91974366 -0.09451622
vn 0.38097027 0.91974360 -0.09451622
vn 0.19421695 0.97639459 -0.09451622
vn 0.38097030 0.91974366 -0.09451628
vn 0.19421695 0.97639459 -0.09451628
vn 0.19421698 0.97639465 -0.09451628
vn 0.19421698 0.97639465 -0.09451627
vn 0.19421695 0.97639459 -0.09451627
vn 0.00000000 0.99552333 -0.09451627
vn 0.19421698 0.97639465 -0.09451610
vn 0.00000000 0.99552333 -0.09451610
vn 0.00000000 0.99552333 -0.09451608
vn -0.19421695 0.97639459 -0.09451608
vn -0.19421695 0.97639459 -0.09451627
vn -0.19421698 0.97639465 -0.09451627
vn -0.38097027 0.91974360 -0.09451627
vn -0.19421698 0.97639465 -0.09451621
vn -0.38097027 0.91974360 -0.09451621
vn -0.38097030 0.91974366 -0.09451621
vn -0.55308312 0.82774740 -0.09451621
vn -0.38097027 0.91974354 -0.09451649
vn -0.55308312 0.82774740 -0.09451650
vn -0.55308306 0.82774740 -0.09451650
vn -0.70394129 0.70394129 -0.09451650
vn -0.55308306 0.82774740 -0.09451637
vn -0.70394129 0.70394129 -0.09451637
vn -0.70394129 0.70394129 -0.09451635
vn -0.82774740 0.55308312 -0.09451637
vn -0.70394129 0.70394129 -0.09451647
vn -0.82774740 0.55308312 -0.09451649
vn -0.82774740 0.55308306 -0.09451649
vn -0.82774740 0.55308306 -0.09451652
vn -0.82774740 0.55308312 -0.09451652
vn -0.91974360 0.38097027 -0.09451652
vn -0.82774740 0.55308306 -0.09451620
vn -0.91974360 0.38097027 -0.09451620
vn -0.91974366 0.38097030 -0.09451620
vn -0.91974366 0.38097030 -0.09451622
vn -0.91974360 0.38097027 -0.09451622
vn -0.97639459 0.19421695 -0.09451622
vn -0.91974366 0.38097030 -0.09451628
vn -0.97639459 0.19421695 -0.09451628
vn -0.97639465 0.19421698 -0.09451628
vn -0.97639465 0.19421698 -0.09451627
vn -0.97639459 0.19421695 -0.09451627
vn -0.97639465 0.19421698 -0.09451610
vn -0.99552333 -0.00000000 -0.09451610
vn -0.99737370 -0.00000000 -0.07242652
vn -0.99737376 -0.00000000 -0.07242653
vn -0.97820956 -0.19457799 -0.07242653
vn -0.99737370 -0.00000000 -0.07242653
vn -0.97820956 -0.19457799 -0.07242654
vn -0.97820956 -0.19457796 -0.07242654
vn -0.92145318 -0.38167840 -0.07242653
vn -0.92145324 -0.38167843 -0.07242654
vn -0.92145324 -0.38167843 -0.07242653
vn -0.92145318 -0.38167840 -0.07242652
vn -0.82928592 -0.55411118 -0.07242653
vn -0.92145324 -0.38167843 -0.07242651
vn -0.82928592 -0.55411118 -0.07242651
vn -0.82928592 -0.55411112 -0.07242651
vn -0.70524979 -0.70524979 -0.07242651
vn -0.55411118 -0.82928592 -0.07242651
vn -0.55411112 -0.82928592 -0.07242651
vn -0.55411112 -0.82928592 -0.07242649
vn -0.55411118 -0.82928592 -0.07242650
vn -0.38167840 -0.92145318 -0.07242649
vn -0.55411112 -0.82928592 -0.07242652
vn -0.38167840 -0.92145318 -0.07242652
vn -0.38167843 -0.92145324 -0.07242653
vn -0.19457799 -0.97820956 -0.07242653
vn -0.38167843 -0.92145324 -0.07242654
vn -0.19457799 -0.97820956 -0.07242654
vn -0.19457796 -0.97820956 -0.07242654
vn -0.00000000 -0.99737376 -0.07242654
vn -0.00000000 -0.99737370 -0.07242653
vn -0.00000000 -0.99737370 -0.07242652
vn -0.00000000 -0.99737376 -0.07242653
vn 0.19457799 -0.97820956 -0.07242653
vn 0.19457799 -0.97820956 -0.07242654
vn 0.19457796 -0.97820956 -0.07242654
vn 0.38167840 -0.92145318 -0.07242653
vn 0.38167843 -0.92145324 -0.07242654
vn 0.38167843 -0.92145324 -0.07242653
vn 0.38167840 -0.92145318 -0.07242652
vn 0.55411118 -0.82928592 -0.07242653
vn 0.38167843 -0.92145324 -0.07242651
vn 0.55411118 -0.82928592 -0.07242651
vn 0.55411112 -0.82928592 -0.07242651
vn 0.70524979 -0.70524979 -0.07242651
vn 0.82928592 -0.55411118 -0.07242651
vn 0.82928592 -0.55411112 -0.07242651
vn 0.82928592 -0.55411112 -0.07242649
vn 0.82928592 -0.55411118 -0.07242650
vn 0.92145318 -0.38167840 -0.07242649
vn 0.82928592 -0.55411112 -0.07242652
vn 0.92145318 -0.38167840 -0.07242652
vn 0.92145324 -0.38167843 -0.07242653
vn 0.97820956 -0.19457799 -0.07242653
vn 0.92145324 -0.38167843 -0.07242654
vn 0.97820956 -0.19457799 -0.07242654
vn 0.97820956 -0.19457796 -0.07242654
vn 0.99737376 -0.00000000 -0.07242654
vn 0.99737370 -0.00000000 -0.07242653
vn 0.99737370 -0.00000000 -0.07242652
vn 0.99737376 -0.00000000 -0.07242653
vn 0.97820956 0.19457799 -0.07242653
vn 0.97820956 0.19457799 -0.07242654
vn 0.97820956 0.19457796 -0.07242654
vn 0.92145318 0.38167840 -0.07242653
vn 0.92145324 0.38167843 -0.07242654
vn 0.92145324 0.38167843 -0.07242653
vn 0.92145318 0.38167840 -0.07242652
vn 0.82928592 0.55411118 -0.07242653
vn 0.92145324 0.38167843 -0.07242651
vn 0.82928592 0.55411118 -0.07242651
vn 0.82928592 0.55411112 -0.07242651
vn 0.70524979 0.70524979 -0.07242651
vn 0.55411118 0.82928592 -0.07242651
vn 0.55411112 0.82928592 -0.07242651
vn 0.55411112 0.82928592 -0.07242649
vn 0.55411118 0.82928592 -0.07242650
vn 0.38167840 0.92145318 -0.07242649
vn 0.55411112 0.82928592 -0.07242652
vn 0.38167840 0.92145318 -0.07242652
vn 0.38167843 0.92145324 -0.07242653
vn 0.19457799 0.97820956 -0.07242653
vn 0.38167843 0.92145324 -0.07242654
vn 0.19457799 0.97820956 -0.07242654
vn 0.19457796 0.97820956 -0.07242654
vn 0.00000000 0.99737376 -0.07242654
vn 0.00000000 0.99737370 -0.07242653
vn 0.00000000 0.99737370 -0.07242652
vn 0.00000000 0.99737376 -0.07242653
vn -0.19457799 0.97820956 -0.07242653
vn -0.19457799 0.97820956 -0.07242654
vn -0.19457796 0.97820956 -0.07242654
vn -0.38167840 0.92145318 -0.07242653
vn -0.38167843 0.92145324 -0.07242654
vn -0.38167843 0.92145324 -0.07242653
vn -0.38167840 0.92145318 -0.07242652
vn -0.55411118 0.82928592 -0.07242653
vn -0.38167843 0.92145324 -0.07242651
vn -0.55411118 0.82928592 -0.07242651
vn -0.55411112 0.82928592 -0.07242651
vn -0.70524979 0.70524979 -0.07242651
vn -0.82928592 0.55411118 -0.07242651
vn -0.82928592 0.55411112 -0.07242651
vn -0.82928592 0.55411112 -0.07242649
vn -0.82928592 0.55411118 -0.07242650
vn -0.92145318 0.38167840 -0.07242649
vn -0.82928592 0.55411112 -0.07242652
vn -0.92145318 0.38167840 -0.07242652
vn -0.92145324 0.38167843 -0.07242653
vn -0.97820956 0.19457799 -0.07242653
vn -0.92145324 0.38167843 -0.07242654
vn -0.97820956 0.19457799 -0.07242654
vn -0.97820956 0.19457796 -0.07242654
vn -0.99737376 -0.00000000 -0.07242654
g nozzle
f 1/1/1 2/1/2 3/1/3
f 1/1/4 3/1/5 4/1/6
f 4/1/7 3/1/8 5/1/9
f 4/1/10 5/1/11 6/1/12
f 6/1/13 5/1/14 7/1/15
f 6/1/16 7/1/17 8/1/18
f 8/1/19 7/1/20 9/1/21
f 8/1/22 9/1/23 10/1/23
f 10/1/24 9/1/24 11/1/25
f 10/1/26 11/1/27 12/1/28
f 12/1/29 11/1/30 13/1/31
f 12/1/32 13/1/33 14/1/34
f 14/1/35 13/1/36 15/1/37
f 14/1/38 15/1/39 16/1/40
f 16/1/41 15/1/42 17/1/43
f 16/1/44 17/1/45 18/1/46
f 18/1/47 17/1/48 19/1/49
f 18/1/50 19/1/51 20/1/52
f 20/1/53 19/1/54 21/1/55
f 20/1/56 21/1/57 22/1/58
f 22/1/59 21/1/60 23/1/61
f 22/1/62 23/1/63 24/1/64
f 24/1/65 23/1/66 25/1/67
f 24/1/68 25/1/69 26/1/69
f 26/1/70 25/1/70 27/1/71
f 26/1/72 27/1/73 28/1/74
f 28/1/75 27/1/76 29/1/77
f 28/1/78 29/1/79 30/1/80
f 30/1/81 29/1/82 31/1/83
f 30/1/84 31/1/85 32/1/86
f 32/1/87 31/1/88 33/1/89
f 32/1/90 33/1/91 34/1/92
f 34/1/93 33/1/94 35/1/95
f 34/1/96 35/1/97 36/1/98
f 36/1/99 35/1/100 37/1/101
f 36/1/102 37/1/103 38/1/104
f 38/1/105 37/1/106 39/1/107
f 38/1/108 39/1/109 40/1/110
f 40/1/111 39/1/112 41/1/113
f 40/1/114 41/1/115 42/1/115
f 42/1/116 41/1/116 43/1/117
f 42/1/118 43/1/119 44/1/120
f 44/1/121 43/1/122 45/1/123
f 44/1/124 45/1/125 46/1/126
f 46/1/127 45/1/128 47/1/129
f 46/1/130 47/1/131 48/1/132
f 48/1/133 47/1/134 49/1/135
f 48/1/136 49/1/137 50/1/138
f 50/1/139 49/1/140 51/1/141
f 50/1/142 51/1/143 52/1/144
f 52/1/145 51/1/146 53/1/147
f 52/1/148 53/1/149 54/1/150
f 54/1/151 53/1/152 55/1/153
f 54/1/154 55/1/155 56/1/156
f 56/1/157 55/1/158 57/1/159
f 56/1/160 57/1/161 58/1/161
f 58/1/162 57/1/162 59/1/163
f 58/1/164 59/1/165 60/1/166
f 60/1/167 59/1/168 61/1/169
f 60/1/170 61/1/171 62/1/172
f 62/1/173 61/1/174 63/1/175
f 62/1/176 63/1/177 64/1/178
f 64/1/179 63/1/180 2/1/181
f 64/1/182 2/1/183 1/1/184
f 2/1/185 65/1/186 66/1/187
f 2/1/188 66/1/189 3/1/190
f 3/1/190 66/1/189 67/1/191
f 3/1/192 67/1/193 5/1/193
f 5/1/194 67/1/194 68/1/195
f 5/1/196 68/1/197 7/1/198
f 7/1/199 68/1/200 69/1/201
f 7/1/202 69/1/203 9/1/203
f 9/1/204 69/1/204 70/1/205
f 9/1/206 70/1/207 11/1/208
f 11/1/209 70/1/210 71/1/211
f 11/1/212 71/1/213 13/1/213
f 13/1/213 71/1/213 72/1/214
f 13/1/215 72/1/216 15/1/217
f 15/1/217 72/1/216 73/1/218
f 15/1/219 73/1/220 17/1/221
f 17/1/221 73/1/220 74/1/222
f 17/1/223 74/1/224 19/1/225
f 19/1/225 74/1/224 75/1/226
f 19/1/227 75/1/228 21/1/228
f 21/1/229 75/1/229 76/1/230
f 21/1/231 76/1/232 23/1/233
f 23/1/234 76/1/235 77/1/236
f 23/1/237 77/1/238 25/1/238
f 25/1/239 77/1/239 78/1/240
f 25/1/241 78/1/242 27/1/243
f 27/1/244 78/1/245 79/1/246
f 27/1/247 79/1/248 29/1/248
f 29/1/248 79/1/248 80/1/249
f 29/1/250 80/1/251 31/1/252
f 31/1/252 80/1/251 81/1/253
f 31/1/254 81/1/255 33/1/256
f 33/1/256 81/1/255 82/1/257
f 33/1/258 82/1/259 35/1/260
f 35/1/260 82/1/259 83/1/261
f 35/1/262 83/1/263 37/1/263
f 37/1/264 83/1/264 84/1/265
f 37/1/266 84/1/267 39/1/268
f 39/1/269 84/1/270 85/1/271
f 39/1/272 85/1/273 41/1/273
f 41/1/274 85/1/274 86/1/275
f 41/1/276 86/1/277 43/1/278
f 43/1/279 86/1/280 87/1/281
f 43/1/282 87/1/283 45/1/283
f 45/1/283 87/1/283 88/1/284
f 45/1/285 88/1/286 47/1/287
f 47/1/287 88/1/286 89/1/288
f 47/1/289 89/1/290 49/1/291
f 49/1/291 89/1/290 90/1/292
f 49/1/293 90/1/294 51/1/295
f 51/1/295 90/1/294 91/1/296
f 51/1/297 91/1/298 53/1/298
f 53/1/299 91/1/299 92/1/300
f 53/1/301 92/1/302 55/1/303
f 55/1/304 92/1/305 93/1/306
f 55/1/307 93/1/308 57/1/308
f 57/1/309 93/1/309 94/1/310
f 57/1/311 94/1/312 59/1/313
f 59/1/314 94/1/315 95/1/316
f 59/1/317 95/1/318 61/1/318
f 61/1/318 95/1/318 96/1/319
f 61/1/320 96/1/321 63/1/322
f 63/1/322 96/1/321 65/1/323
f 63/1/324 65/1/186 2/1/185
f 65/1/325 97/1/325 98/1/326
f 65/1/327 98/1/328 66/1/329
f 66/1/329 98/1/328 99/1/330
f 66/1/331 99/1/332 67/1/333
f 67/1/334 99/1/335 100/1/336
f 67/1/337 100/1/338 68/1/339
f 68/1/340 100/1/341 101/1/342
f 68/1/343 101/1/344 69/1/345
f 69/1/346 101/1/347 102/1/348
f 69/1/342 102/1/349 70/1/350
f 70/1/351 102/1/352 103/1/353
f 70/1/354 103/1/355 71/1/356
f 71/1/357 103/1/358 104/1/359
f 71/1/360 104/1/361 72/1/362
f 72/1/362 104/1/363 105/1/364
f 72/1/365 105/1/366 73/1/366
f 73/1/366 105/1/366 106/1/367
f 73/1/364 106/1/368 74/1/369
f 74/1/369 106/1/368 107/1/370
f 74/1/371 107/1/372 75/1/373
f 75/1/374 107/1/375 108/1/376
f 75/1/377 108/1/378 76/1/379
f 76/1/380 108/1/381 109/1/382
f 76/1/383 109/1/384 77/1/385
f 77/1/386 109/1/387 110/1/388
f 77/1/382 110/1/389 78/1/390
f 78/1/391 110/1/392 111/1/393
f 78/1/394 111/1/395 79/1/396
f 79/1/397 111/1/398 112/1/399
f 79/1/400 112/1/401 80/1/402
f 80/1/402 112/1/403 113/1/404
f 80/1/405 113/1/406 81/1/406
f 81/1/406 113/1/406 114/1/407
f 81/1/404 114/1/408 82/1/409
f 82/1/409 114/1/408 115/1/410
f 82/1/411 115/1/412 83/1/413
f 83/1/414 115/1/415 116/1/416
f 83/1/417 116/1/418 84/1/419
f 84/1/420 116/1/421 117/1/422
f 84/1/423 117/1/424 85/1/425
f 85/1/426 117/1/427 118/1/428
f 85/1/422 118/1/429 86/1/430
f 86/1/431 118/1/432 119/1/433
f 86/1/434 119/1/435 87/1/436
f 87/1/437 119/1/438 120/1/439
f 87/1/440 120/1/441 88/1/442
f 88/1/442 120/1/443 121/1/444
f 88/1/445 121/1/446 89/1/446
f 89/1/446 121/1/446 122/1/447
f 89/1/444 122/1/448 90/1/449
f 90/1/449 122/1/448 123/1/450
f 90/1/451 123/1/452 91/1/453
f 91/1/454 123/1/455 124/1/456
f 91/1/457 124/1/458 92/1/459
f 92/1/460 124/1/461 125/1/462
f 92/1/463 125/1/464 93/1/465
f 93/1/466 125/1/467 126/1/468
f 93/1/462 126/1/469 94/1/470
f 94/1/471 126/1/472 127/1/473
f 94/1/474 127/1/475 95/1/476
f 95/1/477 127/1/478 128/1/479
f 95/1/480 128/1/481 96/1/482
f 96/1/482 128/1/483 97/1/327
f 96/1/484 97/1/325 65/1/325
f 97/1/485 129/1/485 130/1/486
f 97/1/485 130/1/486 98/1/487
f 98/1/488 130/1/489 131/1/490
f 98/1/491 131/1/492 99/1/493
f 99/1/493 131/1/494 132/1/495
f 99/1/496 132/1/497 100/1/498
f 100/1/498 132/1/497 133/1/499
f 100/1/500 133/1/501 101/1/502
f 101/1/502 133/1/503 134/1/504
f 101/1/505 134/1/506 102/1/507
f 102/1/508 134/1/509 135/1/510
f 102/1/511 135/1/512 103/1/513
f 103/1/513 135/1/512 136/1/514
f 103/1/515 136/1/516 104/1/517
f 104/1/518 136/1/519 137/1/520
f 104/1/517 137/1/521 105/1/521
f 105/1/521 137/1/521 138/1/522
f 105/1/521 138/1/522 106/1/523
f 106/1/524 138/1/525 139/1/526
f 106/1/527 139/1/528 107/1/529
f 107/1/529 139/1/530 140/1/531
f 107/1/532 140/1/533 108/1/534
f 108/1/534 140/1/533 141/1/535
f 108/1/536 141/1/537 109/1/538
f 109/1/538 141/1/539 142/1/540
f 109/1/541 142/1/542 110/1/543
f 110/1/544 142/1/545 143/1/546
f 110/1/547 143/1/548 111/1/549
f 111/1/549 143/1/548 144/1/550
f 111/1/551 144/1/552 112/1/553
f 112/1/554 144/1/555 145/1/556
f 112/1/553 145/1/557 113/1/557
f 113/1/557 145/1/557 146/1/558
f 113/1/557 146/1/558 114/1/559
f 114/1/560 146/1/561 147/1/562
f 114/1/563 147/1/564 115/1/565
f 115/1/565 147/1/566 148/1/567
f 115/1/568 148/1/569 116/1/570
f 116/1/570 148/1/569 149/1/571
f 116/1/572 149/1/573 117/1/574
f 117/1/574 149/1/575 150/1/576
f 117/1/577 150/1/578 118/1/579
f 118/1/580 150/1/581 151/1/582
f 118/1/583 151/1/584 119/1/585
f 119/1/585 151/1/584 152/1/586
f 119/1/587 152/1/588 120/1/589
f 120/1/590 152/1/591 153/1/592
f 120/1/589 153/1/593 121/1/593
f 121/1/593 153/1/593 154/1/594
f 121/1/593 154/1/594 122/1/595
f 122/1/596 154/1/597 155/1/598
f 122/1/599 155/1/600 123/1/601
f 123/1/601 155/1/602 156/1/603
f 123/1/604 156/1/605 124/1/606
f 124/1/606 156/1/605 157/1/607
f 124/1/608 157/1/609 125/1/610
f 125/1/610 157/1/611 158/1/612
f 125/1/613 158/1/614 126/1/615
f 126/1/616 158/1/617 159/1/618
f 126/1/619 159/1/620 127/1/621
f 127/1/621 159/1/620 160/1/622
f 127/1/623 160/1/624 128/1/625
f 128/1/626 160/1/627 129/1/628
f 128/1/625 129/1/485 97/1/485
f 129/1/629 161/1/629 162/1/630
f 129/1/629 162/1/630 130/1/630
f 130/1/630 162/1/630 163/1/631
f 130/1/630 163/1/631 131/1/631
f 131/1/631 163/1/631 164/1/632
f 131/1/631 164/1/632 132/1/632
f 132/1/632 164/1/632 165/1/633
f 132/1/632 165/1/633 133/1/633
f 133/1/633 165/1/633 166/1/634
f 133/1/633 166/1/634 134/1/634
f 134/1/634 166/1/634 167/1/635
f 134/1/634 167/1/635 135/1/635
f 135/1/635 167/1/635 168/1/636
f 135/1/635 168/1/636 136/1/636
f 136/1/636 168/1/636 169/1/637
f 136/1/636 169/1/637 137/1/637
f 137/1/637 169/1/637 170/1/638
f 137/1/637 170/1/638 138/1/638
f 138/1/638 170/1/638 171/1/639
f 138/1/638 171/1/639 139/1/639
f 139/1/639 171/1/639 172/1/640
f 139/1/639 172/1/640 140/1/640
f 140/1/640 172/1/640 173/1/641
f 140/1/640 173/1/641 141/1/641
f 141/1/641 173/1/641 174/1/642
f 141/1/641 174/1/642 142/1/642
f 142/1/642 174/1/642 175/1/643
f 142/1/642 175/1/643 143/1/643
f 143/1/643 175/1/643 176/1/644
f 143/1/643 176/1/644 144/1/644
f 144/1/644 176/1/644 177/1/645
f 144/1/644 177/1/645 145/1/645
f 145/1/645 177/1/645 178/1/646
f 145/1/645 178/1/646 146/1/646
f 146/1/646 178/1/646 179/1/647
f 146/1/646 179/1/647 147/1/647
f 147/1/647 179/1/647 180/1/648
f 147/1/647 180/1/648 148/1/648
f 148/1/648 180/1/648 181/1/649
f 148/1/648 181/1/649 149/1/649
f 149/1/649 181/1/649 182/1/650
f 149/1/649 182/1/650 150/1/650
f 150/1/650 182/1/650 183/1/651
f 150/1/650 183/1/651 151/1/651
f 151/1/651 183/1/651 184/1/652
f 151/1/651 184/1/652 152/1/652
f 152/1/652 184/1/652 185/1/653
f 152/1/652 185/1/653 153/1/653
f 153/1/653 185/1/653 186/1/654
f 153/1/653 186/1/654 154/1/654
f 154/1/654 186/1/654 187/1/655
f 154/1/654 187/1/655 155/1/655
f 155/1/655 187/1/655 188/1/656
f 155/1/655 188/1/656 156/1/656
f 156/1/656 188/1/656 189/1/657
f 156/1/656 189/1/657 157/1/657
f 157/1/657 189/1/657 190/1/658
f 157/1/657 190/1/658 158/1/658
f 158/1/658 190/1/658 191/1/659
f 158/1/658 191/1/659 159/1/659
f 159/1/659 191/1/659 192/1/660
f 159/1/659 192/1/660 160/1/660
f 160/1/660 192/1/660 161/1/629
f 160/1/660 161/1/629 129/1/629
f 161/1/661 193/1/661 194/1/662
f 161/1/663 194/1/664 162/1/664
f 162/1/665 194/1/665 195/1/666
f 162/1/667 195/1/668 163/1/669
f 163/1/670 195/1/671 196/1/672
f 163/1/669 196/1/673 164/1/674
f 164/1/672 196/1/675 197/1/676
f 164/1/677 197/1/678 165/1/679
f 165/1/680 197/1/676 198/1/681
f 165/1/682 198/1/683 166/1/684
f 166/1/684 198/1/683 199/1/685
f 166/1/686 199/1/687 167/1/688
f 167/1/688 199/1/687 200/1/689
f 167/1/690 200/1/691 168/1/691
f 168/1/692 200/1/692 201/1/693
f 168/1/694 201/1/695 169/1/695
f 169/1/695 201/1/695 202/1/696
f 169/1/697 202/1/698 170/1/698
f 170/1/699 202/1/699 203/1/700
f 170/1/701 203/1/702 171/1/703
f 171/1/704 203/1/705 204/1/706
f 171/1/703 204/1/707 172/1/708
f 172/1/706 204/1/709 205/1/710
f 172/1/711 205/1/712 173/1/713
f 173/1/714 205/1/710 206/1/715
f 173/1/716 206/1/717 174/1/718
f 174/1/718 206/1/717 207/1/719
f 174/1/720 207/1/721 175/1/722
f 175/1/722 207/1/721 208/1/723
f 175/1/724 208/1/725 176/1/725
f 176/1/726 208/1/726 209/1/727
f 176/1/728 209/1/729 177/1/729
f 177/1/729 209/1/729 210/1/730
f 177/1/731 210/1/732 178/1/732
f 178/1/733 210/1/733 211/1/734
f 178/1/735 211/1/736 179/1/737
f 179/1/738 211/1/739 212/1/740
f 179/1/737 212/1/741 180/1/742
f 180/1/740 212/1/743 213/1/744
f 180/1/745 213/1/746 181/1/747
f 181/1/748 213/1/744 214/1/749
f 181/1/750 214/1/751 182/1/752
f 182/1/752 214/1/751 215/1/753
f 182/1/754 215/1/755 183/1/756
f 183/1/756 215/1/755 216/1/757
f 183/1/758 216/1/759 184/1/759
f 184/1/760 216/1/760 217/1/761
f 184/1/762 217/1/763 185/1/763
f 185/1/763 217/1/763 218/1/764
f 185/1/765 218/1/766 186/1/766
f 186/1/767 218/1/767 219/1/768
f 186/1/769 219/1/770 187/1/771
f 187/1/772 219/1/773 220/1/774
f 187/1/771 220/1/775 188/1/776
f 188/1/774 220/1/777 221/1/778
f 188/1/779 221/1/780 189/1/781
f 189/1/782 221/1/778 222/1/783
f 189/1/784 222/1/785 190/1/786
f 190/1/786 222/1/785 223/1/787
f 190/1/788 223/1/789 191/1/790
f 191/1/790 223/1/789 224/1/791
f 191/1/792 224/1/793 192/1/793
f 192/1/794 224/1/794 193/1/795
f 192/1/796 193/1/661 161/1/661
f 193/2/797 225/2/797 226/2/797
f 193/2/797 226/2/797 194/2/797
f 194/2/797 226/2/797 227/2/797
f 194/2/797 227/2/797 195/2/797
f 195/2/797 227/2/797 228/2/797
f 195/2/797 228/2/797 196/2/797
f 196/2/797 228/2/797 229/2/797
f 196/2/797 229/2/797 197/2/797
f 197/2/797 229/2/797 230/2/797
f 197/2/797 230/2/797 198/2/797
f 198/2/797 230/2/797 231/2/797
f 198/2/797 231/2/797 199/2/797
f 199/2/797 231/2/797 232/2/797
f 199/2/797 232/2/797 200/2/797
f 200/2/797 232/2/797 233/2/797
f 200/2/797 233/2/797 201/2/797
f 201/2/797 233/2/797 234/2/797
f 201/2/797 234/2/797 202/2/797
f 202/2/797 234/2/797 235/2/797
f 202/2/797 235/2/797 203/2/797
f 203/2/797 235/2/797 236/2/797
f 203/2/797 236/2/797 204/2/797
f 204/2/797 236/2/797 237/2/797
f 204/2/797 237/2/797 205/2/797
f 205/2/797 237/2/797 238/2/797
f 205/2/797 238/2/797 206/2/797
f 206/2/797 238/2/797 239/2/797
f 206/2/797 239/2/797 207/2/797
f 207/2/797 239/2/797 240/2/797
f 207/2/797 240/2/797 208/2/797
f 208/2/797 240/2/797 241/2/797
f 208/2/797 241/2/797 209/2/797
f 209/2/797 241/2/797 242/2/797
f 209/2/797 242/2/797 210/2/797
f 210/2/797 242/2/797 243/2/797
f 210/2/797 243/2/797 211/2/797
f 211/2/797 243/2/797 244/2/797
f 211/2/797 244/2/797 212/2/797
f 212/2/797 244/2/797 245/2/797
f 212/2/797 245/2/797 213/2/797
f 213/2/797 245/2/797 246/2/797
f 213/2/797 246/2/797 214/2/797
f 214/2/797 246/2/797 247/2/797
f 214/2/797 247/2/797 215/2/797
f 215/2/797 247/2/797 248/2/797
f 215/2/797 248/2/797 216/2/797
f 216/2/797 248/2/797 249/2/797
f 216/2/797 249/2/797 217/2/797
f 217/2/797 249/2/797 250/2/797
f 217/2/797 250/2/797 218/2/797
f 218/2/797 250/2/797 251/2/797
f 218/2/797 251/2/797 219/2/797
f 219/2/797 251/2/797 252/2/797
f 219/2/797 252/2/797 220/2/797
f 220/2/797 252/2/797 253/2/797
f 220/2/797 253/2/797 221/2/797
f 221/2/797 253/2/797 254/2/797
f 221/2/797 254/2/797 222/2/797
f 222/2/797 254/2/797 255/2/797
f 222/2/797 255/2/797 223/2/797
f 223/2/797 255/2/797 256/2/797
f 223/2/797 256/2/797 224/2/797
f 224/2/797 256/2/797 225/2/797
f 224/2/797 225/2/797 193/2/797
f 225/3/798 257/3/798 258/3/799
f 225/3/800 258/3/801 226/3/802
f 226/3/802 258/3/801 259/3/803
f 226/3/804 259/3/805 227/3/806
f 227/3/806 259/3/805 260/3/807
f 227/3/808 260/3/809 228/3/810
f 228/3/810 260/3/809 261/3/811
f 228/3/812 261/3/813 229/3/814
f 229/3/814 261/3/813 262/3/815
f 229/3/816 262/3/817 230/3/818
f 230/3/819 262/3/820 263/3/821
f 230/3/822 263/3/823 231/3/824
f 231/3/825 263/3/826 264/3/827
f 231/3/828 264/3/829 232/3/830
f 232/3/831 264/3/832 265/3/833
f 232/3/834 265/3/835 233/3/835
f 233/3/836 265/3/836 266/3/837
f 233/3/833 266/3/838 234/3/839
f 234/3/839 266/3/838 267/3/840
f 234/3/841 267/3/842 235/3/843
f 235/3/843 267/3/842 268/3/844
f 235/3/845 268/3/846 236/3/847
f 236/3/847 268/3/846 269/3/848
f 236/3/849 269/3/850 237/3/851
f 237/3/851 269/3/850 270/3/852
f 237/3/853 270/3/854 238/3/855
f 238/3/856 270/3/857 271/3/858
f 238/3/859 271/3/860 239/3/861
f 239/3/862 271/3/863 272/3/864
f 239/3/865 272/3/866 240/3/867
f 240/3/868 272/3/869 273/3/870
f 240/3/871 273/3/872 241/3/872
f 241/3/873 273/3/873 274/3/874
f 241/3/870 274/3/875 242/3/876
f 242/3/876 274/3/875 275/3/877
f 242/3/878 275/3/879 243/3/880
f 243/3/880 275/3/879 276/3/881
f 243/3/882 276/3/883 244/3/884
f 244/3/884 276/3/883 277/3/885
f 244/3/886 277/3/887 245/3/888
f 245/3/888 277/3/887 278/3/889
f 245/3/890 278/3/891 246/3/892
f 246/3/893 278/3/894 279/3/895
f 246/3/896 279/3/897 247/3/898
f 247/3/899 279/3/900 280/3/901
f 247/3/902 280/3/903 248/3/904
f 248/3/905 280/3/906 281/3/907
f 248/3/908 281/3/909 249/3/909
f 249/3/910 281/3/910 282/3/911
f 249/3/907 282/3/912 250/3/913
f 250/3/913 282/3/912 283/3/914
f 250/3/915 283/3/916 251/3/917
f 251/3/917 283/3/916 284/3/918
f 251/3/919 284/3/920 252/3/921
f 252/3/921 284/3/920 285/3/922
f 252/3/923 285/3/924 253/3/925
f 253/3/925 285/3/924 286/3/926
f 253/3/927 286/3/928 254/3/929
f 254/3/930 286/3/931 287/3/932
f 254/3/933 287/3/934 255/3/935
f 255/3/936 287/3/937 288/3/938
f 255/3/939 288/3/940 256/3/941
f 256/3/942 288/3/943 257/3/800
f 256/3/944 257/3/945 225/3/945
f 257/3/946 289/3/947 290/3/948
f 257/3/949 290/3/950 258/3/951
f 258/3/951 290/3/950 291/3/952
f 258/3/951 291/3/952 259/3/953
f 259/3/954 291/3/955 292/3/956
f 259/3/957 292/3/958 260/3/959
f 260/3/959 292/3/958 293/3/960
f 260/3/959 293/3/960 261/3/960
f 261/3/960 293/3/960 294/3/961
f 261/3/960 294/3/961 262/3/962
f 262/3/963 294/3/964 295/3/965
f 262/3/966 295/3/967 263/3/968
f 263/3/968 295/3/967 296/3/969
f 263/3/970 296/3/971 264/3/972
f 264/3/972 296/3/971 297/3/973
f 264/3/972 297/3/973 265/3/974
f 265/3/975 297/3/976 298/3/977
f 265/3/974 298/3/978 266/3/979
f 266/3/979 298/3/978 299/3/980
f 266/3/979 299/3/980 267/3/981
f 267/3/982 299/3/983 300/3/984
f 267/3/985 300/3/986 268/3/987
f 268/3/987 300/3/986 301/3/988
f 268/3/987 301/3/988 269/3/988
f 269/3/988 301/3/988 302/3/989
f 269/3/988 302/3/989 270/3/990
f 270/3/991 302/3/992 303/3/993
f 270/3/994 303/3/995 271/3/996
f 271/3/996 303/3/995 304/3/997
f 271/3/998 304/3/999 272/3/1000
f 272/3/1000 304/3/999 305/3/1001
f 272/3/1000 305/3/1001 273/3/1002
f 273/3/1003 305/3/1004 306/3/1005
f 273/3/1002 306/3/1006 274/3/1007
f 274/3/1007 306/3/1006 307/3/1008
f 274/3/1007 307/3/1008 275/3/1009
f 275/3/1010 307/3/1011 308/3/1012
f 275/3/1013 308/3/1014 276/3/1015
f 276/3/1015 308/3/1014 309/3/1016
f 276/3/1015 309/3/1016 277/3/1016
f 277/3/1016 309/3/1016 310/3/1017
f 277/3/1016 310/3/1017 278/3/1018
f 278/3/1019 310/3/1020 311/3/1021
f 278/3/1022 311/3/1023 279/3/1024
f 279/3/1024 311/3/1023 312/3/1025
f 279/3/1026 312/3/1027 280/3/1028
f 280/3/1028 312/3/1027 313/3/1029
f 280/3/1028 313/3/1029 281/3/1030
f 281/3/1031 313/3/1032 314/3/1033
f 281/3/1030 314/3/1034 282/3/1035
f 282/3/1035 314/3/1034 315/3/1036
f 282/3/1035 315/3/1036 283/3/1037
f 283/3/1038 315/3/1039 316/3/1040
f 283/3/1041 316/3/1042 284/3/1043
f 284/3/1043 316/3/1042 317/3/1044
f 284/3/1043 317/3/1044 285/3/1044
f 285/3/1044 317/3/1044 318/3/1045
f 285/3/1044 318/3/1045 286/3/1046
f 286/3/1047 318/3/1048 319/3/1049
f 286/3/1050 319/3/1051 287/3/1052
f 287/3/1052 319/3/1051 320/3/1053
f 287/3/1054 320/3/1055 288/3/1056
f 288/3/1056 320/3/1055 289/3/1057
f 288/3/1056 289/3/1057 257/3/949
f 289/3/797 321/3/797 290/3/797
f 290/3/797 321/3/797 291/3/797
f 291/3/797 321/3/797 292/3/797
f 292/3/797 321/3/797 293/3/797
f 293/3/797 321/3/797 294/3/797
f 294/3/797 321/3/797 295/3/797
f 295/3/797 321/3/797 296/3/797
f 296/3/797 321/3/797 297/3/797
f 297/3/797 321/3/797 298/3/797
f 298/3/797 321/3/797 299/3/797
f 299/3/797 321/3/797 300/3/797
f 300/3/797 321/3/797 301/3/797
f 301/3/797 321/3/797 302/3/797
f 302/3/797 321/3/797 303/3/797
f 303/3/797 321/3/797 304/3/797
f 304/3/797 321/3/797 305/3/797
f 305/3/797 321/3/797 306/3/797
f 306/3/797 321/3/797 307/3/797
f 307/3/797 321/3/797 308/3/797
f 308/3/797 321/3/797 309/3/797
f 309/3/797 321/3/797 310/3/797
f 310/3/797 321/3/797 311/3/797
f 311/3/797 321/3/797 312/3/797
f 312/3/797 321/3/797 313/3/797
f 313/3/797 321/3/797 314/3/797
f 314/3/797 321/3/797 315/3/797
f 315/3/797 321/3/797 316/3/797
f 316/3/797 321/3/797 317/3/797
f 317/3/797 321/3/797 318/3/797
f 318/3/797 321/3/797 319/3/797
f 319/3/797 321/3/797 320/3/797
f 320/3/797 321/3/797 289/3/797
