# UJ-32 Lastvika by SpinoCactus, CC BY 4.0.
# https://sketchfab.com/3d-models/uj-32-lastvika-uav-3f681c071708442c91f54407acdd33aa
# Author UVs/detail preserved; only propeller and piston motor removed.
# Decorative recessed jet nozzle; X right, Y up, +Z nose; game length 3.6.
v 0.10036631 0.00000000 -1.46989155
v 0.10203353 0.00000000 -1.49656701
v 0.10007299 0.01990575 -1.49656701
v 0.09843780 0.01958050 -1.46989155
v 0.09426669 0.03904654 -1.49656701
v 0.09272639 0.03840853 -1.46989155
v 0.08483778 0.05668679 -1.49656701
v 0.08345154 0.05576054 -1.46989155
v 0.07214860 0.07214860 -1.49656701
v 0.07096970 0.07096970 -1.46989155
v 0.05668679 0.08483778 -1.49656701
v 0.05576054 0.08345154 -1.46989155
v 0.03904654 0.09426669 -1.49656701
v 0.03840853 0.09272639 -1.46989155
v 0.01990575 0.10007299 -1.49656701
v 0.01958050 0.09843780 -1.46989155
v 0.00000000 0.10203353 -1.49656701
v 0.00000000 0.10036631 -1.46989155
v -0.01990575 0.10007299 -1.49656701
v -0.01958050 0.09843780 -1.46989155
v -0.03904654 0.09426669 -1.49656701
v -0.03840853 0.09272639 -1.46989155
v -0.05668679 0.08483778 -1.49656701
v -0.05576054 0.08345154 -1.46989155
v -0.07214860 0.07214860 -1.49656701
v -0.07096970 0.07096970 -1.46989155
v -0.08483778 0.05668679 -1.49656701
v -0.08345154 0.05576054 -1.46989155
v -0.09426669 0.03904654 -1.49656701
v -0.09272639 0.03840853 -1.46989155
v -0.10007299 0.01990575 -1.49656701
v -0.09843780 0.01958050 -1.46989155
v -0.10203353 0.00000000 -1.49656701
v -0.10036631 0.00000000 -1.46989155
v -0.10007299 -0.01990575 -1.49656701
v -0.09843780 -0.01958050 -1.46989155
v -0.09426669 -0.03904654 -1.49656701
v -0.09272639 -0.03840853 -1.46989155
v -0.08483778 -0.05668679 -1.49656701
v -0.08345154 -0.05576054 -1.46989155
v -0.07214860 -0.07214860 -1.49656701
v -0.07096970 -0.07096970 -1.46989155
v -0.05668679 -0.08483778 -1.49656701
v -0.05576054 -0.08345154 -1.46989155
v -0.03904654 -0.09426669 -1.49656701
v -0.03840853 -0.09272639 -1.46989155
v -0.01990575 -0.10007299 -1.49656701
v -0.01958050 -0.09843780 -1.46989155
v -0.00000000 -0.10203353 -1.49656701
v -0.00000000 -0.10036631 -1.46989155
v 0.01990575 -0.10007299 -1.49656701
v 0.01958050 -0.09843780 -1.46989155
v 0.03904654 -0.09426669 -1.49656701
v 0.03840853 -0.09272639 -1.46989155
v 0.05668679 -0.08483778 -1.49656701
v 0.05576054 -0.08345154 -1.46989155
v 0.07214860 -0.07214860 -1.49656701
v 0.07096970 -0.07096970 -1.46989155
v 0.08483778 -0.05668679 -1.49656701
v 0.08345154 -0.05576054 -1.46989155
v 0.09426669 -0.03904654 -1.49656701
v 0.09272639 -0.03840853 -1.46989155
v 0.10007299 -0.01990575 -1.49656701
v 0.09843780 -0.01958050 -1.46989155
v 0.10336730 0.00000000 -1.51657355
v 0.10138113 0.02016596 -1.51657355
v 0.09549893 0.03955695 -1.51657355
v 0.08594677 0.05742779 -1.51657355
v 0.07309172 0.07309172 -1.51657355
v 0.05742779 0.08594677 -1.51657355
v 0.03955695 0.09549893 -1.51657355
v 0.02016596 0.10138113 -1.51657355
v 0.00000000 0.10336730 -1.51657355
v -0.02016596 0.10138113 -1.51657355
v -0.03955695 0.09549893 -1.51657355
v -0.05742779 0.08594677 -1.51657355
v -0.07309172 0.07309172 -1.51657355
v -0.08594677 0.05742779 -1.51657355
v -0.09549893 0.03955695 -1.51657355
v -0.10138113 0.02016596 -1.51657355
v -0.10336730 0.00000000 -1.51657355
v -0.10138113 -0.02016596 -1.51657355
v -0.09549893 -0.03955695 -1.51657355
v -0.08594677 -0.05742779 -1.51657355
v -0.07309172 -0.07309172 -1.51657355
v -0.05742779 -0.08594677 -1.51657355
v -0.03955695 -0.09549893 -1.51657355
v -0.02016596 -0.10138113 -1.51657355
v -0.00000000 -0.10336730 -1.51657355
v 0.02016596 -0.10138113 -1.51657355
v 0.03955695 -0.09549893 -1.51657355
v 0.05742779 -0.08594677 -1.51657355
v 0.07309172 -0.07309172 -1.51657355
v 0.08594677 -0.05742779 -1.51657355
v 0.09549893 -0.03955695 -1.51657355
v 0.10138113 -0.02016596 -1.51657355
v 0.10170009 0.00000000 -1.53324568
v 0.09974594 0.01984070 -1.53324568
v 0.09395862 0.03891894 -1.53324568
v 0.08456053 0.05650154 -1.53324568
v 0.07191282 0.07191282 -1.53324568
v 0.05650154 0.08456053 -1.53324568
v 0.03891894 0.09395862 -1.53324568
v 0.01984070 0.09974594 -1.53324568
v 0.00000000 0.10170009 -1.53324568
v -0.01984070 0.09974594 -1.53324568
v -0.03891894 0.09395862 -1.53324568
v -0.05650154 0.08456053 -1.53324568
v -0.07191282 0.07191282 -1.53324568
v -0.08456053 0.05650154 -1.53324568
v -0.09395862 0.03891894 -1.53324568
v -0.09974594 0.01984070 -1.53324568
v -0.10170009 0.00000000 -1.53324568
v -0.09974594 -0.01984070 -1.53324568
v -0.09395862 -0.03891894 -1.53324568
v -0.08456053 -0.05650154 -1.53324568
v -0.07191282 -0.07191282 -1.53324568
v -0.05650154 -0.08456053 -1.53324568
v -0.03891894 -0.09395862 -1.53324568
v -0.01984070 -0.09974594 -1.53324568
v -0.00000000 -0.10170009 -1.53324568
v 0.01984070 -0.09974594 -1.53324568
v 0.03891894 -0.09395862 -1.53324568
v 0.05650154 -0.08456053 -1.53324568
v 0.07191282 -0.07191282 -1.53324568
v 0.08456053 -0.05650154 -1.53324568
v 0.09395862 -0.03891894 -1.53324568
v 0.09974594 -0.01984070 -1.53324568
v 0.07202367 0.00000000 -1.71663940
v 0.07063975 0.01405112 -1.71663940
v 0.06654119 0.02756226 -1.71663940
v 0.05988549 0.04001420 -1.71663940
v 0.05092843 0.05092843 -1.71663940
v 0.04001420 0.05988549 -1.71663940
v 0.02756226 0.06654119 -1.71663940
v 0.01405112 0.07063975 -1.71663940
v 0.00000000 0.07202367 -1.71663940
v -0.01405112 0.07063975 -1.71663940
v -0.02756226 0.06654119 -1.71663940
v -0.04001420 0.05988549 -1.71663940
v -0.05092843 0.05092843 -1.71663940
v -0.05988549 0.04001420 -1.71663940
v -0.06654119 0.02756226 -1.71663940
v -0.07063975 0.01405112 -1.71663940
v -0.07202367 0.00000000 -1.71663940
v -0.07063975 -0.01405112 -1.71663940
v -0.06654119 -0.02756226 -1.71663940
v -0.05988549 -0.04001420 -1.71663940
v -0.05092843 -0.05092843 -1.71663940
v -0.04001420 -0.05988549 -1.71663940
v -0.02756226 -0.06654119 -1.71663940
v -0.01405112 -0.07063975 -1.71663940
v -0.00000000 -0.07202367 -1.71663940
v 0.01405112 -0.07063975 -1.71663940
v 0.02756226 -0.06654119 -1.71663940
v 0.04001420 -0.05988549 -1.71663940
v 0.05092843 -0.05092843 -1.71663940
v 0.05988549 -0.04001420 -1.71663940
v 0.06654119 -0.02756226 -1.71663940
v 0.07063975 -0.01405112 -1.71663940
v 0.07202367 0.00000000 -1.78999674
v 0.07063975 0.01405112 -1.78999674
v 0.06654119 0.02756226 -1.78999674
v 0.05988549 0.04001420 -1.78999674
v 0.05092843 0.05092843 -1.78999674
v 0.04001420 0.05988549 -1.78999674
v 0.02756226 0.06654119 -1.78999674
v 0.01405112 0.07063975 -1.78999674
v 0.00000000 0.07202367 -1.78999674
v -0.01405112 0.07063975 -1.78999674
v -0.02756226 0.06654119 -1.78999674
v -0.04001420 0.05988549 -1.78999674
v -0.05092843 0.05092843 -1.78999674
v -0.05988549 0.04001420 -1.78999674
v -0.06654119 0.02756226 -1.78999674
v -0.07063975 0.01405112 -1.78999674
v -0.07202367 0.00000000 -1.78999674
v -0.07063975 -0.01405112 -1.78999674
v -0.06654119 -0.02756226 -1.78999674
v -0.05988549 -0.04001420 -1.78999674
v -0.05092843 -0.05092843 -1.78999674
v -0.04001420 -0.05988549 -1.78999674
v -0.02756226 -0.06654119 -1.78999674
v -0.01405112 -0.07063975 -1.78999674
v -0.00000000 -0.07202367 -1.78999674
v 0.01405112 -0.07063975 -1.78999674
v 0.02756226 -0.06654119 -1.78999674
v 0.04001420 -0.05988549 -1.78999674
v 0.05092843 -0.05092843 -1.78999674
v 0.05988549 -0.04001420 -1.78999674
v 0.06654119 -0.02756226 -1.78999674
v 0.07063975 -0.01405112 -1.78999674
v 0.06902269 0.00000000 -1.80000007
v 0.06769643 0.01346566 -1.80000007
v 0.06376864 0.02641384 -1.80000007
v 0.05739026 0.03834695 -1.80000007
v 0.04880641 0.04880641 -1.80000007
v 0.03834695 0.05739026 -1.80000007
v 0.02641384 0.06376864 -1.80000007
v 0.01346566 0.06769643 -1.80000007
v 0.00000000 0.06902269 -1.80000007
v -0.01346566 0.06769643 -1.80000007
v -0.02641384 0.06376864 -1.80000007
v -0.03834695 0.05739026 -1.80000007
v -0.04880641 0.04880641 -1.80000007
v -0.05739026 0.03834695 -1.80000007
v -0.06376864 0.02641384 -1.80000007
v -0.06769643 0.01346566 -1.80000007
v -0.06902269 0.00000000 -1.80000007
v -0.06769643 -0.01346566 -1.80000007
v -0.06376864 -0.02641384 -1.80000007
v -0.05739026 -0.03834695 -1.80000007
v -0.04880641 -0.04880641 -1.80000007
v -0.03834695 -0.05739026 -1.80000007
v -0.02641384 -0.06376864 -1.80000007
v -0.01346566 -0.06769643 -1.80000007
v -0.00000000 -0.06902269 -1.80000007
v 0.01346566 -0.06769643 -1.80000007
v 0.02641384 -0.06376864 -1.80000007
v 0.03834695 -0.05739026 -1.80000007
v 0.04880641 -0.04880641 -1.80000007
v 0.05739026 -0.03834695 -1.80000007
v 0.06376864 -0.02641384 -1.80000007
v 0.06769643 -0.01346566 -1.80000007
v 0.05101676 0.00000000 -1.80000007
v 0.05003649 0.00995288 -1.80000007
v 0.04713335 0.01952327 -1.80000007
v 0.04241889 0.02834340 -1.80000007
v 0.03607430 0.03607430 -1.80000007
v 0.02834340 0.04241889 -1.80000007
v 0.01952327 0.04713335 -1.80000007
v 0.00995288 0.05003649 -1.80000007
v 0.00000000 0.05101676 -1.80000007
v -0.00995288 0.05003649 -1.80000007
v -0.01952327 0.04713335 -1.80000007
v -0.02834340 0.04241889 -1.80000007
v -0.03607430 0.03607430 -1.80000007
v -0.04241889 0.02834340 -1.80000007
v -0.04713335 0.01952327 -1.80000007
v -0.05003649 0.00995288 -1.80000007
v -0.05101676 0.00000000 -1.80000007
v -0.05003649 -0.00995288 -1.80000007
v -0.04713335 -0.01952327 -1.80000007
v -0.04241889 -0.02834340 -1.80000007
v -0.03607430 -0.03607430 -1.80000007
v -0.02834340 -0.04241889 -1.80000007
v -0.01952327 -0.04713335 -1.80000007
v -0.00995288 -0.05003649 -1.80000007
v -0.00000000 -0.05101676 -1.80000007
v 0.00995288 -0.05003649 -1.80000007
v 0.01952327 -0.04713335 -1.80000007
v 0.02834340 -0.04241889 -1.80000007
v 0.03607430 -0.03607430 -1.80000007
v 0.04241889 -0.02834340 -1.80000007
v 0.04713335 -0.01952327 -1.80000007
v 0.05003649 -0.00995288 -1.80000007
v 0.04951627 0.00000000 -1.77999353
v 0.04856483 0.00966015 -1.77999353
v 0.04574707 0.01894906 -1.77999353
v 0.04117128 0.02750977 -1.77999353
v 0.03501329 0.03501329 -1.77999353
v 0.02750977 0.04117128 -1.77999353
v 0.01894906 0.04574707 -1.77999353
v 0.00966015 0.04856483 -1.77999353
v 0.00000000 0.04951627 -1.77999353
v -0.00966015 0.04856483 -1.77999353
v -0.01894906 0.04574707 -1.77999353
v -0.02750977 0.04117128 -1.77999353
v -0.03501329 0.03501329 -1.77999353
v -0.04117128 0.02750977 -1.77999353
v -0.04574707 0.01894906 -1.77999353
v -0.04856483 0.00966015 -1.77999353
v -0.04951627 0.00000000 -1.77999353
v -0.04856483 -0.00966015 -1.77999353
v -0.04574707 -0.01894906 -1.77999353
v -0.04117128 -0.02750977 -1.77999353
v -0.03501329 -0.03501329 -1.77999353
v -0.02750977 -0.04117128 -1.77999353
v -0.01894906 -0.04574707 -1.77999353
v -0.00966015 -0.04856483 -1.77999353
v -0.00000000 -0.04951627 -1.77999353
v 0.00966015 -0.04856483 -1.77999353
v 0.01894906 -0.04574707 -1.77999353
v 0.02750977 -0.04117128 -1.77999353
v 0.03501329 -0.03501329 -1.77999353
v 0.04117128 -0.02750977 -1.77999353
v 0.04574707 -0.01894906 -1.77999353
v 0.04856483 -0.00966015 -1.77999353
v 0.04668201 0.00000000 -1.55325222
v 0.04578502 0.00910721 -1.55325222
v 0.04312855 0.01786443 -1.55325222
v 0.03881467 0.02593513 -1.55325222
v 0.03300916 0.03300916 -1.55325222
v 0.02593513 0.03881467 -1.55325222
v 0.01786443 0.04312855 -1.55325222
v 0.00910721 0.04578502 -1.55325222
v 0.00000000 0.04668201 -1.55325222
v -0.00910721 0.04578502 -1.55325222
v -0.01786443 0.04312855 -1.55325222
v -0.02593513 0.03881467 -1.55325222
v -0.03300916 0.03300916 -1.55325222
v -0.03881467 0.02593513 -1.55325222
v -0.04312855 0.01786443 -1.55325222
v -0.04578502 0.00910721 -1.55325222
v -0.04668201 0.00000000 -1.55325222
v -0.04578502 -0.00910721 -1.55325222
v -0.04312855 -0.01786443 -1.55325222
v -0.03881467 -0.02593513 -1.55325222
v -0.03300916 -0.03300916 -1.55325222
v -0.02593513 -0.03881467 -1.55325222
v -0.01786443 -0.04312855 -1.55325222
v -0.00910721 -0.04578502 -1.55325222
v -0.00000000 -0.04668201 -1.55325222
v 0.00910721 -0.04578502 -1.55325222
v 0.01786443 -0.04312855 -1.55325222
v 0.02593513 -0.03881467 -1.55325222
v 0.03300916 -0.03300916 -1.55325222
v 0.03881467 -0.02593513 -1.55325222
v 0.04312855 -0.01786443 -1.55325222
v 0.04578502 -0.00910721 -1.55325222
v 0.00000000 0.00000000 -1.55325222
vt 0.67000000 0.50000000
vt 0.15000000 0.85000000
vt 0.12000000 0.20000000
vn 0.99807858 0.00000000 0.06196003
vn 0.99807864 0.00000000 0.06196004
vn 0.97890085 0.19471548 0.06196004
vn 0.99807858 0.00000000 0.06196000
vn 0.97890085 0.19471548 0.06196001
vn 0.97890085 0.19471550 0.06196001
vn 0.97890085 0.19471550 0.06195999
vn 0.97890085 0.19471548 0.06195999
vn 0.92210448 0.38194817 0.06195999
vn 0.97890085 0.19471550 0.06195989
vn 0.92210448 0.38194817 0.06195989
vn 0.92210442 0.38194817 0.06195989
vn 0.92210442 0.38194817 0.06195987
vn 0.92210448 0.38194817 0.06195987
vn 0.82987207 0.55450284 0.06195987
vn 0.92210442 0.38194817 0.06195996
vn 0.82987201 0.55450279 0.06195996
vn 0.82987207 0.55450279 0.06195996
vn 0.82987207 0.55450279 0.06195995
vn 0.82987201 0.55450279 0.06195995
vn 0.70574820 0.70574820 0.06195996
vn 0.82987207 0.55450279 0.06196009
vn 0.70574814 0.70574814 0.06196009
vn 0.70574814 0.70574814 0.06196006
vn 0.55450279 0.82987201 0.06196006
vn 0.70574820 0.70574820 0.06195994
vn 0.55450279 0.82987201 0.06195993
vn 0.55450279 0.82987207 0.06195993
vn 0.55450279 0.82987207 0.06195994
vn 0.55450279 0.82987201 0.06195994
vn 0.38194817 0.92210448 0.06195995
vn 0.55450279 0.82987207 0.06195984
vn 0.38194817 0.92210448 0.06195985
vn 0.38194817 0.92210442 0.06195984
vn 0.38194817 0.92210442 0.06195988
vn 0.38194817 0.92210448 0.06195989
vn 0.19471548 0.97890085 0.06195989
vn 0.38194817 0.92210442 0.06195999
vn 0.19471548 0.97890085 0.06196000
vn 0.19471550 0.97890085 0.06196000
vn 0.19471550 0.97890085 0.06196001
vn 0.19471548 0.97890085 0.06196001
vn 0.00000000 0.99807864 0.06196001
vn 0.19471550 0.97890085 0.06196003
vn 0.00000000 0.99807864 0.06196003
vn 0.00000000 0.99807858 0.06196002
vn 0.00000000 0.99807858 0.06196003
vn 0.00000000 0.99807864 0.06196004
vn -0.19471548 0.97890085 0.06196004
vn 0.00000000 0.99807858 0.06196000
vn -0.19471548 0.97890085 0.06196001
vn -0.19471550 0.97890085 0.06196001
vn -0.19471550 0.97890085 0.06195999
vn -0.19471548 0.97890085 0.06195999
vn -0.38194817 0.92210448 0.06195999
vn -0.19471550 0.97890085 0.06195989
vn -0.38194817 0.92210448 0.06195989
vn -0.38194817 0.92210442 0.06195989
vn -0.38194817 0.92210442 0.06195987
vn -0.38194817 0.92210448 0.06195987
vn -0.55450284 0.82987207 0.06195987
vn -0.38194817 0.92210442 0.06195996
vn -0.55450279 0.82987201 0.06195996
vn -0.55450279 0.82987207 0.06195996
vn -0.55450279 0.82987207 0.06195995
vn -0.55450279 0.82987201 0.06195995
vn -0.70574820 0.70574820 0.06195996
vn -0.55450279 0.82987207 0.06196009
vn -0.70574814 0.70574814 0.06196009
vn -0.70574814 0.70574814 0.06196006
vn -0.82987201 0.55450279 0.06196006
vn -0.70574820 0.70574820 0.06195994
vn -0.82987201 0.55450279 0.06195993
vn -0.82987207 0.55450279 0.06195993
vn -0.82987207 0.55450279 0.06195994
vn -0.82987201 0.55450279 0.06195994
vn -0.92210448 0.38194817 0.06195995
vn -0.82987207 0.55450279 0.06195984
vn -0.92210448 0.38194817 0.06195985
vn -0.92210442 0.38194817 0.06195984
vn -0.92210442 0.38194817 0.06195988
vn -0.92210448 0.38194817 0.06195989
vn -0.97890085 0.19471548 0.06195989
vn -0.92210442 0.38194817 0.06195999
vn -0.97890085 0.19471548 0.06196000
vn -0.97890085 0.19471550 0.06196000
vn -0.97890085 0.19471550 0.06196001
vn -0.97890085 0.19471548 0.06196001
vn -0.99807864 0.00000000 0.06196001
vn -0.97890085 0.19471550 0.06196003
vn -0.99807864 0.00000000 0.06196003
vn -0.99807858 0.00000000 0.06196002
vn -0.99807858 0.00000000 0.06196003
vn -0.99807864 0.00000000 0.06196004
vn -0.97890085 -0.19471548 0.06196004
vn -0.99807858 0.00000000 0.06196000
vn -0.97890085 -0.19471548 0.06196001
vn -0.97890085 -0.19471550 0.06196001
vn -0.97890085 -0.19471550 0.06195999
vn -0.97890085 -0.19471548 0.06195999
vn -0.92210448 -0.38194817 0.06195999
vn -0.97890085 -0.19471550 0.06195989
vn -0.92210448 -0.38194817 0.06195989
vn -0.92210442 -0.38194817 0.06195989
vn -0.92210442 -0.38194817 0.06195987
vn -0.92210448 -0.38194817 0.06195987
vn -0.82987207 -0.55450284 0.06195987
vn -0.92210442 -0.38194817 0.06195996
vn -0.82987201 -0.55450279 0.06195996
vn -0.82987207 -0.55450279 0.06195996
vn -0.82987207 -0.55450279 0.06195995
vn -0.82987201 -0.55450279 0.06195995
vn -0.70574820 -0.70574820 0.06195996
vn -0.82987207 -0.55450279 0.06196009
vn -0.70574814 -0.70574814 0.06196009
vn -0.70574814 -0.70574814 0.06196006
vn -0.55450279 -0.82987201 0.06196006
vn -0.70574820 -0.70574820 0.06195994
vn -0.55450279 -0.82987201 0.06195993
vn -0.55450279 -0.82987207 0.06195993
vn -0.55450279 -0.82987207 0.06195994
vn -0.55450279 -0.82987201 0.06195994
vn -0.38194817 -0.92210448 0.06195995
vn -0.55450279 -0.82987207 0.06195984
vn -0.38194817 -0.92210448 0.06195985
vn -0.38194817 -0.92210442 0.06195984
vn -0.38194817 -0.92210442 0.06195988
vn -0.38194817 -0.92210448 0.06195989
vn -0.19471548 -0.97890085 0.06195989
vn -0.38194817 -0.92210442 0.06195999
vn -0.19471548 -0.97890085 0.06196000
vn -0.19471550 -0.97890085 0.06196000
vn -0.19471550 -0.97890085 0.06196001
vn -0.19471548 -0.97890085 0.06196001
vn -0.00000000 -0.99807864 0.06196001
vn -0.19471550 -0.97890085 0.06196003
vn -0.00000000 -0.99807864 0.06196003
vn -0.00000000 -0.99807858 0.06196002
vn -0.00000000 -0.99807858 0.06196003
vn -0.00000000 -0.99807864 0.06196004
vn 0.19471548 -0.97890085 0.06196004
vn -0.00000000 -0.99807858 0.06196000
vn 0.19471548 -0.97890085 0.06196001
vn 0.19471550 -0.97890085 0.06196001
vn 0.19471550 -0.97890085 0.06195999
vn 0.19471548 -0.97890085 0.06195999
vn 0.38194817 -0.92210448 0.06195999
vn 0.19471550 -0.97890085 0.06195989
vn 0.38194817 -0.92210448 0.06195989
vn 0.38194817 -0.92210442 0.06195989
vn 0.38194817 -0.92210442 0.06195987
vn 0.38194817 -0.92210448 0.06195987
vn 0.55450284 -0.82987207 0.06195987
vn 0.38194817 -0.92210442 0.06195996
vn 0.55450279 -0.82987201 0.06195996
vn 0.55450279 -0.82987207 0.06195996
vn 0.55450279 -0.82987207 0.06195995
vn 0.55450279 -0.82987201 0.06195995
vn 0.70574820 -0.70574820 0.06195996
vn 0.55450279 -0.82987207 0.06196009
vn 0.70574814 -0.70574814 0.06196009
vn 0.70574814 -0.70574814 0.06196006
vn 0.82987201 -0.55450279 0.06196006
vn 0.70574820 -0.70574820 0.06195994
vn 0.82987201 -0.55450279 0.06195993
vn 0.82987207 -0.55450279 0.06195993
vn 0.82987207 -0.55450279 0.06195994
vn 0.82987201 -0.55450279 0.06195994
vn 0.92210448 -0.38194817 0.06195995
vn 0.82987207 -0.55450279 0.06195984
vn 0.92210448 -0.38194817 0.06195985
vn 0.92210442 -0.38194817 0.06195984
vn 0.92210442 -0.38194817 0.06195988
vn 0.92210448 -0.38194817 0.06195989
vn 0.97890085 -0.19471548 0.06195989
vn 0.92210442 -0.38194817 0.06195999
vn 0.97890085 -0.19471548 0.06196000
vn 0.97890085 -0.19471550 0.06196000
vn 0.97890085 -0.19471550 0.06196001
vn 0.97890085 -0.19471548 0.06196001
vn 0.99807864 0.00000000 0.06196001
vn 0.97890085 -0.19471550 0.06196003
vn 0.99807864 0.00000000 0.06196003
vn 0.99807858 0.00000000 0.06196002
vn 0.99781591 0.00000000 0.06605528
vn 0.99781597 0.00000000 0.06605528
vn 0.97864324 0.19466424 0.06605528
vn 0.99781591 0.00000000 0.06605539
vn 0.97864324 0.19466424 0.06605539
vn 0.97864318 0.19466422 0.06605539
vn 0.92186171 0.38184762 0.06605539
vn 0.97864318 0.19466422 0.06605519
vn 0.92186171 0.38184762 0.06605519
vn 0.92186171 0.38184762 0.06605520
vn 0.82965362 0.55435681 0.06605520
vn 0.92186171 0.38184762 0.06605509
vn 0.82965362 0.55435681 0.06605509
vn 0.82965362 0.55435687 0.06605509
vn 0.82965362 0.55435687 0.06605507
vn 0.82965362 0.55435681 0.06605507
vn 0.70556241 0.70556241 0.06605507
vn 0.82965362 0.55435687 0.06605539
vn 0.70556241 0.70556241 0.06605539
vn 0.70556241 0.70556241 0.06605537
vn 0.55435681 0.82965362 0.06605537
vn 0.70556241 0.70556241 0.06605505
vn 0.55435681 0.82965362 0.06605505
vn 0.55435687 0.82965362 0.06605505
vn 0.55435687 0.82965362 0.06605507
vn 0.55435681 0.82965362 0.06605507
vn 0.38184762 0.92186171 0.06605507
vn 0.55435687 0.82965362 0.06605519
vn 0.38184762 0.92186171 0.06605519
vn 0.19466424 0.97864324 0.06605519
vn 0.38184762 0.92186171 0.06605539
vn 0.19466424 0.97864324 0.06605539
vn 0.19466422 0.97864318 0.06605539
vn 0.00000000 0.99781597 0.06605539
vn 0.19466422 0.97864318 0.06605528
vn 0.00000000 0.99781597 0.06605528
vn 0.00000000 0.99781591 0.06605528
vn -0.19466424 0.97864324 0.06605528
vn 0.00000000 0.99781591 0.06605539
vn -0.19466424 0.97864324 0.06605539
vn -0.19466422 0.97864318 0.06605539
vn -0.38184762 0.92186171 0.06605539
vn -0.19466422 0.97864318 0.06605519
vn -0.38184762 0.92186171 0.06605519
vn -0.38184762 0.92186171 0.06605520
vn -0.55435681 0.82965362 0.06605520
vn -0.38184762 0.92186171 0.06605509
vn -0.55435681 0.82965362 0.06605509
vn -0.55435687 0.82965362 0.06605509
vn -0.55435687 0.82965362 0.06605507
vn -0.55435681 0.82965362 0.06605507
vn -0.70556241 0.70556241 0.06605507
vn -0.55435687 0.82965362 0.06605539
vn -0.70556241 0.70556241 0.06605539
vn -0.70556241 0.70556241 0.06605537
vn -0.82965362 0.55435681 0.06605537
vn -0.70556241 0.70556241 0.06605505
vn -0.82965362 0.55435681 0.06605505
vn -0.82965362 0.55435687 0.06605505
vn -0.82965362 0.55435687 0.06605507
vn -0.82965362 0.55435681 0.06605507
vn -0.92186171 0.38184762 0.06605507
vn -0.82965362 0.55435687 0.06605519
vn -0.92186171 0.38184762 0.06605519
vn -0.97864324 0.19466424 0.06605519
vn -0.92186171 0.38184762 0.06605539
vn -0.97864324 0.19466424 0.06605539
vn -0.97864318 0.19466422 0.06605539
vn -0.99781597 0.00000000 0.06605539
vn -0.97864318 0.19466422 0.06605528
vn -0.99781597 0.00000000 0.06605528
vn -0.99781591 0.00000000 0.06605528
vn -0.97864324 -0.19466424 0.06605528
vn -0.99781591 0.00000000 0.06605539
vn -0.97864324 -0.19466424 0.06605539
vn -0.97864318 -0.19466422 0.06605539
vn -0.92186171 -0.38184762 0.06605539
vn -0.97864318 -0.19466422 0.06605519
vn -0.92186171 -0.38184762 0.06605519
vn -0.92186171 -0.38184762 0.06605520
vn -0.82965362 -0.55435681 0.06605520
vn -0.92186171 -0.38184762 0.06605509
vn -0.82965362 -0.55435681 0.06605509
vn -0.82965362 -0.55435687 0.06605509
vn -0.82965362 -0.55435687 0.06605507
vn -0.82965362 -0.55435681 0.06605507
vn -0.70556241 -0.70556241 0.06605507
vn -0.82965362 -0.55435687 0.06605539
vn -0.70556241 -0.70556241 0.06605539
vn -0.70556241 -0.70556241 0.06605537
vn -0.55435681 -0.82965362 0.06605537
vn -0.70556241 -0.70556241 0.06605505
vn -0.55435681 -0.82965362 0.06605505
vn -0.55435687 -0.82965362 0.06605505
vn -0.55435687 -0.82965362 0.06605507
vn -0.55435681 -0.82965362 0.06605507
vn -0.38184762 -0.92186171 0.06605507
vn -0.55435687 -0.82965362 0.06605519
vn -0.38184762 -0.92186171 0.06605519
vn -0.19466424 -0.97864324 0.06605519
vn -0.38184762 -0.92186171 0.06605539
vn -0.19466424 -0.97864324 0.06605539
vn -0.19466422 -0.97864318 0.06605539
vn -0.00000000 -0.99781597 0.06605539
vn -0.19466422 -0.97864318 0.06605528
vn -0.00000000 -0.99781597 0.06605528
vn -0.00000000 -0.99781591 0.06605528
vn 0.19466424 -0.97864324 0.06605528
vn -0.00000000 -0.99781591 0.06605539
vn 0.19466424 -0.97864324 0.06605539
vn 0.19466422 -0.97864318 0.06605539
vn 0.38184762 -0.92186171 0.06605539
vn 0.19466422 -0.97864318 0.06605519
vn 0.38184762 -0.92186171 0.06605519
vn 0.38184762 -0.92186171 0.06605520
vn 0.55435681 -0.82965362 0.06605520
vn 0.38184762 -0.92186171 0.06605509
vn 0.55435681 -0.82965362 0.06605509
vn 0.55435687 -0.82965362 0.06605509
vn 0.55435687 -0.82965362 0.06605507
vn 0.55435681 -0.82965362 0.06605507
vn 0.70556241 -0.70556241 0.06605507
vn 0.55435687 -0.82965362 0.06605539
vn 0.70556241 -0.70556241 0.06605539
vn 0.70556241 -0.70556241 0.06605537
vn 0.82965362 -0.55435681 0.06605537
vn 0.70556241 -0.70556241 0.06605505
vn 0.82965362 -0.55435681 0.06605505
vn 0.82965362 -0.55435687 0.06605505
vn 0.82965362 -0.55435687 0.06605507
vn 0.82965362 -0.55435681 0.06605507
vn 0.92186171 -0.38184762 0.06605507
vn 0.82965362 -0.55435687 0.06605519
vn 0.92186171 -0.38184762 0.06605519
vn 0.97864324 -0.19466424 0.06605519
vn 0.92186171 -0.38184762 0.06605539
vn 0.97864324 -0.19466424 0.06605539
vn 0.97864318 -0.19466422 0.06605539
vn 0.99781597 0.00000000 0.06605539
vn 0.97864318 -0.19466422 0.06605528
vn 0.99513239 0.00000000 -0.09854718
vn 0.97601116 0.19414070 -0.09854718
vn 0.99513227 0.00000000 -0.09854750
vn 0.97601116 0.19414070 -0.09854752
vn 0.97601110 0.19414067 -0.09854750
vn 0.91938239 0.38082069 -0.09854750
vn 0.97601110 0.19414067 -0.09854730
vn 0.91938239 0.38082069 -0.09854730
vn 0.91938239 0.38082066 -0.09854731
vn 0.91938239 0.38082066 -0.09854729
vn 0.91938239 0.38082069 -0.09854729
vn 0.82742226 0.55286592 -0.09854729
vn 0.91938239 0.38082066 -0.09854723
vn 0.82742226 0.55286592 -0.09854723
vn 0.82742232 0.55286586 -0.09854723
vn 0.82742232 0.55286586 -0.09854720
vn 0.82742226 0.55286592 -0.09854720
vn 0.70366484 0.70366484 -0.09854719
vn 0.82742232 0.55286586 -0.09854755
vn 0.70366484 0.70366484 -0.09854753
vn 0.70366484 0.70366484 -0.09854755
vn 0.70366484 0.70366484 -0.09854759
vn 0.70366484 0.70366484 -0.09854757
vn 0.55286592 0.82742226 -0.09854759
vn 0.55286592 0.82742226 -0.09854719
vn 0.55286586 0.82742232 -0.09854719
vn 0.55286586 0.82742232 -0.09854724
vn 0.55286592 0.82742226 -0.09854724
vn 0.38082069 0.91938239 -0.09854724
vn 0.55286586 0.82742232 -0.09854729
vn 0.38082069 0.91938239 -0.09854728
vn 0.38082066 0.91938239 -0.09854729
vn 0.38082066 0.91938239 -0.09854731
vn 0.38082069 0.91938239 -0.09854730
vn 0.19414070 0.97601116 -0.09854731
vn 0.38082066 0.91938239 -0.09854752
vn 0.19414070 0.97601116 -0.09854752
vn 0.19414067 0.97601110 -0.09854750
vn 0.19414070 0.97601116 -0.09854751
vn 0.00000000 0.99513227 -0.09854750
vn 0.19414067 0.97601110 -0.09854717
vn 0.00000000 0.99513239 -0.09854718
vn -0.19414070 0.97601116 -0.09854718
vn -0.19414070 0.97601116 -0.09854752
vn -0.19414067 0.97601110 -0.09854750
vn -0.38082069 0.91938239 -0.09854750
vn -0.19414067 0.97601110 -0.09854730
vn -0.38082069 0.91938239 -0.09854730
vn -0.38082066 0.91938239 -0.09854731
vn -0.38082066 0.91938239 -0.09854729
vn -0.38082069 0.91938239 -0.09854729
vn -0.55286592 0.82742226 -0.09854729
vn -0.38082066 0.91938239 -0.09854723
vn -0.55286592 0.82742226 -0.09854723
vn -0.55286586 0.82742232 -0.09854723
vn -0.55286586 0.82742232 -0.09854720
vn -0.55286592 0.82742226 -0.09854720
vn -0.70366484 0.70366484 -0.09854719
vn -0.55286586 0.82742232 -0.09854755
vn -0.70366484 0.70366484 -0.09854753
vn -0.70366484 0.70366484 -0.09854755
vn -0.70366484 0.70366484 -0.09854759
vn -0.70366484 0.70366484 -0.09854757
vn -0.82742226 0.55286592 -0.09854759
vn -0.82742226 0.55286592 -0.09854719
vn -0.82742232 0.55286586 -0.09854719
vn -0.82742232 0.55286586 -0.09854724
vn -0.82742226 0.55286592 -0.09854724
vn -0.91938239 0.38082069 -0.09854724
vn -0.82742232 0.55286586 -0.09854729
vn -0.91938239 0.38082069 -0.09854728
vn -0.91938239 0.38082066 -0.09854729
vn -0.91938239 0.38082066 -0.09854731
vn -0.91938239 0.38082069 -0.09854730
vn -0.97601116 0.19414070 -0.09854731
vn -0.91938239 0.38082066 -0.09854752
vn -0.97601116 0.19414070 -0.09854752
vn -0.97601110 0.19414067 -0.09854750
vn -0.97601116 0.19414070 -0.09854751
vn -0.99513227 0.00000000 -0.09854750
vn -0.97601110 0.19414067 -0.09854717
vn -0.99513239 0.00000000 -0.09854718
vn -0.97601116 -0.19414070 -0.09854718
vn -0.97601116 -0.19414070 -0.09854752
vn -0.97601110 -0.19414067 -0.09854750
vn -0.91938239 -0.38082069 -0.09854750
vn -0.97601110 -0.19414067 -0.09854730
vn -0.91938239 -0.38082069 -0.09854730
vn -0.91938239 -0.38082066 -0.09854731
vn -0.91938239 -0.38082066 -0.09854729
vn -0.91938239 -0.38082069 -0.09854729
vn -0.82742226 -0.55286592 -0.09854729
vn -0.91938239 -0.38082066 -0.09854723
vn -0.82742226 -0.55286592 -0.09854723
vn -0.82742232 -0.55286586 -0.09854723
vn -0.82742232 -0.55286586 -0.09854720
vn -0.82742226 -0.55286592 -0.09854720
vn -0.70366484 -0.70366484 -0.09854719
vn -0.82742232 -0.55286586 -0.09854755
vn -0.70366484 -0.70366484 -0.09854753
vn -0.70366484 -0.70366484 -0.09854755
vn -0.70366484 -0.70366484 -0.09854759
vn -0.70366484 -0.70366484 -0.09854757
vn -0.55286592 -0.82742226 -0.09854759
vn -0.55286592 -0.82742226 -0.09854719
vn -0.55286586 -0.82742232 -0.09854719
vn -0.55286586 -0.82742232 -0.09854724
vn -0.55286592 -0.82742226 -0.09854724
vn -0.38082069 -0.91938239 -0.09854724
vn -0.55286586 -0.82742232 -0.09854729
vn -0.38082069 -0.91938239 -0.09854728
vn -0.38082066 -0.91938239 -0.09854729
vn -0.38082066 -0.91938239 -0.09854731
vn -0.38082069 -0.91938239 -0.09854730
vn -0.19414070 -0.97601116 -0.09854731
vn -0.38082066 -0.91938239 -0.09854752
vn -0.19414070 -0.97601116 -0.09854752
vn -0.19414067 -0.97601110 -0.09854750
vn -0.19414070 -0.97601116 -0.09854751
vn -0.00000000 -0.99513227 -0.09854750
vn -0.19414067 -0.97601110 -0.09854717
vn -0.00000000 -0.99513239 -0.09854718
vn 0.19414070 -0.97601116 -0.09854718
vn 0.19414070 -0.97601116 -0.09854752
vn 0.19414067 -0.97601110 -0.09854750
vn 0.38082069 -0.91938239 -0.09854750
vn 0.19414067 -0.97601110 -0.09854730
vn 0.38082069 -0.91938239 -0.09854730
vn 0.38082066 -0.91938239 -0.09854731
vn 0.38082066 -0.91938239 -0.09854729
vn 0.38082069 -0.91938239 -0.09854729
vn 0.55286592 -0.82742226 -0.09854729
vn 0.38082066 -0.91938239 -0.09854723
vn 0.55286592 -0.82742226 -0.09854723
vn 0.55286586 -0.82742232 -0.09854723
vn 0.55286586 -0.82742232 -0.09854720
vn 0.55286592 -0.82742226 -0.09854720
vn 0.70366484 -0.70366484 -0.09854719
vn 0.55286586 -0.82742232 -0.09854755
vn 0.70366484 -0.70366484 -0.09854753
vn 0.70366484 -0.70366484 -0.09854755
vn 0.70366484 -0.70366484 -0.09854759
vn 0.70366484 -0.70366484 -0.09854757
vn 0.82742226 -0.55286592 -0.09854759
vn 0.82742226 -0.55286592 -0.09854719
vn 0.82742232 -0.55286586 -0.09854719
vn 0.82742232 -0.55286586 -0.09854724
vn 0.82742226 -0.55286592 -0.09854724
vn 0.91938239 -0.38082069 -0.09854724
vn 0.82742232 -0.55286586 -0.09854729
vn 0.91938239 -0.38082069 -0.09854728
vn 0.91938239 -0.38082066 -0.09854729
vn 0.91938239 -0.38082066 -0.09854731
vn 0.91938239 -0.38082069 -0.09854730
vn 0.97601116 -0.19414070 -0.09854731
vn 0.91938239 -0.38082066 -0.09854752
vn 0.97601116 -0.19414070 -0.09854752
vn 0.97601110 -0.19414067 -0.09854750
vn 0.97601116 -0.19414070 -0.09854751
vn 0.97601110 -0.19414067 -0.09854717
vn 0.98759568 0.00000000 -0.15701838
vn 0.96861929 0.19267036 -0.15701838
vn 0.98759568 0.00000000 -0.15701841
vn 0.96861929 0.19267036 -0.15701841
vn 0.96861929 0.19267036 -0.15701836
vn 0.91241944 0.37793651 -0.15701836
vn 0.96861929 0.19267036 -0.15701839
vn 0.91241944 0.37793651 -0.15701839
vn 0.91241944 0.37793654 -0.15701839
vn 0.91241944 0.37793654 -0.15701841
vn 0.91241944 0.37793651 -0.15701841
vn 0.82115579 0.54867870 -0.15701841
vn 0.82115585 0.54867882 -0.15701842
vn 0.82115585 0.54867882 -0.15701839
vn 0.82115579 0.54867870 -0.15701838
vn 0.69833559 0.69833559 -0.15701838
vn 0.69833565 0.69833565 -0.15701838
vn 0.69833565 0.69833565 -0.15701836
vn 0.69833559 0.69833559 -0.15701836
vn 0.54867870 0.82115579 -0.15701836
vn 0.69833565 0.69833565 -0.15701839
vn 0.54867870 0.82115579 -0.15701839
vn 0.54867882 0.82115585 -0.15701841
vn 0.37793651 0.91241944 -0.15701839
vn 0.54867882 0.82115585 -0.15701842
vn 0.37793651 0.91241944 -0.15701841
vn 0.37793654 0.91241944 -0.15701841
vn 0.19267036 0.96861929 -0.15701841
vn 0.37793654 0.91241944 -0.15701838
vn 0.19267036 0.96861929 -0.15701838
vn 0.00000000 0.98759568 -0.15701838
vn 0.00000000 0.98759568 -0.15701841
vn -0.19267036 0.96861929 -0.15701838
vn -0.19267036 0.96861929 -0.15701841
vn -0.19267036 0.96861929 -0.15701836
vn -0.37793651 0.91241944 -0.15701836
vn -0.19267036 0.96861929 -0.15701839
vn -0.37793651 0.91241944 -0.15701839
vn -0.37793654 0.91241944 -0.15701839
vn -0.37793654 0.91241944 -0.15701841
vn -0.37793651 0.91241944 -0.15701841
vn -0.54867870 0.82115579 -0.15701841
vn -0.54867882 0.82115585 -0.15701842
vn -0.54867882 0.82115585 -0.15701839
vn -0.54867870 0.82115579 -0.15701838
vn -0.69833559 0.69833559 -0.15701838
vn -0.69833565 0.69833565 -0.15701838
vn -0.69833565 0.69833565 -0.15701836
vn -0.69833559 0.69833559 -0.15701836
vn -0.82115579 0.54867870 -0.15701836
vn -0.69833565 0.69833565 -0.15701839
vn -0.82115579 0.54867870 -0.15701839
vn -0.82115585 0.54867882 -0.15701841
vn -0.91241944 0.37793651 -0.15701839
vn -0.82115585 0.54867882 -0.15701842
vn -0.91241944 0.37793651 -0.15701841
vn -0.91241944 0.37793654 -0.15701841
vn -0.96861929 0.19267036 -0.15701841
vn -0.91241944 0.37793654 -0.15701838
vn -0.96861929 0.19267036 -0.15701838
vn -0.98759568 0.00000000 -0.15701838
vn -0.98759568 0.00000000 -0.15701841
vn -0.96861929 -0.19267036 -0.15701838
vn -0.96861929 -0.19267036 -0.15701841
vn -0.96861929 -0.19267036 -0.15701836
vn -0.91241944 -0.37793651 -0.15701836
vn -0.96861929 -0.19267036 -0.15701839
vn -0.91241944 -0.37793651 -0.15701839
vn -0.91241944 -0.37793654 -0.15701839
vn -0.91241944 -0.37793654 -0.15701841
vn -0.91241944 -0.37793651 -0.15701841
vn -0.82115579 -0.54867870 -0.15701841
vn -0.82115585 -0.54867882 -0.15701842
vn -0.82115585 -0.54867882 -0.15701839
vn -0.82115579 -0.54867870 -0.15701838
vn -0.69833559 -0.69833559 -0.15701838
vn -0.69833565 -0.69833565 -0.15701838
vn -0.69833565 -0.69833565 -0.15701836
vn -0.69833559 -0.69833559 -0.15701836
vn -0.54867870 -0.82115579 -0.15701836
vn -0.69833565 -0.69833565 -0.15701839
vn -0.54867870 -0.82115579 -0.15701839
vn -0.54867882 -0.82115585 -0.15701841
vn -0.37793651 -0.91241944 -0.15701839
vn -0.54867882 -0.82115585 -0.15701842
vn -0.37793651 -0.91241944 -0.15701841
vn -0.37793654 -0.91241944 -0.15701841
vn -0.19267036 -0.96861929 -0.15701841
vn -0.37793654 -0.91241944 -0.15701838
vn -0.19267036 -0.96861929 -0.15701838
vn -0.00000000 -0.98759568 -0.15701838
vn -0.00000000 -0.98759568 -0.15701841
vn 0.19267036 -0.96861929 -0.15701838
vn 0.19267036 -0.96861929 -0.15701841
vn 0.19267036 -0.96861929 -0.15701836
vn 0.37793651 -0.91241944 -0.15701836
vn 0.19267036 -0.96861929 -0.15701839
vn 0.37793651 -0.91241944 -0.15701839
vn 0.37793654 -0.91241944 -0.15701839
vn 0.37793654 -0.91241944 -0.15701841
vn 0.37793651 -0.91241944 -0.15701841
vn 0.54867870 -0.82115579 -0.15701841
vn 0.54867882 -0.82115585 -0.15701842
vn 0.54867882 -0.82115585 -0.15701839
vn 0.54867870 -0.82115579 -0.15701838
vn 0.69833559 -0.69833559 -0.15701838
vn 0.69833565 -0.69833565 -0.15701838
vn 0.69833565 -0.69833565 -0.15701836
vn 0.69833559 -0.69833559 -0.15701836
vn 0.82115579 -0.54867870 -0.15701836
vn 0.69833565 -0.69833565 -0.15701839
vn 0.82115579 -0.54867870 -0.15701839
vn 0.82115585 -0.54867882 -0.15701841
vn 0.91241944 -0.37793651 -0.15701839
vn 0.82115585 -0.54867882 -0.15701842
vn 0.91241944 -0.37793651 -0.15701841
vn 0.91241944 -0.37793654 -0.15701841
vn 0.96861929 -0.19267036 -0.15701841
vn 0.91241944 -0.37793654 -0.15701838
vn 0.96861929 -0.19267036 -0.15701838
vn 1.00000000 0.00000000 0.00000000
vn 0.98078525 0.19509032 0.00000000
vn 0.92387956 0.38268346 0.00000000
vn 0.83146971 0.55557024 0.00000000
vn 0.70710677 0.70710677 0.00000000
vn 0.55557024 0.83146971 0.00000000
vn 0.38268346 0.92387956 0.00000000
vn 0.19509032 0.98078525 0.00000000
vn 0.00000000 1.00000000 0.00000000
vn -0.19509032 0.98078525 -0.00000000
vn -0.38268346 0.92387956 -0.00000000
vn -0.55557024 0.83146971 -0.00000000
vn -0.70710677 0.70710677 -0.00000000
vn -0.83146971 0.55557024 -0.00000000
vn -0.92387956 0.38268346 -0.00000000
vn -0.98078525 0.19509032 -0.00000000
vn -1.00000000 0.00000000 -0.00000000
vn -0.98078525 -0.19509032 -0.00000000
vn -0.92387956 -0.38268346 -0.00000000
vn -0.83146971 -0.55557024 -0.00000000
vn -0.70710677 -0.70710677 -0.00000000
vn -0.55557024 -0.83146971 -0.00000000
vn -0.38268346 -0.92387956 -0.00000000
vn -0.19509032 -0.98078525 -0.00000000
vn -0.00000000 -1.00000000 -0.00000000
vn 0.19509032 -0.98078525 -0.00000000
vn 0.38268346 -0.92387956 -0.00000000
vn 0.55557024 -0.83146971 -0.00000000
vn 0.70710677 -0.70710677 -0.00000000
vn 0.83146971 -0.55557024 -0.00000000
vn 0.92387956 -0.38268346 -0.00000000
vn 0.98078525 -0.19509032 -0.00000000
vn 0.96143138 0.00000000 -0.27504492
vn 0.94295770 0.18756595 -0.27504492
vn 0.96143138 0.00000000 -0.27504504
vn 0.94295770 0.18756595 -0.27504504
vn 0.88824677 0.36792383 -0.27504504
vn 0.94295782 0.18756598 -0.27504453
vn 0.88824683 0.36792389 -0.27504453
vn 0.88824689 0.36792395 -0.27504453
vn 0.88824689 0.36792395 -0.27504459
vn 0.88824683 0.36792389 -0.27504459
vn 0.79940110 0.53414273 -0.27504462
vn 0.88824683 0.36792389 -0.27504498
vn 0.79940099 0.53414267 -0.27504501
vn 0.79940099 0.53414261 -0.27504498
vn 0.67983466 0.67983466 -0.27504498
vn 0.79940104 0.53414267 -0.27504483
vn 0.67983466 0.67983466 -0.27504480
vn 0.67983466 0.67983466 -0.27504477
vn 0.53414267 0.79940099 -0.27504480
vn 0.53414267 0.79940099 -0.27504501
vn 0.53414261 0.79940099 -0.27504498
vn 0.36792383 0.88824677 -0.27504498
vn 0.53414267 0.79940104 -0.27504459
vn 0.36792389 0.88824683 -0.27504459
vn 0.36792395 0.88824689 -0.27504459
vn 0.18756598 0.94295782 -0.27504459
vn 0.36792383 0.88824672 -0.27504504
vn 0.18756595 0.94295770 -0.27504507
vn 0.00000000 0.96143138 -0.27504507
vn 0.18756595 0.94295770 -0.27504495
vn 0.00000000 0.96143138 -0.27504495
vn 0.00000000 0.96143138 -0.27504492
vn -0.18756595 0.94295770 -0.27504492
vn 0.00000000 0.96143138 -0.27504504
vn -0.18756595 0.94295770 -0.27504504
vn -0.36792383 0.88824677 -0.27504504
vn -0.18756598 0.94295782 -0.27504453
vn -0.36792389 0.88824683 -0.27504453
vn -0.36792395 0.88824689 -0.27504453
vn -0.36792395 0.88824689 -0.27504459
vn -0.36792389 0.88824683 -0.27504459
vn -0.53414273 0.79940110 -0.27504462
vn -0.36792389 0.88824683 -0.27504498
vn -0.53414267 0.79940099 -0.27504501
vn -0.53414261 0.79940099 -0.27504498
vn -0.67983466 0.67983466 -0.27504498
vn -0.53414267 0.79940104 -0.27504483
vn -0.67983466 0.67983466 -0.27504480
vn -0.67983466 0.67983466 -0.27504477
vn -0.79940099 0.53414267 -0.27504480
vn -0.79940099 0.53414267 -0.27504501
vn -0.79940099 0.53414261 -0.27504498
vn -0.88824677 0.36792383 -0.27504498
vn -0.79940104 0.53414267 -0.27504459
vn -0.88824683 0.36792389 -0.27504459
vn -0.88824689 0.36792395 -0.27504459
vn -0.94295782 0.18756598 -0.27504459
vn -0.88824672 0.36792383 -0.27504504
vn -0.94295770 0.18756595 -0.27504507
vn -0.96143138 0.00000000 -0.27504507
vn -0.94295770 0.18756595 -0.27504495
vn -0.96143138 0.00000000 -0.27504495
vn -0.96143138 0.00000000 -0.27504492
vn -0.94295770 -0.18756595 -0.27504492
vn -0.96143138 0.00000000 -0.27504504
vn -0.94295770 -0.18756595 -0.27504504
vn -0.88824677 -0.36792383 -0.27504504
vn -0.94295782 -0.18756598 -0.27504453
vn -0.88824683 -0.36792389 -0.27504453
vn -0.88824689 -0.36792395 -0.27504453
vn -0.88824689 -0.36792395 -0.27504459
vn -0.88824683 -0.36792389 -0.27504459
vn -0.79940110 -0.53414273 -0.27504462
vn -0.88824683 -0.36792389 -0.27504498
vn -0.79940099 -0.53414267 -0.27504501
vn -0.79940099 -0.53414261 -0.27504498
vn -0.67983466 -0.67983466 -0.27504498
vn -0.79940104 -0.53414267 -0.27504483
vn -0.67983466 -0.67983466 -0.27504480
vn -0.67983466 -0.67983466 -0.27504477
vn -0.53414267 -0.79940099 -0.27504480
vn -0.53414267 -0.79940099 -0.27504501
vn -0.53414261 -0.79940099 -0.27504498
vn -0.36792383 -0.88824677 -0.27504498
vn -0.53414267 -0.79940104 -0.27504459
vn -0.36792389 -0.88824683 -0.27504459
vn -0.36792395 -0.88824689 -0.27504459
vn -0.18756598 -0.94295782 -0.27504459
vn -0.36792383 -0.88824672 -0.27504504
vn -0.18756595 -0.94295770 -0.27504507
vn -0.00000000 -0.96143138 -0.27504507
vn -0.18756595 -0.94295770 -0.27504495
vn -0.00000000 -0.96143138 -0.27504495
vn -0.00000000 -0.96143138 -0.27504492
vn 0.18756595 -0.94295770 -0.27504492
vn -0.00000000 -0.96143138 -0.27504504
vn 0.18756595 -0.94295770 -0.27504504
vn 0.36792383 -0.88824677 -0.27504504
vn 0.18756598 -0.94295782 -0.27504453
vn 0.36792389 -0.88824683 -0.27504453
vn 0.36792395 -0.88824689 -0.27504453
vn 0.36792395 -0.88824689 -0.27504459
vn 0.36792389 -0.88824683 -0.27504459
vn 0.53414273 -0.79940110 -0.27504462
vn 0.36792389 -0.88824683 -0.27504498
vn 0.53414267 -0.79940099 -0.27504501
vn 0.53414261 -0.79940099 -0.27504498
vn 0.67983466 -0.67983466 -0.27504498
vn 0.53414267 -0.79940104 -0.27504483
vn 0.67983466 -0.67983466 -0.27504480
vn 0.67983466 -0.67983466 -0.27504477
vn 0.79940099 -0.53414267 -0.27504480
vn 0.79940099 -0.53414267 -0.27504501
vn 0.79940099 -0.53414261 -0.27504498
vn 0.88824677 -0.36792383 -0.27504498
vn 0.79940104 -0.53414267 -0.27504459
vn 0.88824683 -0.36792389 -0.27504459
vn 0.88824689 -0.36792395 -0.27504459
vn 0.94295782 -0.18756598 -0.27504459
vn 0.88824672 -0.36792383 -0.27504504
vn 0.94295770 -0.18756595 -0.27504507
vn 0.96143138 0.00000000 -0.27504507
vn 0.94295770 -0.18756595 -0.27504495
vn 0.96143138 0.00000000 -0.27504495
vn 0.00000000 0.00000000 -1.00000000
vn -0.99724144 -0.00000000 -0.07422674
vn -0.97807962 -0.19455212 -0.07422673
vn -0.99724144 -0.00000000 -0.07422678
vn -0.97807962 -0.19455212 -0.07422677
vn -0.97807962 -0.19455212 -0.07422676
vn -0.92133087 -0.38162774 -0.07422676
vn -0.92133087 -0.38162774 -0.07422675
vn -0.82917589 -0.55403757 -0.07422675
vn -0.92133087 -0.38162774 -0.07422678
vn -0.82917589 -0.55403757 -0.07422678
vn -0.82917589 -0.55403763 -0.07422678
vn -0.82917589 -0.55403763 -0.07422679
vn -0.82917589 -0.55403757 -0.07422679
vn -0.70515615 -0.70515615 -0.07422680
vn -0.82917589 -0.55403763 -0.07422680
vn -0.70515615 -0.70515615 -0.07422681
vn -0.55403757 -0.82917589 -0.07422680
vn -0.70515615 -0.70515615 -0.07422679
vn -0.55403757 -0.82917589 -0.07422679
vn -0.55403763 -0.82917589 -0.07422679
vn -0.55403763 -0.82917589 -0.07422678
vn -0.55403757 -0.82917589 -0.07422678
vn -0.38162774 -0.92133087 -0.07422678
vn -0.55403763 -0.82917589 -0.07422674
vn -0.38162774 -0.92133087 -0.07422674
vn -0.38162774 -0.92133087 -0.07422675
vn -0.19455212 -0.97807962 -0.07422675
vn -0.38162774 -0.92133087 -0.07422677
vn -0.19455212 -0.97807962 -0.07422677
vn -0.00000000 -0.99724144 -0.07422678
vn -0.19455212 -0.97807962 -0.07422672
vn -0.00000000 -0.99724144 -0.07422673
vn -0.00000000 -0.99724144 -0.07422674
vn 0.19455212 -0.97807962 -0.07422673
vn 0.19455212 -0.97807962 -0.07422677
vn 0.19455212 -0.97807962 -0.07422676
vn 0.38162774 -0.92133087 -0.07422676
vn 0.38162774 -0.92133087 -0.07422675
vn 0.55403757 -0.82917589 -0.07422675
vn 0.38162774 -0.92133087 -0.07422678
vn 0.55403757 -0.82917589 -0.07422678
vn 0.55403763 -0.82917589 -0.07422678
vn 0.55403763 -0.82917589 -0.07422679
vn 0.55403757 -0.82917589 -0.07422679
vn 0.70515615 -0.70515615 -0.07422680
vn 0.55403763 -0.82917589 -0.07422680
vn 0.70515615 -0.70515615 -0.07422681
vn 0.82917589 -0.55403757 -0.07422680
vn 0.70515615 -0.70515615 -0.07422679
vn 0.82917589 -0.55403757 -0.07422679
vn 0.82917589 -0.55403763 -0.07422679
vn 0.82917589 -0.55403763 -0.07422678
vn 0.82917589 -0.55403757 -0.07422678
vn 0.92133087 -0.38162774 -0.07422678
vn 0.82917589 -0.55403763 -0.07422674
vn 0.92133087 -0.38162774 -0.07422674
vn 0.92133087 -0.38162774 -0.07422675
vn 0.97807962 -0.19455212 -0.07422675
vn 0.92133087 -0.38162774 -0.07422677
vn 0.97807962 -0.19455212 -0.07422677
vn 0.99724144 -0.00000000 -0.07422678
vn 0.97807962 -0.19455212 -0.07422672
vn 0.99724144 -0.00000000 -0.07422673
vn 0.99724144 -0.00000000 -0.07422674
vn 0.97807962 0.19455212 -0.07422673
vn 0.97807962 0.19455212 -0.07422677
vn 0.97807962 0.19455212 -0.07422676
vn 0.92133087 0.38162774 -0.07422676
vn 0.92133087 0.38162774 -0.07422675
vn 0.82917589 0.55403757 -0.07422675
vn 0.92133087 0.38162774 -0.07422678
vn 0.82917589 0.55403757 -0.07422678
vn 0.82917589 0.55403763 -0.07422678
vn 0.82917589 0.55403763 -0.07422679
vn 0.82917589 0.55403757 -0.07422679
vn 0.70515615 0.70515615 -0.07422680
vn 0.82917589 0.55403763 -0.07422680
vn 0.70515615 0.70515615 -0.07422681
vn 0.55403757 0.82917589 -0.07422680
vn 0.70515615 0.70515615 -0.07422679
vn 0.55403757 0.82917589 -0.07422679
vn 0.55403763 0.82917589 -0.07422679
vn 0.55403763 0.82917589 -0.07422678
vn 0.55403757 0.82917589 -0.07422678
vn 0.38162774 0.92133087 -0.07422678
vn 0.55403763 0.82917589 -0.07422674
vn 0.38162774 0.92133087 -0.07422674
vn 0.38162774 0.92133087 -0.07422675
vn 0.19455212 0.97807962 -0.07422675
vn 0.38162774 0.92133087 -0.07422677
vn 0.19455212 0.97807962 -0.07422677
vn 0.00000000 0.99724144 -0.07422678
vn 0.19455212 0.97807962 -0.07422672
vn 0.00000000 0.99724144 -0.07422673
vn 0.00000000 0.99724144 -0.07422674
vn -0.19455212 0.97807962 -0.07422673
vn -0.19455212 0.97807962 -0.07422677
vn -0.19455212 0.97807962 -0.07422676
vn -0.38162774 0.92133087 -0.07422676
vn -0.38162774 0.92133087 -0.07422675
vn -0.55403757 0.82917589 -0.07422675
vn -0.38162774 0.92133087 -0.07422678
vn -0.55403757 0.82917589 -0.07422678
vn -0.55403763 0.82917589 -0.07422678
vn -0.55403763 0.82917589 -0.07422679
vn -0.55403757 0.82917589 -0.07422679
vn -0.70515615 0.70515615 -0.07422680
vn -0.55403763 0.82917589 -0.07422680
vn -0.70515615 0.70515615 -0.07422681
vn -0.82917589 0.55403757 -0.07422680
vn -0.70515615 0.70515615 -0.07422679
vn -0.82917589 0.55403757 -0.07422679
vn -0.82917589 0.55403763 -0.07422679
vn -0.82917589 0.55403763 -0.07422678
vn -0.82917589 0.55403757 -0.07422678
vn -0.92133087 0.38162774 -0.07422678
vn -0.82917589 0.55403763 -0.07422674
vn -0.92133087 0.38162774 -0.07422674
vn -0.92133087 0.38162774 -0.07422675
vn -0.97807962 0.19455212 -0.07422675
vn -0.92133087 0.38162774 -0.07422677
vn -0.97807962 0.19455212 -0.07422677
vn -0.97807962 0.19455212 -0.07422672
vn -0.99724144 -0.00000000 -0.07422673
vn -0.99992269 -0.00000000 -0.01243788
vn -0.98070937 -0.19507524 -0.01243787
vn -0.99992269 -0.00000000 -0.01243789
vn -0.98070937 -0.19507524 -0.01243789
vn -0.98070937 -0.19507521 -0.01243789
vn -0.92380810 -0.38265386 -0.01243789
vn -0.98070937 -0.19507521 -0.01243788
vn -0.92380810 -0.38265386 -0.01243788
vn -0.92380804 -0.38265383 -0.01243788
vn -0.83140528 -0.55552727 -0.01243788
vn -0.83140528 -0.55552721 -0.01243788
vn -0.70705205 -0.70705205 -0.01243788
vn -0.83140528 -0.55552721 -0.01243787
vn -0.70705205 -0.70705205 -0.01243787
vn -0.70705211 -0.70705211 -0.01243787
vn -0.55552727 -0.83140528 -0.01243787
vn -0.70705211 -0.70705211 -0.01243788
vn -0.55552727 -0.83140528 -0.01243788
vn -0.55552721 -0.83140528 -0.01243788
vn -0.38265386 -0.92380810 -0.01243788
vn -0.38265383 -0.92380804 -0.01243788
vn -0.19507524 -0.98070937 -0.01243788
vn -0.38265383 -0.92380804 -0.01243789
vn -0.19507524 -0.98070937 -0.01243789
vn -0.19507521 -0.98070937 -0.01243789
vn -0.00000000 -0.99992269 -0.01243789
vn -0.19507521 -0.98070937 -0.01243787
vn -0.00000000 -0.99992269 -0.01243787
vn -0.00000000 -0.99992269 -0.01243788
vn 0.19507524 -0.98070937 -0.01243787
vn 0.19507524 -0.98070937 -0.01243789
vn 0.19507521 -0.98070937 -0.01243789
vn 0.38265386 -0.92380810 -0.01243789
vn 0.19507521 -0.98070937 -0.01243788
vn 0.38265386 -0.92380810 -0.01243788
vn 0.38265383 -0.92380804 -0.01243788
vn 0.55552727 -0.83140528 -0.01243788
vn 0.55552721 -0.83140528 -0.01243788
vn 0.70705205 -0.70705205 -0.01243788
vn 0.55552721 -0.83140528 -0.01243787
vn 0.70705205 -0.70705205 -0.01243787
vn 0.70705211 -0.70705211 -0.01243787
vn 0.83140528 -0.55552727 -0.01243787
vn 0.70705211 -0.70705211 -0.01243788
vn 0.83140528 -0.55552727 -0.01243788
vn 0.83140528 -0.55552721 -0.01243788
vn 0.92380810 -0.38265386 -0.01243788
vn 0.92380804 -0.38265383 -0.01243788
vn 0.98070937 -0.19507524 -0.01243788
vn 0.92380804 -0.38265383 -0.01243789
vn 0.98070937 -0.19507524 -0.01243789
vn 0.98070937 -0.19507521 -0.01243789
vn 0.99992269 -0.00000000 -0.01243789
vn 0.98070937 -0.19507521 -0.01243787
vn 0.99992269 -0.00000000 -0.01243787
vn 0.99992269 -0.00000000 -0.01243788
vn 0.98070937 0.19507524 -0.01243787
vn 0.98070937 0.19507524 -0.01243789
vn 0.98070937 0.19507521 -0.01243789
vn 0.92380810 0.38265386 -0.01243789
vn 0.98070937 0.19507521 -0.01243788
vn 0.92380810 0.38265386 -0.01243788
vn 0.92380804 0.38265383 -0.01243788
vn 0.83140528 0.55552727 -0.01243788
vn 0.83140528 0.55552721 -0.01243788
vn 0.70705205 0.70705205 -0.01243788
vn 0.83140528 0.55552721 -0.01243787
vn 0.70705205 0.70705205 -0.01243787
vn 0.70705211 0.70705211 -0.01243787
vn 0.55552727 0.83140528 -0.01243787
vn 0.70705211 0.70705211 -0.01243788
vn 0.55552727 0.83140528 -0.01243788
vn 0.55552721 0.83140528 -0.01243788
vn 0.38265386 0.92380810 -0.01243788
vn 0.38265383 0.92380804 -0.01243788
vn 0.19507524 0.98070937 -0.01243788
vn 0.38265383 0.92380804 -0.01243789
vn 0.19507524 0.98070937 -0.01243789
vn 0.19507521 0.98070937 -0.01243789
vn 0.00000000 0.99992269 -0.01243789
vn 0.19507521 0.98070937 -0.01243787
vn 0.00000000 0.99992269 -0.01243787
vn 0.00000000 0.99992269 -0.01243788
vn -0.19507524 0.98070937 -0.01243787
vn -0.19507524 0.98070937 -0.01243789
vn -0.19507521 0.98070937 -0.01243789
vn -0.38265386 0.92380810 -0.01243789
vn -0.19507521 0.98070937 -0.01243788
vn -0.38265386 0.92380810 -0.01243788
vn -0.38265383 0.92380804 -0.01243788
vn -0.55552727 0.83140528 -0.01243788
vn -0.55552721 0.83140528 -0.01243788
vn -0.70705205 0.70705205 -0.01243788
vn -0.55552721 0.83140528 -0.01243787
vn -0.70705205 0.70705205 -0.01243787
vn -0.70705211 0.70705211 -0.01243787
vn -0.83140528 0.55552727 -0.01243787
vn -0.70705211 0.70705211 -0.01243788
vn -0.83140528 0.55552727 -0.01243788
vn -0.83140528 0.55552721 -0.01243788
vn -0.92380810 0.38265386 -0.01243788
vn -0.92380804 0.38265383 -0.01243788
vn -0.98070937 0.19507524 -0.01243788
vn -0.92380804 0.38265383 -0.01243789
vn -0.98070937 0.19507524 -0.01243789
vn -0.98070937 0.19507521 -0.01243789
vn -0.98070937 0.19507521 -0.01243787
vn -0.99992269 -0.00000000 -0.01243787
g nozzle
f 1/1/1 2/1/2 3/1/3
f 1/1/4 3/1/5 4/1/6
f 4/1/7 3/1/8 5/1/9
f 4/1/10 5/1/11 6/1/12
f 6/1/13 5/1/14 7/1/15
f 6/1/16 7/1/17 8/1/18
f 8/1/19 7/1/20 9/1/21
f 8/1/22 9/1/23 10/1/23
f 10/1/24 9/1/24 11/1/25
f 10/1/26 11/1/27 12/1/28
f 12/1/29 11/1/30 13/1/31
f 12/1/32 13/1/33 14/1/34
f 14/1/35 13/1/36 15/1/37
f 14/1/38 15/1/39 16/1/40
f 16/1/41 15/1/42 17/1/43
f 16/1/44 17/1/45 18/1/46
f 18/1/47 17/1/48 19/1/49
f 18/1/50 19/1/51 20/1/52
f 20/1/53 19/1/54 21/1/55
f 20/1/56 21/1/57 22/1/58
f 22/1/59 21/1/60 23/1/61
f 22/1/62 23/1/63 24/1/64
f 24/1/65 23/1/66 25/1/67
f 24/1/68 25/1/69 26/1/69
f 26/1/70 25/1/70 27/1/71
f 26/1/72 27/1/73 28/1/74
f 28/1/75 27/1/76 29/1/77
f 28/1/78 29/1/79 30/1/80
f 30/1/81 29/1/82 31/1/83
f 30/1/84 31/1/85 32/1/86
f 32/1/87 31/1/88 33/1/89
f 32/1/90 33/1/91 34/1/92
f 34/1/93 33/1/94 35/1/95
f 34/1/96 35/1/97 36/1/98
f 36/1/99 35/1/100 37/1/101
f 36/1/102 37/1/103 38/1/104
f 38/1/105 37/1/106 39/1/107
f 38/1/108 39/1/109 40/1/110
f 40/1/111 39/1/112 41/1/113
f 40/1/114 41/1/115 42/1/115
f 42/1/116 41/1/116 43/1/117
f 42/1/118 43/1/119 44/1/120
f 44/1/121 43/1/122 45/1/123
f 44/1/124 45/1/125 46/1/126
f 46/1/127 45/1/128 47/1/129
f 46/1/130 47/1/131 48/1/132
f 48/1/133 47/1/134 49/1/135
f 48/1/136 49/1/137 50/1/138
f 50/1/139 49/1/140 51/1/141
f 50/1/142 51/1/143 52/1/144
f 52/1/145 51/1/146 53/1/147
f 52/1/148 53/1/149 54/1/150
f 54/1/151 53/1/152 55/1/153
f 54/1/154 55/1/155 56/1/156
f 56/1/157 55/1/158 57/1/159
f 56/1/160 57/1/161 58/1/161
f 58/1/162 57/1/162 59/1/163
f 58/1/164 59/1/165 60/1/166
f 60/1/167 59/1/168 61/1/169
f 60/1/170 61/1/171 62/1/172
f 62/1/173 61/1/174 63/1/175
f 62/1/176 63/1/177 64/1/178
f 64/1/179 63/1/180 2/1/181
f 64/1/182 2/1/183 1/1/184
f 2/1/185 65/1/186 66/1/187
f 2/1/188 66/1/189 3/1/190
f 3/1/190 66/1/189 67/1/191
f 3/1/192 67/1/193 5/1/193
f 5/1/194 67/1/194 68/1/195
f 5/1/196 68/1/197 7/1/198
f 7/1/199 68/1/200 69/1/201
f 7/1/202 69/1/203 9/1/203
f 9/1/204 69/1/204 70/1/205
f 9/1/206 70/1/207 11/1/208
f 11/1/209 70/1/210 71/1/211
f 11/1/212 71/1/213 13/1/213
f 13/1/213 71/1/213 72/1/214
f 13/1/215 72/1/216 15/1/217
f 15/1/217 72/1/216 73/1/218
f 15/1/219 73/1/220 17/1/221
f 17/1/221 73/1/220 74/1/222
f 17/1/223 74/1/224 19/1/225
f 19/1/225 74/1/224 75/1/226
f 19/1/227 75/1/228 21/1/228
f 21/1/229 75/1/229 76/1/230
f 21/1/231 76/1/232 23/1/233
f 23/1/234 76/1/235 77/1/236
f 23/1/237 77/1/238 25/1/238
f 25/1/239 77/1/239 78/1/240
f 25/1/241 78/1/242 27/1/243
f 27/1/244 78/1/245 79/1/246
f 27/1/247 79/1/248 29/1/248
f 29/1/248 79/1/248 80/1/249
f 29/1/250 80/1/251 31/1/252
f 31/1/252 80/1/251 81/1/253
f 31/1/254 81/1/255 33/1/256
f 33/1/256 81/1/255 82/1/257
f 33/1/258 82/1/259 35/1/260
f 35/1/260 82/1/259 83/1/261
f 35/1/262 83/1/263 37/1/263
f 37/1/264 83/1/264 84/1/265
f 37/1/266 84/1/267 39/1/268
f 39/1/269 84/1/270 85/1/271
f 39/1/272 85/1/273 41/1/273
f 41/1/274 85/1/274 86/1/275
f 41/1/276 86/1/277 43/1/278
f 43/1/279 86/1/280 87/1/281
f 43/1/282 87/1/283 45/1/283
f 45/1/283 87/1/283 88/1/284
f 45/1/285 88/1/286 47/1/287
f 47/1/287 88/1/286 89/1/288
f 47/1/289 89/1/290 49/1/291
f 49/1/291 89/1/290 90/1/292
f 49/1/293 90/1/294 51/1/295
f 51/1/295 90/1/294 91/1/296
f 51/1/297 91/1/298 53/1/298
f 53/1/299 91/1/299 92/1/300
f 53/1/301 92/1/302 55/1/303
f 55/1/304 92/1/305 93/1/306
f 55/1/307 93/1/308 57/1/308
f 57/1/309 93/1/309 94/1/310
f 57/1/311 94/1/312 59/1/313
f 59/1/314 94/1/315 95/1/316
f 59/1/317 95/1/318 61/1/318
f 61/1/318 95/1/318 96/1/319
f 61/1/320 96/1/321 63/1/322
f 63/1/322 96/1/321 65/1/323
f 63/1/324 65/1/186 2/1/185
f 65/1/325 97/1/325 98/1/326
f 65/1/327 98/1/328 66/1/329
f 66/1/329 98/1/328 99/1/330
f 66/1/331 99/1/332 67/1/333
f 67/1/334 99/1/335 100/1/336
f 67/1/337 100/1/338 68/1/339
f 68/1/340 100/1/341 101/1/342
f 68/1/343 101/1/344 69/1/345
f 69/1/346 101/1/347 102/1/348
f 69/1/342 102/1/349 70/1/350
f 70/1/351 102/1/352 103/1/353
f 70/1/354 103/1/355 71/1/356
f 71/1/357 103/1/358 104/1/359
f 71/1/360 104/1/361 72/1/362
f 72/1/362 104/1/363 105/1/364
f 72/1/365 105/1/366 73/1/366
f 73/1/366 105/1/366 106/1/367
f 73/1/364 106/1/368 74/1/369
f 74/1/369 106/1/368 107/1/370
f 74/1/371 107/1/372 75/1/373
f 75/1/374 107/1/375 108/1/376
f 75/1/377 108/1/378 76/1/379
f 76/1/380 108/1/381 109/1/382
f 76/1/383 109/1/384 77/1/385
f 77/1/386 109/1/387 110/1/388
f 77/1/382 110/1/389 78/1/390
f 78/1/391 110/1/392 111/1/393
f 78/1/394 111/1/395 79/1/396
f 79/1/397 111/1/398 112/1/399
f 79/1/400 112/1/401 80/1/402
f 80/1/402 112/1/403 113/1/404
f 80/1/405 113/1/406 81/1/406
f 81/1/406 113/1/406 114/1/407
f 81/1/404 114/1/408 82/1/409
f 82/1/409 114/1/408 115/1/410
f 82/1/411 115/1/412 83/1/413
f 83/1/414 115/1/415 116/1/416
f 83/1/417 116/1/418 84/1/419
f 84/1/420 116/1/421 117/1/422
f 84/1/423 117/1/424 85/1/425
f 85/1/426 117/1/427 118/1/428
f 85/1/422 118/1/429 86/1/430
f 86/1/431 118/1/432 119/1/433
f 86/1/434 119/1/435 87/1/436
f 87/1/437 119/1/438 120/1/439
f 87/1/440 120/1/441 88/1/442
f 88/1/442 120/1/443 121/1/444
f 88/1/445 121/1/446 89/1/446
f 89/1/446 121/1/446 122/1/447
f 89/1/444 122/1/448 90/1/449
f 90/1/449 122/1/448 123/1/450
f 90/1/451 123/1/452 91/1/453
f 91/1/454 123/1/455 124/1/456
f 91/1/457 124/1/458 92/1/459
f 92/1/460 124/1/461 125/1/462
f 92/1/463 125/1/464 93/1/465
f 93/1/466 125/1/467 126/1/468
f 93/1/462 126/1/469 94/1/470
f 94/1/471 126/1/472 127/1/473
f 94/1/474 127/1/475 95/1/476
f 95/1/477 127/1/478 128/1/479
f 95/1/480 128/1/481 96/1/482
f 96/1/482 128/1/483 97/1/327
f 96/1/484 97/1/325 65/1/325
f 97/1/485 129/1/485 130/1/486
f 97/1/487 130/1/488 98/1/488
f 98/1/489 130/1/489 131/1/490
f 98/1/491 131/1/492 99/1/493
f 99/1/494 131/1/495 132/1/496
f 99/1/494 132/1/496 100/1/497
f 100/1/498 132/1/499 133/1/500
f 100/1/498 133/1/500 101/1/501
f 101/1/502 133/1/503 134/1/504
f 101/1/505 134/1/506 102/1/507
f 102/1/507 134/1/506 135/1/508
f 102/1/509 135/1/510 103/1/511
f 103/1/511 135/1/510 136/1/512
f 103/1/513 136/1/514 104/1/514
f 104/1/514 136/1/514 137/1/515
f 104/1/512 137/1/516 105/1/516
f 105/1/515 137/1/515 138/1/517
f 105/1/516 138/1/518 106/1/518
f 106/1/519 138/1/519 139/1/520
f 106/1/521 139/1/522 107/1/523
f 107/1/524 139/1/525 140/1/526
f 107/1/524 140/1/526 108/1/527
f 108/1/528 140/1/529 141/1/530
f 108/1/528 141/1/530 109/1/531
f 109/1/532 141/1/533 142/1/534
f 109/1/535 142/1/536 110/1/537
f 110/1/537 142/1/536 143/1/538
f 110/1/539 143/1/540 111/1/541
f 111/1/541 143/1/540 144/1/542
f 111/1/543 144/1/544 112/1/544
f 112/1/544 144/1/544 145/1/545
f 112/1/542 145/1/546 113/1/546
f 113/1/545 145/1/545 146/1/547
f 113/1/546 146/1/548 114/1/548
f 114/1/549 146/1/549 147/1/550
f 114/1/551 147/1/552 115/1/553
f 115/1/554 147/1/555 148/1/556
f 115/1/554 148/1/556 116/1/557
f 116/1/558 148/1/559 149/1/560
f 116/1/558 149/1/560 117/1/561
f 117/1/562 149/1/563 150/1/564
f 117/1/565 150/1/566 118/1/567
f 118/1/567 150/1/566 151/1/568
f 118/1/569 151/1/570 119/1/571
f 119/1/571 151/1/570 152/1/572
f 119/1/573 152/1/574 120/1/574
f 120/1/574 152/1/574 153/1/575
f 120/1/572 153/1/576 121/1/576
f 121/1/575 153/1/575 154/1/577
f 121/1/576 154/1/578 122/1/578
f 122/1/579 154/1/579 155/1/580
f 122/1/581 155/1/582 123/1/583
f 123/1/584 155/1/585 156/1/586
f 123/1/584 156/1/586 124/1/587
f 124/1/588 156/1/589 157/1/590
f 124/1/588 157/1/590 125/1/591
f 125/1/592 157/1/593 158/1/594
f 125/1/595 158/1/596 126/1/597
f 126/1/597 158/1/596 159/1/598
f 126/1/599 159/1/600 127/1/601
f 127/1/601 159/1/600 160/1/602
f 127/1/603 160/1/604 128/1/604
f 128/1/604 160/1/604 129/1/485
f 128/1/602 129/1/487 97/1/487
f 129/1/605 161/1/605 162/1/606
f 129/1/605 162/1/606 130/1/606
f 130/1/606 162/1/606 163/1/607
f 130/1/606 163/1/607 131/1/607
f 131/1/607 163/1/607 164/1/608
f 131/1/607 164/1/608 132/1/608
f 132/1/608 164/1/608 165/1/609
f 132/1/608 165/1/609 133/1/609
f 133/1/609 165/1/609 166/1/610
f 133/1/609 166/1/610 134/1/610
f 134/1/610 166/1/610 167/1/611
f 134/1/610 167/1/611 135/1/611
f 135/1/611 167/1/611 168/1/612
f 135/1/611 168/1/612 136/1/612
f 136/1/612 168/1/612 169/1/613
f 136/1/612 169/1/613 137/1/613
f 137/1/613 169/1/613 170/1/614
f 137/1/613 170/1/614 138/1/614
f 138/1/614 170/1/614 171/1/615
f 138/1/614 171/1/615 139/1/615
f 139/1/615 171/1/615 172/1/616
f 139/1/615 172/1/616 140/1/616
f 140/1/616 172/1/616 173/1/617
f 140/1/616 173/1/617 141/1/617
f 141/1/617 173/1/617 174/1/618
f 141/1/617 174/1/618 142/1/618
f 142/1/618 174/1/618 175/1/619
f 142/1/618 175/1/619 143/1/619
f 143/1/619 175/1/619 176/1/620
f 143/1/619 176/1/620 144/1/620
f 144/1/620 176/1/620 177/1/621
f 144/1/620 177/1/621 145/1/621
f 145/1/621 177/1/621 178/1/622
f 145/1/621 178/1/622 146/1/622
f 146/1/622 178/1/622 179/1/623
f 146/1/622 179/1/623 147/1/623
f 147/1/623 179/1/623 180/1/624
f 147/1/623 180/1/624 148/1/624
f 148/1/624 180/1/624 181/1/625
f 148/1/624 181/1/625 149/1/625
f 149/1/625 181/1/625 182/1/626
f 149/1/625 182/1/626 150/1/626
f 150/1/626 182/1/626 183/1/627
f 150/1/626 183/1/627 151/1/627
f 151/1/627 183/1/627 184/1/628
f 151/1/627 184/1/628 152/1/628
f 152/1/628 184/1/628 185/1/629
f 152/1/628 185/1/629 153/1/629
f 153/1/629 185/1/629 186/1/630
f 153/1/629 186/1/630 154/1/630
f 154/1/630 186/1/630 187/1/631
f 154/1/630 187/1/631 155/1/631
f 155/1/631 187/1/631 188/1/632
f 155/1/631 188/1/632 156/1/632
f 156/1/632 188/1/632 189/1/633
f 156/1/632 189/1/633 157/1/633
f 157/1/633 189/1/633 190/1/634
f 157/1/633 190/1/634 158/1/634
f 158/1/634 190/1/634 191/1/635
f 158/1/634 191/1/635 159/1/635
f 159/1/635 191/1/635 192/1/636
f 159/1/635 192/1/636 160/1/636
f 160/1/636 192/1/636 161/1/605
f 160/1/636 161/1/605 129/1/605
f 161/1/637 193/1/637 194/1/638
f 161/1/639 194/1/640 162/1/640
f 162/1/640 194/1/640 195/1/641
f 162/1/642 195/1/643 163/1/644
f 163/1/645 195/1/646 196/1/647
f 163/1/648 196/1/649 164/1/650
f 164/1/650 196/1/649 197/1/651
f 164/1/652 197/1/653 165/1/653
f 165/1/654 197/1/654 198/1/655
f 165/1/651 198/1/656 166/1/657
f 166/1/657 198/1/656 199/1/658
f 166/1/659 199/1/660 167/1/661
f 167/1/661 199/1/660 200/1/662
f 167/1/663 200/1/664 168/1/664
f 168/1/664 200/1/664 201/1/665
f 168/1/666 201/1/667 169/1/667
f 169/1/668 201/1/668 202/1/669
f 169/1/670 202/1/671 170/1/671
f 170/1/671 202/1/671 203/1/672
f 170/1/673 203/1/674 171/1/675
f 171/1/676 203/1/677 204/1/678
f 171/1/679 204/1/680 172/1/681
f 172/1/681 204/1/680 205/1/682
f 172/1/683 205/1/684 173/1/684
f 173/1/685 205/1/685 206/1/686
f 173/1/682 206/1/687 174/1/688
f 174/1/688 206/1/687 207/1/689
f 174/1/690 207/1/691 175/1/692
f 175/1/692 207/1/691 208/1/693
f 175/1/694 208/1/695 176/1/695
f 176/1/695 208/1/695 209/1/696
f 176/1/697 209/1/698 177/1/698
f 177/1/699 209/1/699 210/1/700
f 177/1/701 210/1/702 178/1/702
f 178/1/702 210/1/702 211/1/703
f 178/1/704 211/1/705 179/1/706
f 179/1/707 211/1/708 212/1/709
f 179/1/710 212/1/711 180/1/712
f 180/1/712 212/1/711 213/1/713
f 180/1/714 213/1/715 181/1/715
f 181/1/716 213/1/716 214/1/717
f 181/1/713 214/1/718 182/1/719
f 182/1/719 214/1/718 215/1/720
f 182/1/721 215/1/722 183/1/723
f 183/1/723 215/1/722 216/1/724
f 183/1/725 216/1/726 184/1/726
f 184/1/726 216/1/726 217/1/727
f 184/1/728 217/1/729 185/1/729
f 185/1/730 217/1/730 218/1/731
f 185/1/732 218/1/733 186/1/733
f 186/1/733 218/1/733 219/1/734
f 186/1/735 219/1/736 187/1/737
f 187/1/738 219/1/739 220/1/740
f 187/1/741 220/1/742 188/1/743
f 188/1/743 220/1/742 221/1/744
f 188/1/745 221/1/746 189/1/746
f 189/1/747 221/1/747 222/1/748
f 189/1/744 222/1/749 190/1/750
f 190/1/750 222/1/749 223/1/751
f 190/1/752 223/1/753 191/1/754
f 191/1/754 223/1/753 224/1/755
f 191/1/756 224/1/757 192/1/757
f 192/1/757 224/1/757 193/1/758
f 192/1/759 193/1/760 161/1/760
f 193/2/761 225/2/761 226/2/761
f 193/2/761 226/2/761 194/2/761
f 194/2/761 226/2/761 227/2/761
f 194/2/761 227/2/761 195/2/761
f 195/2/761 227/2/761 228/2/761
f 195/2/761 228/2/761 196/2/761
f 196/2/761 228/2/761 229/2/761
f 196/2/761 229/2/761 197/2/761
f 197/2/761 229/2/761 230/2/761
f 197/2/761 230/2/761 198/2/761
f 198/2/761 230/2/761 231/2/761
f 198/2/761 231/2/761 199/2/761
f 199/2/761 231/2/761 232/2/761
f 199/2/761 232/2/761 200/2/761
f 200/2/761 232/2/761 233/2/761
f 200/2/761 233/2/761 201/2/761
f 201/2/761 233/2/761 234/2/761
f 201/2/761 234/2/761 202/2/761
f 202/2/761 234/2/761 235/2/761
f 202/2/761 235/2/761 203/2/761
f 203/2/761 235/2/761 236/2/761
f 203/2/761 236/2/761 204/2/761
f 204/2/761 236/2/761 237/2/761
f 204/2/761 237/2/761 205/2/761
f 205/2/761 237/2/761 238/2/761
f 205/2/761 238/2/761 206/2/761
f 206/2/761 238/2/761 239/2/761
f 206/2/761 239/2/761 207/2/761
f 207/2/761 239/2/761 240/2/761
f 207/2/761 240/2/761 208/2/761
f 208/2/761 240/2/761 241/2/761
f 208/2/761 241/2/761 209/2/761
f 209/2/761 241/2/761 242/2/761
f 209/2/761 242/2/761 210/2/761
f 210/2/761 242/2/761 243/2/761
f 210/2/761 243/2/761 211/2/761
f 211/2/761 243/2/761 244/2/761
f 211/2/761 244/2/761 212/2/761
f 212/2/761 244/2/761 245/2/761
f 212/2/761 245/2/761 213/2/761
f 213/2/761 245/2/761 246/2/761
f 213/2/761 246/2/761 214/2/761
f 214/2/761 246/2/761 247/2/761
f 214/2/761 247/2/761 215/2/761
f 215/2/761 247/2/761 248/2/761
f 215/2/761 248/2/761 216/2/761
f 216/2/761 248/2/761 249/2/761
f 216/2/761 249/2/761 217/2/761
f 217/2/761 249/2/761 250/2/761
f 217/2/761 250/2/761 218/2/761
f 218/2/761 250/2/761 251/2/761
f 218/2/761 251/2/761 219/2/761
f 219/2/761 251/2/761 252/2/761
f 219/2/761 252/2/761 220/2/761
f 220/2/761 252/2/761 253/2/761
f 220/2/761 253/2/761 221/2/761
f 221/2/761 253/2/761 254/2/761
f 221/2/761 254/2/761 222/2/761
f 222/2/761 254/2/761 255/2/761
f 222/2/761 255/2/761 223/2/761
f 223/2/761 255/2/761 256/2/761
f 223/2/761 256/2/761 224/2/761
f 224/2/761 256/2/761 225/2/761
f 224/2/761 225/2/761 193/2/761
f 225/3/762 257/3/762 258/3/763
f 225/3/764 258/3/765 226/3/765
f 226/3/766 258/3/766 259/3/767
f 226/3/766 259/3/767 227/3/767
f 227/3/768 259/3/768 260/3/769
f 227/3/770 260/3/771 228/3/772
f 228/3/773 260/3/774 261/3/775
f 228/3/776 261/3/775 229/3/775
f 229/3/775 261/3/777 262/3/778
f 229/3/779 262/3/780 230/3/781
f 230/3/782 262/3/783 263/3/784
f 230/3/785 263/3/786 231/3/786
f 231/3/787 263/3/787 264/3/788
f 231/3/789 264/3/790 232/3/790
f 232/3/790 264/3/790 265/3/791
f 232/3/792 265/3/793 233/3/793
f 233/3/794 265/3/794 266/3/795
f 233/3/791 266/3/796 234/3/796
f 234/3/797 266/3/797 267/3/798
f 234/3/797 267/3/798 235/3/798
f 235/3/799 267/3/799 268/3/800
f 235/3/801 268/3/802 236/3/803
f 236/3/804 268/3/805 269/3/806
f 236/3/807 269/3/806 237/3/806
f 237/3/806 269/3/808 270/3/809
f 237/3/810 270/3/811 238/3/812
f 238/3/813 270/3/814 271/3/815
f 238/3/816 271/3/817 239/3/817
f 239/3/818 271/3/818 272/3/819
f 239/3/820 272/3/821 240/3/821
f 240/3/821 272/3/821 273/3/822
f 240/3/823 273/3/824 241/3/824
f 241/3/825 273/3/825 274/3/826
f 241/3/822 274/3/827 242/3/827
f 242/3/828 274/3/828 275/3/829
f 242/3/828 275/3/829 243/3/829
f 243/3/830 275/3/830 276/3/831
f 243/3/832 276/3/833 244/3/834
f 244/3/835 276/3/836 277/3/837
f 244/3/838 277/3/837 245/3/837
f 245/3/837 277/3/839 278/3/840
f 245/3/841 278/3/842 246/3/843
f 246/3/844 278/3/845 279/3/846
f 246/3/847 279/3/848 247/3/848
f 247/3/849 279/3/849 280/3/850
f 247/3/851 280/3/852 248/3/852
f 248/3/852 280/3/852 281/3/853
f 248/3/854 281/3/855 249/3/855
f 249/3/856 281/3/856 282/3/857
f 249/3/853 282/3/858 250/3/858
f 250/3/859 282/3/859 283/3/860
f 250/3/859 283/3/860 251/3/860
f 251/3/861 283/3/861 284/3/862
f 251/3/863 284/3/864 252/3/865
f 252/3/866 284/3/867 285/3/868
f 252/3/869 285/3/868 253/3/868
f 253/3/868 285/3/870 286/3/871
f 253/3/872 286/3/873 254/3/874
f 254/3/875 286/3/876 287/3/877
f 254/3/878 287/3/879 255/3/879
f 255/3/880 287/3/880 288/3/881
f 255/3/882 288/3/883 256/3/883
f 256/3/883 288/3/883 257/3/764
f 256/3/884 257/3/885 225/3/885
f 257/3/886 289/3/886 290/3/887
f 257/3/888 290/3/889 258/3/890
f 258/3/890 290/3/889 291/3/891
f 258/3/892 291/3/893 259/3/894
f 259/3/894 291/3/893 292/3/895
f 259/3/894 292/3/895 260/3/896
f 260/3/896 292/3/895 293/3/897
f 260/3/898 293/3/899 261/3/900
f 261/3/900 293/3/899 294/3/901
f 261/3/902 294/3/903 262/3/904
f 262/3/904 294/3/903 295/3/905
f 262/3/904 295/3/905 263/3/906
f 263/3/906 295/3/905 296/3/907
f 263/3/908 296/3/909 264/3/910
f 264/3/910 296/3/909 297/3/911
f 264/3/912 297/3/913 265/3/913
f 265/3/914 297/3/914 298/3/915
f 265/3/911 298/3/916 266/3/917
f 266/3/917 298/3/916 299/3/918
f 266/3/919 299/3/920 267/3/921
f 267/3/921 299/3/920 300/3/922
f 267/3/921 300/3/922 268/3/923
f 268/3/923 300/3/922 301/3/924
f 268/3/925 301/3/926 269/3/927
f 269/3/927 301/3/926 302/3/928
f 269/3/929 302/3/930 270/3/931
f 270/3/931 302/3/930 303/3/932
f 270/3/931 303/3/932 271/3/933
f 271/3/933 303/3/932 304/3/934
f 271/3/935 304/3/936 272/3/937
f 272/3/937 304/3/936 305/3/938
f 272/3/939 305/3/940 273/3/940
f 273/3/941 305/3/941 306/3/942
f 273/3/938 306/3/943 274/3/944
f 274/3/944 306/3/943 307/3/945
f 274/3/946 307/3/947 275/3/948
f 275/3/948 307/3/947 308/3/949
f 275/3/948 308/3/949 276/3/950
f 276/3/950 308/3/949 309/3/951
f 276/3/952 309/3/953 277/3/954
f 277/3/954 309/3/953 310/3/955
f 277/3/956 310/3/957 278/3/958
f 278/3/958 310/3/957 311/3/959
f 278/3/958 311/3/959 279/3/960
f 279/3/960 311/3/959 312/3/961
f 279/3/962 312/3/963 280/3/964
f 280/3/964 312/3/963 313/3/965
f 280/3/966 313/3/967 281/3/967
f 281/3/968 313/3/968 314/3/969
f 281/3/965 314/3/970 282/3/971
f 282/3/971 314/3/970 315/3/972
f 282/3/973 315/3/974 283/3/975
f 283/3/975 315/3/974 316/3/976
f 283/3/975 316/3/976 284/3/977
f 284/3/977 316/3/976 317/3/978
f 284/3/979 317/3/980 285/3/981
f 285/3/981 317/3/980 318/3/982
f 285/3/983 318/3/984 286/3/985
f 286/3/985 318/3/984 319/3/986
f 286/3/985 319/3/986 287/3/987
f 287/3/987 319/3/986 320/3/988
f 287/3/989 320/3/990 288/3/991
f 288/3/991 320/3/990 289/3/888
f 288/3/992 289/3/993 257/3/993
f 289/3/761 321/3/761 290/3/761
f 290/3/761 321/3/761 291/3/761
f 291/3/761 321/3/761 292/3/761
f 292/3/761 321/3/761 293/3/761
f 293/3/761 321/3/761 294/3/761
f 294/3/761 321/3/761 295/3/761
f 295/3/761 321/3/761 296/3/761
f 296/3/761 321/3/761 297/3/761
f 297/3/761 321/3/761 298/3/761
f 298/3/761 321/3/761 299/3/761
f 299/3/761 321/3/761 300/3/761
f 300/3/761 321/3/761 301/3/761
f 301/3/761 321/3/761 302/3/761
f 302/3/761 321/3/761 303/3/761
f 303/3/761 321/3/761 304/3/761
f 304/3/761 321/3/761 305/3/761
f 305/3/761 321/3/761 306/3/761
f 306/3/761 321/3/761 307/3/761
f 307/3/761 321/3/761 308/3/761
f 308/3/761 321/3/761 309/3/761
f 309/3/761 321/3/761 310/3/761
f 310/3/761 321/3/761 311/3/761
f 311/3/761 321/3/761 312/3/761
f 312/3/761 321/3/761 313/3/761
f 313/3/761 321/3/761 314/3/761
f 314/3/761 321/3/761 315/3/761
f 315/3/761 321/3/761 316/3/761
f 316/3/761 321/3/761 317/3/761
f 317/3/761 321/3/761 318/3/761
f 318/3/761 321/3/761 319/3/761
f 319/3/761 321/3/761 320/3/761
f 320/3/761 321/3/761 289/3/761
