# Original WarTech Reforged strategic radar
# Generated from primitive geometry; no third-party mesh
v -16.90000 -0.35000 -16.90000
v 16.90000 -0.35000 -16.90000
v 16.90000 0.25000 -16.90000
v -16.90000 0.25000 -16.90000
v 16.90000 -0.35000 16.90000
v -16.90000 -0.35000 16.90000
v -16.90000 0.25000 16.90000
v 16.90000 0.25000 16.90000
v -16.90000 -0.35000 16.90000
v -16.90000 -0.35000 -16.90000
v -16.90000 0.25000 -16.90000
v -16.90000 0.25000 16.90000
v 16.90000 -0.35000 -16.90000
v 16.90000 -0.35000 16.90000
v 16.90000 0.25000 16.90000
v 16.90000 0.25000 -16.90000
v -16.90000 0.25000 -16.90000
v 16.90000 0.25000 -16.90000
v 16.90000 0.25000 16.90000
v -16.90000 0.25000 16.90000
v -16.90000 -0.35000 16.90000
v 16.90000 -0.35000 16.90000
v 16.90000 -0.35000 -16.90000
v -16.90000 -0.35000 -16.90000
v -13.00000 0.25000 -13.00000
v 13.00000 0.25000 -13.00000
v 13.00000 0.65000 -13.00000
v -13.00000 0.65000 -13.00000
v 13.00000 0.25000 13.00000
v -13.00000 0.25000 13.00000
v -13.00000 0.65000 13.00000
v 13.00000 0.65000 13.00000
v -13.00000 0.25000 13.00000
v -13.00000 0.25000 -13.00000
v -13.00000 0.65000 -13.00000
v -13.00000 0.65000 13.00000
v 13.00000 0.25000 -13.00000
v 13.00000 0.25000 13.00000
v 13.00000 0.65000 13.00000
v 13.00000 0.65000 -13.00000
v -13.00000 0.65000 -13.00000
v 13.00000 0.65000 -13.00000
v 13.00000 0.65000 13.00000
v -13.00000 0.65000 13.00000
v -13.00000 0.25000 13.00000
v 13.00000 0.25000 13.00000
v 13.00000 0.25000 -13.00000
v -13.00000 0.25000 -13.00000
v -16.50000 0.00000 -16.50000
v 16.50000 0.00000 -16.50000
v 10.50000 20.00000 -10.50000
v -10.50000 20.00000 -10.50000
v 16.50000 0.00000 -16.50000
v 16.50000 0.00000 16.50000
v 10.50000 20.00000 10.50000
v 10.50000 20.00000 -10.50000
v 16.50000 0.00000 16.50000
v -16.50000 0.00000 16.50000
v -10.50000 20.00000 10.50000
v 10.50000 20.00000 10.50000
v -16.50000 0.00000 16.50000
v -16.50000 0.00000 -16.50000
v -10.50000 20.00000 -10.50000
v -10.50000 20.00000 10.50000
v -10.50000 20.00000 -10.50000
v 10.50000 20.00000 -10.50000
v 10.50000 20.00000 10.50000
v -10.50000 20.00000 10.50000
v -14.46900 1.95000 -15.95000
v 14.46900 1.95000 -15.95000
v 14.46900 2.05000 -15.92000
v -14.46900 2.05000 -15.92000
v -13.37700 5.95000 -14.75000
v 13.37700 5.95000 -14.75000
v 13.37700 6.05000 -14.72000
v -13.37700 6.05000 -14.72000
v -12.28500 9.95000 -13.55000
v 12.28500 9.95000 -13.55000
v 12.28500 10.05000 -13.52000
v -12.28500 10.05000 -13.52000
v -11.19300 13.95000 -12.35000
v 11.19300 13.95000 -12.35000
v 11.19300 14.05000 -12.32000
v -11.19300 14.05000 -12.32000
v -10.10100 17.95000 -11.15000
v 10.10100 17.95000 -11.15000
v 10.10100 18.05000 -11.12000
v -10.10100 18.05000 -11.12000
v 2.50000 7.70000 -14.37000
v 7.70000 7.70000 -14.37000
v 7.70000 13.90000 -12.51000
v 2.50000 13.90000 -12.51000
v 2.00000 7.30000 -14.55000
v 8.20000 7.30000 -14.55000
v 8.20000 7.50000 -14.49000
v 2.00000 7.50000 -14.49000
v 2.00000 14.10000 -12.51000
v 8.20000 14.10000 -12.51000
v 8.20000 14.30000 -12.45000
v 2.00000 14.30000 -12.45000
v 2.10000 7.40000 -14.52000
v 2.30000 7.40000 -14.52000
v 2.30000 14.20000 -12.48000
v 2.10000 14.20000 -12.48000
v 7.90000 7.40000 -14.52000
v 8.10000 7.40000 -14.52000
v 8.10000 14.20000 -12.48000
v 7.90000 14.20000 -12.48000
v -5.00000 11.00000 -13.44000
v -1.35000 11.00000 -13.44000
v -1.42013 11.71208 -13.22638
v -5.00000 11.00000 -13.44000
v -1.42013 11.71208 -13.22638
v -1.62784 12.39679 -13.02096
v -5.00000 11.00000 -13.44000
v -1.62784 12.39679 -13.02096
v -1.96514 13.02783 -12.83165
v -5.00000 11.00000 -13.44000
v -1.96514 13.02783 -12.83165
v -2.41906 13.58094 -12.66572
v -5.00000 11.00000 -13.44000
v -2.41906 13.58094 -12.66572
v -2.97217 14.03486 -12.52954
v -5.00000 11.00000 -13.44000
v -2.97217 14.03486 -12.52954
v -3.60321 14.37216 -12.42835
v -5.00000 11.00000 -13.44000
v -3.60321 14.37216 -12.42835
v -4.28792 14.57987 -12.36604
v -5.00000 11.00000 -13.44000
v -4.28792 14.57987 -12.36604
v -5.00000 14.65000 -12.34500
v -5.00000 11.00000 -13.44000
v -5.00000 14.65000 -12.34500
v -5.71208 14.57987 -12.36604
v -5.00000 11.00000 -13.44000
v -5.71208 14.57987 -12.36604
v -6.39679 14.37216 -12.42835
v -5.00000 11.00000 -13.44000
v -6.39679 14.37216 -12.42835
v -7.02783 14.03486 -12.52954
v -5.00000 11.00000 -13.44000
v -7.02783 14.03486 -12.52954
v -7.58094 13.58094 -12.66572
v -5.00000 11.00000 -13.44000
v -7.58094 13.58094 -12.66572
v -8.03486 13.02783 -12.83165
v -5.00000 11.00000 -13.44000
v -8.03486 13.02783 -12.83165
v -8.37216 12.39679 -13.02096
v -5.00000 11.00000 -13.44000
v -8.37216 12.39679 -13.02096
v -8.57987 11.71208 -13.22638
v -5.00000 11.00000 -13.44000
v -8.57987 11.71208 -13.22638
v -8.65000 11.00000 -13.44000
v -5.00000 11.00000 -13.44000
v -8.65000 11.00000 -13.44000
v -8.57987 10.28792 -13.65362
v -5.00000 11.00000 -13.44000
v -8.57987 10.28792 -13.65362
v -8.37216 9.60321 -13.85904
v -5.00000 11.00000 -13.44000
v -8.37216 9.60321 -13.85904
v -8.03486 8.97217 -14.04835
v -5.00000 11.00000 -13.44000
v -8.03486 8.97217 -14.04835
v -7.58094 8.41906 -14.21428
v -5.00000 11.00000 -13.44000
v -7.58094 8.41906 -14.21428
v -7.02783 7.96514 -14.35046
v -5.00000 11.00000 -13.44000
v -7.02783 7.96514 -14.35046
v -6.39679 7.62784 -14.45165
v -5.00000 11.00000 -13.44000
v -6.39679 7.62784 -14.45165
v -5.71208 7.42013 -14.51396
v -5.00000 11.00000 -13.44000
v -5.71208 7.42013 -14.51396
v -5.00000 7.35000 -14.53500
v -5.00000 11.00000 -13.44000
v -5.00000 7.35000 -14.53500
v -4.28792 7.42013 -14.51396
v -5.00000 11.00000 -13.44000
v -4.28792 7.42013 -14.51396
v -3.60321 7.62784 -14.45165
v -5.00000 11.00000 -13.44000
v -3.60321 7.62784 -14.45165
v -2.97217 7.96514 -14.35046
v -5.00000 11.00000 -13.44000
v -2.97217 7.96514 -14.35046
v -2.41906 8.41906 -14.21428
v -5.00000 11.00000 -13.44000
v -2.41906 8.41906 -14.21428
v -1.96514 8.97217 -14.04835
v -5.00000 11.00000 -13.44000
v -1.96514 8.97217 -14.04835
v -1.62784 9.60321 -13.85904
v -5.00000 11.00000 -13.44000
v -1.62784 9.60321 -13.85904
v -1.42013 10.28792 -13.65362
v -5.00000 11.00000 -13.44000
v -1.42013 10.28792 -13.65362
v -1.35000 11.00000 -13.44000
v -5.21000 10.79000 -13.57300
v -4.79000 10.79000 -13.57300
v -4.79000 11.21000 -13.44700
v -5.21000 11.21000 -13.44700
v -9.95000 3.30000 -15.63000
v -6.45000 3.30000 -15.63000
v -6.45000 5.50000 -14.97000
v -9.95000 5.50000 -14.97000
v 15.95000 1.95000 -14.46900
v 15.95000 1.95000 14.46900
v 15.92000 2.05000 14.46900
v 15.92000 2.05000 -14.46900
v 14.75000 5.95000 -13.37700
v 14.75000 5.95000 13.37700
v 14.72000 6.05000 13.37700
v 14.72000 6.05000 -13.37700
v 13.55000 9.95000 -12.28500
v 13.55000 9.95000 12.28500
v 13.52000 10.05000 12.28500
v 13.52000 10.05000 -12.28500
v 12.35000 13.95000 -11.19300
v 12.35000 13.95000 11.19300
v 12.32000 14.05000 11.19300
v 12.32000 14.05000 -11.19300
v 11.15000 17.95000 -10.10100
v 11.15000 17.95000 10.10100
v 11.12000 18.05000 10.10100
v 11.12000 18.05000 -10.10100
v 14.37000 7.70000 2.50000
v 14.37000 7.70000 7.70000
v 12.51000 13.90000 7.70000
v 12.51000 13.90000 2.50000
v 14.55000 7.30000 2.00000
v 14.55000 7.30000 8.20000
v 14.49000 7.50000 8.20000
v 14.49000 7.50000 2.00000
v 12.51000 14.10000 2.00000
v 12.51000 14.10000 8.20000
v 12.45000 14.30000 8.20000
v 12.45000 14.30000 2.00000
v 14.52000 7.40000 2.10000
v 14.52000 7.40000 2.30000
v 12.48000 14.20000 2.30000
v 12.48000 14.20000 2.10000
v 14.52000 7.40000 7.90000
v 14.52000 7.40000 8.10000
v 12.48000 14.20000 8.10000
v 12.48000 14.20000 7.90000
v 13.44000 11.00000 -5.00000
v 13.44000 11.00000 -1.35000
v 13.22638 11.71208 -1.42013
v 13.44000 11.00000 -5.00000
v 13.22638 11.71208 -1.42013
v 13.02096 12.39679 -1.62784
v 13.44000 11.00000 -5.00000
v 13.02096 12.39679 -1.62784
v 12.83165 13.02783 -1.96514
v 13.44000 11.00000 -5.00000
v 12.83165 13.02783 -1.96514
v 12.66572 13.58094 -2.41906
v 13.44000 11.00000 -5.00000
v 12.66572 13.58094 -2.41906
v 12.52954 14.03486 -2.97217
v 13.44000 11.00000 -5.00000
v 12.52954 14.03486 -2.97217
v 12.42835 14.37216 -3.60321
v 13.44000 11.00000 -5.00000
v 12.42835 14.37216 -3.60321
v 12.36604 14.57987 -4.28792
v 13.44000 11.00000 -5.00000
v 12.36604 14.57987 -4.28792
v 12.34500 14.65000 -5.00000
v 13.44000 11.00000 -5.00000
v 12.34500 14.65000 -5.00000
v 12.36604 14.57987 -5.71208
v 13.44000 11.00000 -5.00000
v 12.36604 14.57987 -5.71208
v 12.42835 14.37216 -6.39679
v 13.44000 11.00000 -5.00000
v 12.42835 14.37216 -6.39679
v 12.52954 14.03486 -7.02783
v 13.44000 11.00000 -5.00000
v 12.52954 14.03486 -7.02783
v 12.66572 13.58094 -7.58094
v 13.44000 11.00000 -5.00000
v 12.66572 13.58094 -7.58094
v 12.83165 13.02783 -8.03486
v 13.44000 11.00000 -5.00000
v 12.83165 13.02783 -8.03486
v 13.02096 12.39679 -8.37216
v 13.44000 11.00000 -5.00000
v 13.02096 12.39679 -8.37216
v 13.22638 11.71208 -8.57987
v 13.44000 11.00000 -5.00000
v 13.22638 11.71208 -8.57987
v 13.44000 11.00000 -8.65000
v 13.44000 11.00000 -5.00000
v 13.44000 11.00000 -8.65000
v 13.65362 10.28792 -8.57987
v 13.44000 11.00000 -5.00000
v 13.65362 10.28792 -8.57987
v 13.85904 9.60321 -8.37216
v 13.44000 11.00000 -5.00000
v 13.85904 9.60321 -8.37216
v 14.04835 8.97217 -8.03486
v 13.44000 11.00000 -5.00000
v 14.04835 8.97217 -8.03486
v 14.21428 8.41906 -7.58094
v 13.44000 11.00000 -5.00000
v 14.21428 8.41906 -7.58094
v 14.35046 7.96514 -7.02783
v 13.44000 11.00000 -5.00000
v 14.35046 7.96514 -7.02783
v 14.45165 7.62784 -6.39679
v 13.44000 11.00000 -5.00000
v 14.45165 7.62784 -6.39679
v 14.51396 7.42013 -5.71208
v 13.44000 11.00000 -5.00000
v 14.51396 7.42013 -5.71208
v 14.53500 7.35000 -5.00000
v 13.44000 11.00000 -5.00000
v 14.53500 7.35000 -5.00000
v 14.51396 7.42013 -4.28792
v 13.44000 11.00000 -5.00000
v 14.51396 7.42013 -4.28792
v 14.45165 7.62784 -3.60321
v 13.44000 11.00000 -5.00000
v 14.45165 7.62784 -3.60321
v 14.35046 7.96514 -2.97217
v 13.44000 11.00000 -5.00000
v 14.35046 7.96514 -2.97217
v 14.21428 8.41906 -2.41906
v 13.44000 11.00000 -5.00000
v 14.21428 8.41906 -2.41906
v 14.04835 8.97217 -1.96514
v 13.44000 11.00000 -5.00000
v 14.04835 8.97217 -1.96514
v 13.85904 9.60321 -1.62784
v 13.44000 11.00000 -5.00000
v 13.85904 9.60321 -1.62784
v 13.65362 10.28792 -1.42013
v 13.44000 11.00000 -5.00000
v 13.65362 10.28792 -1.42013
v 13.44000 11.00000 -1.35000
v 13.57300 10.79000 -5.21000
v 13.57300 10.79000 -4.79000
v 13.44700 11.21000 -4.79000
v 13.44700 11.21000 -5.21000
v 15.63000 3.30000 -9.95000
v 15.63000 3.30000 -6.45000
v 14.97000 5.50000 -6.45000
v 14.97000 5.50000 -9.95000
v 14.46900 1.95000 15.95000
v -14.46900 1.95000 15.95000
v -14.46900 2.05000 15.92000
v 14.46900 2.05000 15.92000
v 13.37700 5.95000 14.75000
v -13.37700 5.95000 14.75000
v -13.37700 6.05000 14.72000
v 13.37700 6.05000 14.72000
v 12.28500 9.95000 13.55000
v -12.28500 9.95000 13.55000
v -12.28500 10.05000 13.52000
v 12.28500 10.05000 13.52000
v 11.19300 13.95000 12.35000
v -11.19300 13.95000 12.35000
v -11.19300 14.05000 12.32000
v 11.19300 14.05000 12.32000
v 10.10100 17.95000 11.15000
v -10.10100 17.95000 11.15000
v -10.10100 18.05000 11.12000
v 10.10100 18.05000 11.12000
v -2.50000 7.70000 14.37000
v -7.70000 7.70000 14.37000
v -7.70000 13.90000 12.51000
v -2.50000 13.90000 12.51000
v -2.00000 7.30000 14.55000
v -8.20000 7.30000 14.55000
v -8.20000 7.50000 14.49000
v -2.00000 7.50000 14.49000
v -2.00000 14.10000 12.51000
v -8.20000 14.10000 12.51000
v -8.20000 14.30000 12.45000
v -2.00000 14.30000 12.45000
v -2.10000 7.40000 14.52000
v -2.30000 7.40000 14.52000
v -2.30000 14.20000 12.48000
v -2.10000 14.20000 12.48000
v -7.90000 7.40000 14.52000
v -8.10000 7.40000 14.52000
v -8.10000 14.20000 12.48000
v -7.90000 14.20000 12.48000
v 5.00000 11.00000 13.44000
v 1.35000 11.00000 13.44000
v 1.42013 11.71208 13.22638
v 5.00000 11.00000 13.44000
v 1.42013 11.71208 13.22638
v 1.62784 12.39679 13.02096
v 5.00000 11.00000 13.44000
v 1.62784 12.39679 13.02096
v 1.96514 13.02783 12.83165
v 5.00000 11.00000 13.44000
v 1.96514 13.02783 12.83165
v 2.41906 13.58094 12.66572
v 5.00000 11.00000 13.44000
v 2.41906 13.58094 12.66572
v 2.97217 14.03486 12.52954
v 5.00000 11.00000 13.44000
v 2.97217 14.03486 12.52954
v 3.60321 14.37216 12.42835
v 5.00000 11.00000 13.44000
v 3.60321 14.37216 12.42835
v 4.28792 14.57987 12.36604
v 5.00000 11.00000 13.44000
v 4.28792 14.57987 12.36604
v 5.00000 14.65000 12.34500
v 5.00000 11.00000 13.44000
v 5.00000 14.65000 12.34500
v 5.71208 14.57987 12.36604
v 5.00000 11.00000 13.44000
v 5.71208 14.57987 12.36604
v 6.39679 14.37216 12.42835
v 5.00000 11.00000 13.44000
v 6.39679 14.37216 12.42835
v 7.02783 14.03486 12.52954
v 5.00000 11.00000 13.44000
v 7.02783 14.03486 12.52954
v 7.58094 13.58094 12.66572
v 5.00000 11.00000 13.44000
v 7.58094 13.58094 12.66572
v 8.03486 13.02783 12.83165
v 5.00000 11.00000 13.44000
v 8.03486 13.02783 12.83165
v 8.37216 12.39679 13.02096
v 5.00000 11.00000 13.44000
v 8.37216 12.39679 13.02096
v 8.57987 11.71208 13.22638
v 5.00000 11.00000 13.44000
v 8.57987 11.71208 13.22638
v 8.65000 11.00000 13.44000
v 5.00000 11.00000 13.44000
v 8.65000 11.00000 13.44000
v 8.57987 10.28792 13.65362
v 5.00000 11.00000 13.44000
v 8.57987 10.28792 13.65362
v 8.37216 9.60321 13.85904
v 5.00000 11.00000 13.44000
v 8.37216 9.60321 13.85904
v 8.03486 8.97217 14.04835
v 5.00000 11.00000 13.44000
v 8.03486 8.97217 14.04835
v 7.58094 8.41906 14.21428
v 5.00000 11.00000 13.44000
v 7.58094 8.41906 14.21428
v 7.02783 7.96514 14.35046
v 5.00000 11.00000 13.44000
v 7.02783 7.96514 14.35046
v 6.39679 7.62784 14.45165
v 5.00000 11.00000 13.44000
v 6.39679 7.62784 14.45165
v 5.71208 7.42013 14.51396
v 5.00000 11.00000 13.44000
v 5.71208 7.42013 14.51396
v 5.00000 7.35000 14.53500
v 5.00000 11.00000 13.44000
v 5.00000 7.35000 14.53500
v 4.28792 7.42013 14.51396
v 5.00000 11.00000 13.44000
v 4.28792 7.42013 14.51396
v 3.60321 7.62784 14.45165
v 5.00000 11.00000 13.44000
v 3.60321 7.62784 14.45165
v 2.97217 7.96514 14.35046
v 5.00000 11.00000 13.44000
v 2.97217 7.96514 14.35046
v 2.41906 8.41906 14.21428
v 5.00000 11.00000 13.44000
v 2.41906 8.41906 14.21428
v 1.96514 8.97217 14.04835
v 5.00000 11.00000 13.44000
v 1.96514 8.97217 14.04835
v 1.62784 9.60321 13.85904
v 5.00000 11.00000 13.44000
v 1.62784 9.60321 13.85904
v 1.42013 10.28792 13.65362
v 5.00000 11.00000 13.44000
v 1.42013 10.28792 13.65362
v 1.35000 11.00000 13.44000
v 5.21000 10.79000 13.57300
v 4.79000 10.79000 13.57300
v 4.79000 11.21000 13.44700
v 5.21000 11.21000 13.44700
v 9.95000 3.30000 15.63000
v 6.45000 3.30000 15.63000
v 6.45000 5.50000 14.97000
v 9.95000 5.50000 14.97000
v -15.95000 1.95000 14.46900
v -15.95000 1.95000 -14.46900
v -15.92000 2.05000 -14.46900
v -15.92000 2.05000 14.46900
v -14.75000 5.95000 13.37700
v -14.75000 5.95000 -13.37700
v -14.72000 6.05000 -13.37700
v -14.72000 6.05000 13.37700
v -13.55000 9.95000 12.28500
v -13.55000 9.95000 -12.28500
v -13.52000 10.05000 -12.28500
v -13.52000 10.05000 12.28500
v -12.35000 13.95000 11.19300
v -12.35000 13.95000 -11.19300
v -12.32000 14.05000 -11.19300
v -12.32000 14.05000 11.19300
v -11.15000 17.95000 10.10100
v -11.15000 17.95000 -10.10100
v -11.12000 18.05000 -10.10100
v -11.12000 18.05000 10.10100
v -14.37000 7.70000 -2.50000
v -14.37000 7.70000 -7.70000
v -12.51000 13.90000 -7.70000
v -12.51000 13.90000 -2.50000
v -14.55000 7.30000 -2.00000
v -14.55000 7.30000 -8.20000
v -14.49000 7.50000 -8.20000
v -14.49000 7.50000 -2.00000
v -12.51000 14.10000 -2.00000
v -12.51000 14.10000 -8.20000
v -12.45000 14.30000 -8.20000
v -12.45000 14.30000 -2.00000
v -14.52000 7.40000 -2.10000
v -14.52000 7.40000 -2.30000
v -12.48000 14.20000 -2.30000
v -12.48000 14.20000 -2.10000
v -14.52000 7.40000 -7.90000
v -14.52000 7.40000 -8.10000
v -12.48000 14.20000 -8.10000
v -12.48000 14.20000 -7.90000
v -13.44000 11.00000 5.00000
v -13.44000 11.00000 1.35000
v -13.22638 11.71208 1.42013
v -13.44000 11.00000 5.00000
v -13.22638 11.71208 1.42013
v -13.02096 12.39679 1.62784
v -13.44000 11.00000 5.00000
v -13.02096 12.39679 1.62784
v -12.83165 13.02783 1.96514
v -13.44000 11.00000 5.00000
v -12.83165 13.02783 1.96514
v -12.66572 13.58094 2.41906
v -13.44000 11.00000 5.00000
v -12.66572 13.58094 2.41906
v -12.52954 14.03486 2.97217
v -13.44000 11.00000 5.00000
v -12.52954 14.03486 2.97217
v -12.42835 14.37216 3.60321
v -13.44000 11.00000 5.00000
v -12.42835 14.37216 3.60321
v -12.36604 14.57987 4.28792
v -13.44000 11.00000 5.00000
v -12.36604 14.57987 4.28792
v -12.34500 14.65000 5.00000
v -13.44000 11.00000 5.00000
v -12.34500 14.65000 5.00000
v -12.36604 14.57987 5.71208
v -13.44000 11.00000 5.00000
v -12.36604 14.57987 5.71208
v -12.42835 14.37216 6.39679
v -13.44000 11.00000 5.00000
v -12.42835 14.37216 6.39679
v -12.52954 14.03486 7.02783
v -13.44000 11.00000 5.00000
v -12.52954 14.03486 7.02783
v -12.66572 13.58094 7.58094
v -13.44000 11.00000 5.00000
v -12.66572 13.58094 7.58094
v -12.83165 13.02783 8.03486
v -13.44000 11.00000 5.00000
v -12.83165 13.02783 8.03486
v -13.02096 12.39679 8.37216
v -13.44000 11.00000 5.00000
v -13.02096 12.39679 8.37216
v -13.22638 11.71208 8.57987
v -13.44000 11.00000 5.00000
v -13.22638 11.71208 8.57987
v -13.44000 11.00000 8.65000
v -13.44000 11.00000 5.00000
v -13.44000 11.00000 8.65000
v -13.65362 10.28792 8.57987
v -13.44000 11.00000 5.00000
v -13.65362 10.28792 8.57987
v -13.85904 9.60321 8.37216
v -13.44000 11.00000 5.00000
v -13.85904 9.60321 8.37216
v -14.04835 8.97217 8.03486
v -13.44000 11.00000 5.00000
v -14.04835 8.97217 8.03486
v -14.21428 8.41906 7.58094
v -13.44000 11.00000 5.00000
v -14.21428 8.41906 7.58094
v -14.35046 7.96514 7.02783
v -13.44000 11.00000 5.00000
v -14.35046 7.96514 7.02783
v -14.45165 7.62784 6.39679
v -13.44000 11.00000 5.00000
v -14.45165 7.62784 6.39679
v -14.51396 7.42013 5.71208
v -13.44000 11.00000 5.00000
v -14.51396 7.42013 5.71208
v -14.53500 7.35000 5.00000
v -13.44000 11.00000 5.00000
v -14.53500 7.35000 5.00000
v -14.51396 7.42013 4.28792
v -13.44000 11.00000 5.00000
v -14.51396 7.42013 4.28792
v -14.45165 7.62784 3.60321
v -13.44000 11.00000 5.00000
v -14.45165 7.62784 3.60321
v -14.35046 7.96514 2.97217
v -13.44000 11.00000 5.00000
v -14.35046 7.96514 2.97217
v -14.21428 8.41906 2.41906
v -13.44000 11.00000 5.00000
v -14.21428 8.41906 2.41906
v -14.04835 8.97217 1.96514
v -13.44000 11.00000 5.00000
v -14.04835 8.97217 1.96514
v -13.85904 9.60321 1.62784
v -13.44000 11.00000 5.00000
v -13.85904 9.60321 1.62784
v -13.65362 10.28792 1.42013
v -13.44000 11.00000 5.00000
v -13.65362 10.28792 1.42013
v -13.44000 11.00000 1.35000
v -13.57300 10.79000 5.21000
v -13.57300 10.79000 4.79000
v -13.44700 11.21000 4.79000
v -13.44700 11.21000 5.21000
v -15.63000 3.30000 9.95000
v -15.63000 3.30000 6.45000
v -14.97000 5.50000 6.45000
v -14.97000 5.50000 9.95000
v 1.60000 0.00000 16.80000
v -1.60000 0.00000 16.80000
v -1.60000 4.50000 15.45000
v 1.60000 4.50000 15.45000
v 2.05000 4.51000 15.48700
v -2.05000 4.51000 15.48700
v -2.05000 4.73000 15.42100
v 2.05000 4.73000 15.42100
v -1.10000 0.20000 16.79000
v -1.20000 0.20000 16.79000
v -1.20000 4.30000 15.56000
v -1.10000 4.30000 15.56000
v -3.20000 20.00000 -3.20000
v 3.20000 20.00000 -3.20000
v 3.20000 22.00000 -3.20000
v -3.20000 22.00000 -3.20000
v 3.20000 20.00000 3.20000
v -3.20000 20.00000 3.20000
v -3.20000 22.00000 3.20000
v 3.20000 22.00000 3.20000
v -3.20000 20.00000 3.20000
v -3.20000 20.00000 -3.20000
v -3.20000 22.00000 -3.20000
v -3.20000 22.00000 3.20000
v 3.20000 20.00000 -3.20000
v 3.20000 20.00000 3.20000
v 3.20000 22.00000 3.20000
v 3.20000 22.00000 -3.20000
v -3.20000 22.00000 -3.20000
v 3.20000 22.00000 -3.20000
v 3.20000 22.00000 3.20000
v -3.20000 22.00000 3.20000
v -3.20000 20.00000 3.20000
v 3.20000 20.00000 3.20000
v 3.20000 20.00000 -3.20000
v -3.20000 20.00000 -3.20000
v -1.10000 22.00000 -1.10000
v 1.10000 22.00000 -1.10000
v 1.10000 23.50000 -1.10000
v -1.10000 23.50000 -1.10000
v 1.10000 22.00000 1.10000
v -1.10000 22.00000 1.10000
v -1.10000 23.50000 1.10000
v 1.10000 23.50000 1.10000
v -1.10000 22.00000 1.10000
v -1.10000 22.00000 -1.10000
v -1.10000 23.50000 -1.10000
v -1.10000 23.50000 1.10000
v 1.10000 22.00000 -1.10000
v 1.10000 22.00000 1.10000
v 1.10000 23.50000 1.10000
v 1.10000 23.50000 -1.10000
v -1.10000 23.50000 -1.10000
v 1.10000 23.50000 -1.10000
v 1.10000 23.50000 1.10000
v -1.10000 23.50000 1.10000
v -1.10000 22.00000 1.10000
v 1.10000 22.00000 1.10000
v 1.10000 22.00000 -1.10000
v -1.10000 22.00000 -1.10000
v -0.14000 23.50000 -0.14000
v 0.14000 23.50000 -0.14000
v 0.14000 25.10000 -0.14000
v -0.14000 25.10000 -0.14000
v 0.14000 23.50000 0.14000
v -0.14000 23.50000 0.14000
v -0.14000 25.10000 0.14000
v 0.14000 25.10000 0.14000
v -0.14000 23.50000 0.14000
v -0.14000 23.50000 -0.14000
v -0.14000 25.10000 -0.14000
v -0.14000 25.10000 0.14000
v 0.14000 23.50000 -0.14000
v 0.14000 23.50000 0.14000
v 0.14000 25.10000 0.14000
v 0.14000 25.10000 -0.14000
v -0.14000 25.10000 -0.14000
v 0.14000 25.10000 -0.14000
v 0.14000 25.10000 0.14000
v -0.14000 25.10000 0.14000
v -0.14000 23.50000 0.14000
v 0.14000 23.50000 0.14000
v 0.14000 23.50000 -0.14000
v -0.14000 23.50000 -0.14000
v -0.90000 24.00000 -0.08000
v 0.90000 24.00000 -0.08000
v 0.90000 24.20000 -0.08000
v -0.90000 24.20000 -0.08000
v 0.90000 24.00000 0.08000
v -0.90000 24.00000 0.08000
v -0.90000 24.20000 0.08000
v 0.90000 24.20000 0.08000
v -0.90000 24.00000 0.08000
v -0.90000 24.00000 -0.08000
v -0.90000 24.20000 -0.08000
v -0.90000 24.20000 0.08000
v 0.90000 24.00000 -0.08000
v 0.90000 24.00000 0.08000
v 0.90000 24.20000 0.08000
v 0.90000 24.20000 -0.08000
v -0.90000 24.20000 -0.08000
v 0.90000 24.20000 -0.08000
v 0.90000 24.20000 0.08000
v -0.90000 24.20000 0.08000
v -0.90000 24.00000 0.08000
v 0.90000 24.00000 0.08000
v 0.90000 24.00000 -0.08000
v -0.90000 24.00000 -0.08000
v -0.08000 23.90000 -0.90000
v 0.08000 23.90000 -0.90000
v 0.08000 24.15000 -0.90000
v -0.08000 24.15000 -0.90000
v 0.08000 23.90000 0.90000
v -0.08000 23.90000 0.90000
v -0.08000 24.15000 0.90000
v 0.08000 24.15000 0.90000
v -0.08000 23.90000 0.90000
v -0.08000 23.90000 -0.90000
v -0.08000 24.15000 -0.90000
v -0.08000 24.15000 0.90000
v 0.08000 23.90000 -0.90000
v 0.08000 23.90000 0.90000
v 0.08000 24.15000 0.90000
v 0.08000 24.15000 -0.90000
v -0.08000 24.15000 -0.90000
v 0.08000 24.15000 -0.90000
v 0.08000 24.15000 0.90000
v -0.08000 24.15000 0.90000
v -0.08000 23.90000 0.90000
v 0.08000 23.90000 0.90000
v 0.08000 23.90000 -0.90000
v -0.08000 23.90000 -0.90000
v 6.80000 20.00000 -0.20000
v 7.20000 20.00000 -0.20000
v 7.20000 22.40000 -0.20000
v 6.80000 22.40000 -0.20000
v 7.20000 20.00000 0.20000
v 6.80000 20.00000 0.20000
v 6.80000 22.40000 0.20000
v 7.20000 22.40000 0.20000
v 6.80000 20.00000 0.20000
v 6.80000 20.00000 -0.20000
v 6.80000 22.40000 -0.20000
v 6.80000 22.40000 0.20000
v 7.20000 20.00000 -0.20000
v 7.20000 20.00000 0.20000
v 7.20000 22.40000 0.20000
v 7.20000 22.40000 -0.20000
v 6.80000 22.40000 -0.20000
v 7.20000 22.40000 -0.20000
v 7.20000 22.40000 0.20000
v 6.80000 22.40000 0.20000
v 6.80000 20.00000 0.20000
v 7.20000 20.00000 0.20000
v 7.20000 20.00000 -0.20000
v 6.80000 20.00000 -0.20000
v 6.45000 22.20000 -0.55000
v 7.55000 22.20000 -0.55000
v 7.55000 22.55000 -0.55000
v 6.45000 22.55000 -0.55000
v 7.55000 22.20000 0.55000
v 6.45000 22.20000 0.55000
v 6.45000 22.55000 0.55000
v 7.55000 22.55000 0.55000
v 6.45000 22.20000 0.55000
v 6.45000 22.20000 -0.55000
v 6.45000 22.55000 -0.55000
v 6.45000 22.55000 0.55000
v 7.55000 22.20000 -0.55000
v 7.55000 22.20000 0.55000
v 7.55000 22.55000 0.55000
v 7.55000 22.55000 -0.55000
v 6.45000 22.55000 -0.55000
v 7.55000 22.55000 -0.55000
v 7.55000 22.55000 0.55000
v 6.45000 22.55000 0.55000
v 6.45000 22.20000 0.55000
v 7.55000 22.20000 0.55000
v 7.55000 22.20000 -0.55000
v 6.45000 22.20000 -0.55000
v -0.20000 20.00000 6.80000
v 0.20000 20.00000 6.80000
v 0.20000 22.40000 6.80000
v -0.20000 22.40000 6.80000
v 0.20000 20.00000 7.20000
v -0.20000 20.00000 7.20000
v -0.20000 22.40000 7.20000
v 0.20000 22.40000 7.20000
v -0.20000 20.00000 7.20000
v -0.20000 20.00000 6.80000
v -0.20000 22.40000 6.80000
v -0.20000 22.40000 7.20000
v 0.20000 20.00000 6.80000
v 0.20000 20.00000 7.20000
v 0.20000 22.40000 7.20000
v 0.20000 22.40000 6.80000
v -0.20000 22.40000 6.80000
v 0.20000 22.40000 6.80000
v 0.20000 22.40000 7.20000
v -0.20000 22.40000 7.20000
v -0.20000 20.00000 7.20000
v 0.20000 20.00000 7.20000
v 0.20000 20.00000 6.80000
v -0.20000 20.00000 6.80000
v -0.55000 22.20000 6.45000
v 0.55000 22.20000 6.45000
v 0.55000 22.55000 6.45000
v -0.55000 22.55000 6.45000
v 0.55000 22.20000 7.55000
v -0.55000 22.20000 7.55000
v -0.55000 22.55000 7.55000
v 0.55000 22.55000 7.55000
v -0.55000 22.20000 7.55000
v -0.55000 22.20000 6.45000
v -0.55000 22.55000 6.45000
v -0.55000 22.55000 7.55000
v 0.55000 22.20000 6.45000
v 0.55000 22.20000 7.55000
v 0.55000 22.55000 7.55000
v 0.55000 22.55000 6.45000
v -0.55000 22.55000 6.45000
v 0.55000 22.55000 6.45000
v 0.55000 22.55000 7.55000
v -0.55000 22.55000 7.55000
v -0.55000 22.20000 7.55000
v 0.55000 22.20000 7.55000
v 0.55000 22.20000 6.45000
v -0.55000 22.20000 6.45000
v -7.20000 20.00000 -0.20000
v -6.80000 20.00000 -0.20000
v -6.80000 22.40000 -0.20000
v -7.20000 22.40000 -0.20000
v -6.80000 20.00000 0.20000
v -7.20000 20.00000 0.20000
v -7.20000 22.40000 0.20000
v -6.80000 22.40000 0.20000
v -7.20000 20.00000 0.20000
v -7.20000 20.00000 -0.20000
v -7.20000 22.40000 -0.20000
v -7.20000 22.40000 0.20000
v -6.80000 20.00000 -0.20000
v -6.80000 20.00000 0.20000
v -6.80000 22.40000 0.20000
v -6.80000 22.40000 -0.20000
v -7.20000 22.40000 -0.20000
v -6.80000 22.40000 -0.20000
v -6.80000 22.40000 0.20000
v -7.20000 22.40000 0.20000
v -7.20000 20.00000 0.20000
v -6.80000 20.00000 0.20000
v -6.80000 20.00000 -0.20000
v -7.20000 20.00000 -0.20000
v -7.55000 22.20000 -0.55000
v -6.45000 22.20000 -0.55000
v -6.45000 22.55000 -0.55000
v -7.55000 22.55000 -0.55000
v -6.45000 22.20000 0.55000
v -7.55000 22.20000 0.55000
v -7.55000 22.55000 0.55000
v -6.45000 22.55000 0.55000
v -7.55000 22.20000 0.55000
v -7.55000 22.20000 -0.55000
v -7.55000 22.55000 -0.55000
v -7.55000 22.55000 0.55000
v -6.45000 22.20000 -0.55000
v -6.45000 22.20000 0.55000
v -6.45000 22.55000 0.55000
v -6.45000 22.55000 -0.55000
v -7.55000 22.55000 -0.55000
v -6.45000 22.55000 -0.55000
v -6.45000 22.55000 0.55000
v -7.55000 22.55000 0.55000
v -7.55000 22.20000 0.55000
v -6.45000 22.20000 0.55000
v -6.45000 22.20000 -0.55000
v -7.55000 22.20000 -0.55000
v -0.20000 20.00000 -7.20000
v 0.20000 20.00000 -7.20000
v 0.20000 22.40000 -7.20000
v -0.20000 22.40000 -7.20000
v 0.20000 20.00000 -6.80000
v -0.20000 20.00000 -6.80000
v -0.20000 22.40000 -6.80000
v 0.20000 22.40000 -6.80000
v -0.20000 20.00000 -6.80000
v -0.20000 20.00000 -7.20000
v -0.20000 22.40000 -7.20000
v -0.20000 22.40000 -6.80000
v 0.20000 20.00000 -7.20000
v 0.20000 20.00000 -6.80000
v 0.20000 22.40000 -6.80000
v 0.20000 22.40000 -7.20000
v -0.20000 22.40000 -7.20000
v 0.20000 22.40000 -7.20000
v 0.20000 22.40000 -6.80000
v -0.20000 22.40000 -6.80000
v -0.20000 20.00000 -6.80000
v 0.20000 20.00000 -6.80000
v 0.20000 20.00000 -7.20000
v -0.20000 20.00000 -7.20000
v -0.55000 22.20000 -7.55000
v 0.55000 22.20000 -7.55000
v 0.55000 22.55000 -7.55000
v -0.55000 22.55000 -7.55000
v 0.55000 22.20000 -6.45000
v -0.55000 22.20000 -6.45000
v -0.55000 22.55000 -6.45000
v 0.55000 22.55000 -6.45000
v -0.55000 22.20000 -6.45000
v -0.55000 22.20000 -7.55000
v -0.55000 22.55000 -7.55000
v -0.55000 22.55000 -6.45000
v 0.55000 22.20000 -7.55000
v 0.55000 22.20000 -6.45000
v 0.55000 22.55000 -6.45000
v 0.55000 22.55000 -7.55000
v -0.55000 22.55000 -7.55000
v 0.55000 22.55000 -7.55000
v 0.55000 22.55000 -6.45000
v -0.55000 22.55000 -6.45000
v -0.55000 22.20000 -6.45000
v 0.55000 22.20000 -6.45000
v 0.55000 22.20000 -7.55000
v -0.55000 22.20000 -7.55000
v -4.25000 18.42500 -11.09250
v 4.25000 18.42500 -11.09250
v 4.25000 18.97500 -10.92750
v -4.25000 18.97500 -10.92750
v -3.23000 18.36000 -11.14200
v -3.07000 18.36000 -11.14200
v -3.07000 19.04000 -10.93800
v -3.23000 19.04000 -10.93800
v -2.18000 18.36000 -11.14200
v -2.02000 18.36000 -11.14200
v -2.02000 19.04000 -10.93800
v -2.18000 19.04000 -10.93800
v -1.13000 18.36000 -11.14200
v -0.97000 18.36000 -11.14200
v -0.97000 19.04000 -10.93800
v -1.13000 19.04000 -10.93800
v -0.08000 18.36000 -11.14200
v 0.08000 18.36000 -11.14200
v 0.08000 19.04000 -10.93800
v -0.08000 19.04000 -10.93800
v 0.97000 18.36000 -11.14200
v 1.13000 18.36000 -11.14200
v 1.13000 19.04000 -10.93800
v 0.97000 19.04000 -10.93800
v 2.02000 18.36000 -11.14200
v 2.18000 18.36000 -11.14200
v 2.18000 19.04000 -10.93800
v 2.02000 19.04000 -10.93800
v 3.07000 18.36000 -11.14200
v 3.23000 18.36000 -11.14200
v 3.23000 19.04000 -10.93800
v 3.07000 19.04000 -10.93800
v 11.09250 18.42500 -4.25000
v 11.09250 18.42500 4.25000
v 10.92750 18.97500 4.25000
v 10.92750 18.97500 -4.25000
v 11.14200 18.36000 -3.23000
v 11.14200 18.36000 -3.07000
v 10.93800 19.04000 -3.07000
v 10.93800 19.04000 -3.23000
v 11.14200 18.36000 -2.18000
v 11.14200 18.36000 -2.02000
v 10.93800 19.04000 -2.02000
v 10.93800 19.04000 -2.18000
v 11.14200 18.36000 -1.13000
v 11.14200 18.36000 -0.97000
v 10.93800 19.04000 -0.97000
v 10.93800 19.04000 -1.13000
v 11.14200 18.36000 -0.08000
v 11.14200 18.36000 0.08000
v 10.93800 19.04000 0.08000
v 10.93800 19.04000 -0.08000
v 11.14200 18.36000 0.97000
v 11.14200 18.36000 1.13000
v 10.93800 19.04000 1.13000
v 10.93800 19.04000 0.97000
v 11.14200 18.36000 2.02000
v 11.14200 18.36000 2.18000
v 10.93800 19.04000 2.18000
v 10.93800 19.04000 2.02000
v 11.14200 18.36000 3.07000
v 11.14200 18.36000 3.23000
v 10.93800 19.04000 3.23000
v 10.93800 19.04000 3.07000
v 4.25000 18.42500 11.09250
v -4.25000 18.42500 11.09250
v -4.25000 18.97500 10.92750
v 4.25000 18.97500 10.92750
v 3.23000 18.36000 11.14200
v 3.07000 18.36000 11.14200
v 3.07000 19.04000 10.93800
v 3.23000 19.04000 10.93800
v 2.18000 18.36000 11.14200
v 2.02000 18.36000 11.14200
v 2.02000 19.04000 10.93800
v 2.18000 19.04000 10.93800
v 1.13000 18.36000 11.14200
v 0.97000 18.36000 11.14200
v 0.97000 19.04000 10.93800
v 1.13000 19.04000 10.93800
v 0.08000 18.36000 11.14200
v -0.08000 18.36000 11.14200
v -0.08000 19.04000 10.93800
v 0.08000 19.04000 10.93800
v -0.97000 18.36000 11.14200
v -1.13000 18.36000 11.14200
v -1.13000 19.04000 10.93800
v -0.97000 19.04000 10.93800
v -2.02000 18.36000 11.14200
v -2.18000 18.36000 11.14200
v -2.18000 19.04000 10.93800
v -2.02000 19.04000 10.93800
v -3.07000 18.36000 11.14200
v -3.23000 18.36000 11.14200
v -3.23000 19.04000 10.93800
v -3.07000 19.04000 10.93800
v -11.09250 18.42500 4.25000
v -11.09250 18.42500 -4.25000
v -10.92750 18.97500 -4.25000
v -10.92750 18.97500 4.25000
v -11.14200 18.36000 3.23000
v -11.14200 18.36000 3.07000
v -10.93800 19.04000 3.07000
v -10.93800 19.04000 3.23000
v -11.14200 18.36000 2.18000
v -11.14200 18.36000 2.02000
v -10.93800 19.04000 2.02000
v -10.93800 19.04000 2.18000
v -11.14200 18.36000 1.13000
v -11.14200 18.36000 0.97000
v -10.93800 19.04000 0.97000
v -10.93800 19.04000 1.13000
v -11.14200 18.36000 0.08000
v -11.14200 18.36000 -0.08000
v -10.93800 19.04000 -0.08000
v -10.93800 19.04000 0.08000
v -11.14200 18.36000 -0.97000
v -11.14200 18.36000 -1.13000
v -10.93800 19.04000 -1.13000
v -10.93800 19.04000 -0.97000
v -11.14200 18.36000 -2.02000
v -11.14200 18.36000 -2.18000
v -10.93800 19.04000 -2.18000
v -10.93800 19.04000 -2.02000
v -11.14200 18.36000 -3.07000
v -11.14200 18.36000 -3.23000
v -10.93800 19.04000 -3.23000
v -10.93800 19.04000 -3.07000
v -1.20000 0.25000 -0.75000
v 1.20000 0.25000 -0.75000
v 1.20000 1.35000 -0.75000
v -1.20000 1.35000 -0.75000
v 1.20000 0.25000 0.75000
v -1.20000 0.25000 0.75000
v -1.20000 1.35000 0.75000
v 1.20000 1.35000 0.75000
v -1.20000 0.25000 0.75000
v -1.20000 0.25000 -0.75000
v -1.20000 1.35000 -0.75000
v -1.20000 1.35000 0.75000
v 1.20000 0.25000 -0.75000
v 1.20000 0.25000 0.75000
v 1.20000 1.35000 0.75000
v 1.20000 1.35000 -0.75000
v -1.20000 1.35000 -0.75000
v 1.20000 1.35000 -0.75000
v 1.20000 1.35000 0.75000
v -1.20000 1.35000 0.75000
v -1.20000 0.25000 0.75000
v 1.20000 0.25000 0.75000
v 1.20000 0.25000 -0.75000
v -1.20000 0.25000 -0.75000
v -0.95000 1.35000 -0.45000
v 0.95000 1.35000 -0.45000
v 0.95000 2.10000 -0.45000
v -0.95000 2.10000 -0.45000
v 0.95000 1.35000 0.45000
v -0.95000 1.35000 0.45000
v -0.95000 2.10000 0.45000
v 0.95000 2.10000 0.45000
v -0.95000 1.35000 0.45000
v -0.95000 1.35000 -0.45000
v -0.95000 2.10000 -0.45000
v -0.95000 2.10000 0.45000
v 0.95000 1.35000 -0.45000
v 0.95000 1.35000 0.45000
v 0.95000 2.10000 0.45000
v 0.95000 2.10000 -0.45000
v -0.95000 2.10000 -0.45000
v 0.95000 2.10000 -0.45000
v 0.95000 2.10000 0.45000
v -0.95000 2.10000 0.45000
v -0.95000 1.35000 0.45000
v 0.95000 1.35000 0.45000
v 0.95000 1.35000 -0.45000
v -0.95000 1.35000 -0.45000
v -0.15000 2.10000 -0.15000
v 0.15000 2.10000 -0.15000
v 0.15000 3.00000 -0.15000
v -0.15000 3.00000 -0.15000
v 0.15000 2.10000 0.15000
v -0.15000 2.10000 0.15000
v -0.15000 3.00000 0.15000
v 0.15000 3.00000 0.15000
v -0.15000 2.10000 0.15000
v -0.15000 2.10000 -0.15000
v -0.15000 3.00000 -0.15000
v -0.15000 3.00000 0.15000
v 0.15000 2.10000 -0.15000
v 0.15000 2.10000 0.15000
v 0.15000 3.00000 0.15000
v 0.15000 3.00000 -0.15000
v -0.15000 3.00000 -0.15000
v 0.15000 3.00000 -0.15000
v 0.15000 3.00000 0.15000
v -0.15000 3.00000 0.15000
v -0.15000 2.10000 0.15000
v 0.15000 2.10000 0.15000
v 0.15000 2.10000 -0.15000
v -0.15000 2.10000 -0.15000
vt 0.01000 0.51000
vt 0.49000 0.51000
vt 0.49000 0.99000
vt 0.01000 0.99000
vt 0.01000 0.51000
vt 0.49000 0.51000
vt 0.49000 0.99000
vt 0.01000 0.99000
vt 0.01000 0.51000
vt 0.49000 0.51000
vt 0.49000 0.99000
vt 0.01000 0.99000
vt 0.01000 0.51000
vt 0.49000 0.51000
vt 0.49000 0.99000
vt 0.01000 0.99000
vt 0.01000 0.51000
vt 0.49000 0.51000
vt 0.49000 0.99000
vt 0.01000 0.99000
vt 0.01000 0.51000
vt 0.49000 0.51000
vt 0.49000 0.99000
vt 0.01000 0.99000
vt 0.01000 0.01000
vt 0.49000 0.01000
vt 0.49000 0.49000
vt 0.01000 0.49000
vt 0.01000 0.01000
vt 0.49000 0.01000
vt 0.49000 0.49000
vt 0.01000 0.49000
vt 0.01000 0.01000
vt 0.49000 0.01000
vt 0.49000 0.49000
vt 0.01000 0.49000
vt 0.01000 0.01000
vt 0.49000 0.01000
vt 0.49000 0.49000
vt 0.01000 0.49000
vt 0.01000 0.01000
vt 0.49000 0.01000
vt 0.49000 0.49000
vt 0.01000 0.49000
vt 0.01000 0.01000
vt 0.49000 0.01000
vt 0.49000 0.49000
vt 0.01000 0.49000
vt 0.01000 0.51000
vt 0.49000 0.51000
vt 0.49000 0.99000
vt 0.01000 0.99000
vt 0.01000 0.51000
vt 0.49000 0.51000
vt 0.49000 0.99000
vt 0.01000 0.99000
vt 0.01000 0.51000
vt 0.49000 0.51000
vt 0.49000 0.99000
vt 0.01000 0.99000
vt 0.01000 0.51000
vt 0.49000 0.51000
vt 0.49000 0.99000
vt 0.01000 0.99000
vt 0.01000 0.51000
vt 0.49000 0.51000
vt 0.49000 0.99000
vt 0.01000 0.99000
vt 0.01000 0.01000
vt 0.49000 0.01000
vt 0.49000 0.49000
vt 0.01000 0.49000
vt 0.01000 0.01000
vt 0.49000 0.01000
vt 0.49000 0.49000
vt 0.01000 0.49000
vt 0.01000 0.01000
vt 0.49000 0.01000
vt 0.49000 0.49000
vt 0.01000 0.49000
vt 0.01000 0.01000
vt 0.49000 0.01000
vt 0.49000 0.49000
vt 0.01000 0.49000
vt 0.01000 0.01000
vt 0.49000 0.01000
vt 0.49000 0.49000
vt 0.01000 0.49000
vt 0.51000 0.51000
vt 0.99000 0.51000
vt 0.99000 0.99000
vt 0.51000 0.99000
vt 0.01000 0.01000
vt 0.49000 0.01000
vt 0.49000 0.49000
vt 0.01000 0.49000
vt 0.01000 0.01000
vt 0.49000 0.01000
vt 0.49000 0.49000
vt 0.01000 0.49000
vt 0.01000 0.01000
vt 0.49000 0.01000
vt 0.49000 0.49000
vt 0.01000 0.49000
vt 0.01000 0.01000
vt 0.49000 0.01000
vt 0.49000 0.49000
vt 0.01000 0.49000
vt 0.75000 0.75000
vt 0.51000 0.51000
vt 0.99000 0.51000
vt 0.75000 0.75000
vt 0.51000 0.51000
vt 0.99000 0.51000
vt 0.75000 0.75000
vt 0.51000 0.51000
vt 0.99000 0.51000
vt 0.75000 0.75000
vt 0.51000 0.51000
vt 0.99000 0.51000
vt 0.75000 0.75000
vt 0.51000 0.51000
vt 0.99000 0.51000
vt 0.75000 0.75000
vt 0.51000 0.51000
vt 0.99000 0.51000
vt 0.75000 0.75000
vt 0.51000 0.51000
vt 0.99000 0.51000
vt 0.75000 0.75000
vt 0.51000 0.51000
vt 0.99000 0.51000
vt 0.75000 0.75000
vt 0.51000 0.51000
vt 0.99000 0.51000
vt 0.75000 0.75000
vt 0.51000 0.51000
vt 0.99000 0.51000
vt 0.75000 0.75000
vt 0.51000 0.51000
vt 0.99000 0.51000
vt 0.75000 0.75000
vt 0.51000 0.51000
vt 0.99000 0.51000
vt 0.75000 0.75000
vt 0.51000 0.51000
vt 0.99000 0.51000
vt 0.75000 0.75000
vt 0.51000 0.51000
vt 0.99000 0.51000
vt 0.75000 0.75000
vt 0.51000 0.51000
vt 0.99000 0.51000
vt 0.75000 0.75000
vt 0.51000 0.51000
vt 0.99000 0.51000
vt 0.75000 0.75000
vt 0.51000 0.51000
vt 0.99000 0.51000
vt 0.75000 0.75000
vt 0.51000 0.51000
vt 0.99000 0.51000
vt 0.75000 0.75000
vt 0.51000 0.51000
vt 0.99000 0.51000
vt 0.75000 0.75000
vt 0.51000 0.51000
vt 0.99000 0.51000
vt 0.75000 0.75000
vt 0.51000 0.51000
vt 0.99000 0.51000
vt 0.75000 0.75000
vt 0.51000 0.51000
vt 0.99000 0.51000
vt 0.75000 0.75000
vt 0.51000 0.51000
vt 0.99000 0.51000
vt 0.75000 0.75000
vt 0.51000 0.51000
vt 0.99000 0.51000
vt 0.75000 0.75000
vt 0.51000 0.51000
vt 0.99000 0.51000
vt 0.75000 0.75000
vt 0.51000 0.51000
vt 0.99000 0.51000
vt 0.75000 0.75000
vt 0.51000 0.51000
vt 0.99000 0.51000
vt 0.75000 0.75000
vt 0.51000 0.51000
vt 0.99000 0.51000
vt 0.75000 0.75000
vt 0.51000 0.51000
vt 0.99000 0.51000
vt 0.75000 0.75000
vt 0.51000 0.51000
vt 0.99000 0.51000
vt 0.75000 0.75000
vt 0.51000 0.51000
vt 0.99000 0.51000
vt 0.75000 0.75000
vt 0.51000 0.51000
vt 0.99000 0.51000
vt 0.51000 0.01000
vt 0.99000 0.01000
vt 0.99000 0.49000
vt 0.51000 0.49000
vt 0.01000 0.01000
vt 0.49000 0.01000
vt 0.49000 0.49000
vt 0.01000 0.49000
vt 0.01000 0.01000
vt 0.49000 0.01000
vt 0.49000 0.49000
vt 0.01000 0.49000
vt 0.01000 0.01000
vt 0.49000 0.01000
vt 0.49000 0.49000
vt 0.01000 0.49000
vt 0.01000 0.01000
vt 0.49000 0.01000
vt 0.49000 0.49000
vt 0.01000 0.49000
vt 0.01000 0.01000
vt 0.49000 0.01000
vt 0.49000 0.49000
vt 0.01000 0.49000
vt 0.01000 0.01000
vt 0.49000 0.01000
vt 0.49000 0.49000
vt 0.01000 0.49000
vt 0.51000 0.51000
vt 0.99000 0.51000
vt 0.99000 0.99000
vt 0.51000 0.99000
vt 0.01000 0.01000
vt 0.49000 0.01000
vt 0.49000 0.49000
vt 0.01000 0.49000
vt 0.01000 0.01000
vt 0.49000 0.01000
vt 0.49000 0.49000
vt 0.01000 0.49000
vt 0.01000 0.01000
vt 0.49000 0.01000
vt 0.49000 0.49000
vt 0.01000 0.49000
vt 0.01000 0.01000
vt 0.49000 0.01000
vt 0.49000 0.49000
vt 0.01000 0.49000
vt 0.75000 0.75000
vt 0.51000 0.51000
vt 0.99000 0.51000
vt 0.75000 0.75000
vt 0.51000 0.51000
vt 0.99000 0.51000
vt 0.75000 0.75000
vt 0.51000 0.51000
vt 0.99000 0.51000
vt 0.75000 0.75000
vt 0.51000 0.51000
vt 0.99000 0.51000
vt 0.75000 0.75000
vt 0.51000 0.51000
vt 0.99000 0.51000
vt 0.75000 0.75000
vt 0.51000 0.51000
vt 0.99000 0.51000
vt 0.75000 0.75000
vt 0.51000 0.51000
vt 0.99000 0.51000
vt 0.75000 0.75000
vt 0.51000 0.51000
vt 0.99000 0.51000
vt 0.75000 0.75000
vt 0.51000 0.51000
vt 0.99000 0.51000
vt 0.75000 0.75000
vt 0.51000 0.51000
vt 0.99000 0.51000
vt 0.75000 0.75000
vt 0.51000 0.51000
vt 0.99000 0.51000
vt 0.75000 0.75000
vt 0.51000 0.51000
vt 0.99000 0.51000
vt 0.75000 0.75000
vt 0.51000 0.51000
vt 0.99000 0.51000
vt 0.75000 0.75000
vt 0.51000 0.51000
vt 0.99000 0.51000
vt 0.75000 0.75000
vt 0.51000 0.51000
vt 0.99000 0.51000
vt 0.75000 0.75000
vt 0.51000 0.51000
vt 0.99000 0.51000
vt 0.75000 0.75000
vt 0.51000 0.51000
vt 0.99000 0.51000
vt 0.75000 0.75000
vt 0.51000 0.51000
vt 0.99000 0.51000
vt 0.75000 0.75000
vt 0.51000 0.51000
vt 0.99000 0.51000
vt 0.75000 0.75000
vt 0.51000 0.51000
vt 0.99000 0.51000
vt 0.75000 0.75000
vt 0.51000 0.51000
vt 0.99000 0.51000
vt 0.75000 0.75000
vt 0.51000 0.51000
vt 0.99000 0.51000
vt 0.75000 0.75000
vt 0.51000 0.51000
vt 0.99000 0.51000
vt 0.75000 0.75000
vt 0.51000 0.51000
vt 0.99000 0.51000
vt 0.75000 0.75000
vt 0.51000 0.51000
vt 0.99000 0.51000
vt 0.75000 0.75000
vt 0.51000 0.51000
vt 0.99000 0.51000
vt 0.75000 0.75000
vt 0.51000 0.51000
vt 0.99000 0.51000
vt 0.75000 0.75000
vt 0.51000 0.51000
vt 0.99000 0.51000
vt 0.75000 0.75000
vt 0.51000 0.51000
vt 0.99000 0.51000
vt 0.75000 0.75000
vt 0.51000 0.51000
vt 0.99000 0.51000
vt 0.75000 0.75000
vt 0.51000 0.51000
vt 0.99000 0.51000
vt 0.75000 0.75000
vt 0.51000 0.51000
vt 0.99000 0.51000
vt 0.51000 0.01000
vt 0.99000 0.01000
vt 0.99000 0.49000
vt 0.51000 0.49000
vt 0.01000 0.01000
vt 0.49000 0.01000
vt 0.49000 0.49000
vt 0.01000 0.49000
vt 0.01000 0.01000
vt 0.49000 0.01000
vt 0.49000 0.49000
vt 0.01000 0.49000
vt 0.01000 0.01000
vt 0.49000 0.01000
vt 0.49000 0.49000
vt 0.01000 0.49000
vt 0.01000 0.01000
vt 0.49000 0.01000
vt 0.49000 0.49000
vt 0.01000 0.49000
vt 0.01000 0.01000
vt 0.49000 0.01000
vt 0.49000 0.49000
vt 0.01000 0.49000
vt 0.01000 0.01000
vt 0.49000 0.01000
vt 0.49000 0.49000
vt 0.01000 0.49000
vt 0.51000 0.51000
vt 0.99000 0.51000
vt 0.99000 0.99000
vt 0.51000 0.99000
vt 0.01000 0.01000
vt 0.49000 0.01000
vt 0.49000 0.49000
vt 0.01000 0.49000
vt 0.01000 0.01000
vt 0.49000 0.01000
vt 0.49000 0.49000
vt 0.01000 0.49000
vt 0.01000 0.01000
vt 0.49000 0.01000
vt 0.49000 0.49000
vt 0.01000 0.49000
vt 0.01000 0.01000
vt 0.49000 0.01000
vt 0.49000 0.49000
vt 0.01000 0.49000
vt 0.75000 0.75000
vt 0.51000 0.51000
vt 0.99000 0.51000
vt 0.75000 0.75000
vt 0.51000 0.51000
vt 0.99000 0.51000
vt 0.75000 0.75000
vt 0.51000 0.51000
vt 0.99000 0.51000
vt 0.75000 0.75000
vt 0.51000 0.51000
vt 0.99000 0.51000
vt 0.75000 0.75000
vt 0.51000 0.51000
vt 0.99000 0.51000
vt 0.75000 0.75000
vt 0.51000 0.51000
vt 0.99000 0.51000
vt 0.75000 0.75000
vt 0.51000 0.51000
vt 0.99000 0.51000
vt 0.75000 0.75000
vt 0.51000 0.51000
vt 0.99000 0.51000
vt 0.75000 0.75000
vt 0.51000 0.51000
vt 0.99000 0.51000
vt 0.75000 0.75000
vt 0.51000 0.51000
vt 0.99000 0.51000
vt 0.75000 0.75000
vt 0.51000 0.51000
vt 0.99000 0.51000
vt 0.75000 0.75000
vt 0.51000 0.51000
vt 0.99000 0.51000
vt 0.75000 0.75000
vt 0.51000 0.51000
vt 0.99000 0.51000
vt 0.75000 0.75000
vt 0.51000 0.51000
vt 0.99000 0.51000
vt 0.75000 0.75000
vt 0.51000 0.51000
vt 0.99000 0.51000
vt 0.75000 0.75000
vt 0.51000 0.51000
vt 0.99000 0.51000
vt 0.75000 0.75000
vt 0.51000 0.51000
vt 0.99000 0.51000
vt 0.75000 0.75000
vt 0.51000 0.51000
vt 0.99000 0.51000
vt 0.75000 0.75000
vt 0.51000 0.51000
vt 0.99000 0.51000
vt 0.75000 0.75000
vt 0.51000 0.51000
vt 0.99000 0.51000
vt 0.75000 0.75000
vt 0.51000 0.51000
vt 0.99000 0.51000
vt 0.75000 0.75000
vt 0.51000 0.51000
vt 0.99000 0.51000
vt 0.75000 0.75000
vt 0.51000 0.51000
vt 0.99000 0.51000
vt 0.75000 0.75000
vt 0.51000 0.51000
vt 0.99000 0.51000
vt 0.75000 0.75000
vt 0.51000 0.51000
vt 0.99000 0.51000
vt 0.75000 0.75000
vt 0.51000 0.51000
vt 0.99000 0.51000
vt 0.75000 0.75000
vt 0.51000 0.51000
vt 0.99000 0.51000
vt 0.75000 0.75000
vt 0.51000 0.51000
vt 0.99000 0.51000
vt 0.75000 0.75000
vt 0.51000 0.51000
vt 0.99000 0.51000
vt 0.75000 0.75000
vt 0.51000 0.51000
vt 0.99000 0.51000
vt 0.75000 0.75000
vt 0.51000 0.51000
vt 0.99000 0.51000
vt 0.75000 0.75000
vt 0.51000 0.51000
vt 0.99000 0.51000
vt 0.51000 0.01000
vt 0.99000 0.01000
vt 0.99000 0.49000
vt 0.51000 0.49000
vt 0.01000 0.01000
vt 0.49000 0.01000
vt 0.49000 0.49000
vt 0.01000 0.49000
vt 0.01000 0.01000
vt 0.49000 0.01000
vt 0.49000 0.49000
vt 0.01000 0.49000
vt 0.01000 0.01000
vt 0.49000 0.01000
vt 0.49000 0.49000
vt 0.01000 0.49000
vt 0.01000 0.01000
vt 0.49000 0.01000
vt 0.49000 0.49000
vt 0.01000 0.49000
vt 0.01000 0.01000
vt 0.49000 0.01000
vt 0.49000 0.49000
vt 0.01000 0.49000
vt 0.01000 0.01000
vt 0.49000 0.01000
vt 0.49000 0.49000
vt 0.01000 0.49000
vt 0.51000 0.51000
vt 0.99000 0.51000
vt 0.99000 0.99000
vt 0.51000 0.99000
vt 0.01000 0.01000
vt 0.49000 0.01000
vt 0.49000 0.49000
vt 0.01000 0.49000
vt 0.01000 0.01000
vt 0.49000 0.01000
vt 0.49000 0.49000
vt 0.01000 0.49000
vt 0.01000 0.01000
vt 0.49000 0.01000
vt 0.49000 0.49000
vt 0.01000 0.49000
vt 0.01000 0.01000
vt 0.49000 0.01000
vt 0.49000 0.49000
vt 0.01000 0.49000
vt 0.75000 0.75000
vt 0.51000 0.51000
vt 0.99000 0.51000
vt 0.75000 0.75000
vt 0.51000 0.51000
vt 0.99000 0.51000
vt 0.75000 0.75000
vt 0.51000 0.51000
vt 0.99000 0.51000
vt 0.75000 0.75000
vt 0.51000 0.51000
vt 0.99000 0.51000
vt 0.75000 0.75000
vt 0.51000 0.51000
vt 0.99000 0.51000
vt 0.75000 0.75000
vt 0.51000 0.51000
vt 0.99000 0.51000
vt 0.75000 0.75000
vt 0.51000 0.51000
vt 0.99000 0.51000
vt 0.75000 0.75000
vt 0.51000 0.51000
vt 0.99000 0.51000
vt 0.75000 0.75000
vt 0.51000 0.51000
vt 0.99000 0.51000
vt 0.75000 0.75000
vt 0.51000 0.51000
vt 0.99000 0.51000
vt 0.75000 0.75000
vt 0.51000 0.51000
vt 0.99000 0.51000
vt 0.75000 0.75000
vt 0.51000 0.51000
vt 0.99000 0.51000
vt 0.75000 0.75000
vt 0.51000 0.51000
vt 0.99000 0.51000
vt 0.75000 0.75000
vt 0.51000 0.51000
vt 0.99000 0.51000
vt 0.75000 0.75000
vt 0.51000 0.51000
vt 0.99000 0.51000
vt 0.75000 0.75000
vt 0.51000 0.51000
vt 0.99000 0.51000
vt 0.75000 0.75000
vt 0.51000 0.51000
vt 0.99000 0.51000
vt 0.75000 0.75000
vt 0.51000 0.51000
vt 0.99000 0.51000
vt 0.75000 0.75000
vt 0.51000 0.51000
vt 0.99000 0.51000
vt 0.75000 0.75000
vt 0.51000 0.51000
vt 0.99000 0.51000
vt 0.75000 0.75000
vt 0.51000 0.51000
vt 0.99000 0.51000
vt 0.75000 0.75000
vt 0.51000 0.51000
vt 0.99000 0.51000
vt 0.75000 0.75000
vt 0.51000 0.51000
vt 0.99000 0.51000
vt 0.75000 0.75000
vt 0.51000 0.51000
vt 0.99000 0.51000
vt 0.75000 0.75000
vt 0.51000 0.51000
vt 0.99000 0.51000
vt 0.75000 0.75000
vt 0.51000 0.51000
vt 0.99000 0.51000
vt 0.75000 0.75000
vt 0.51000 0.51000
vt 0.99000 0.51000
vt 0.75000 0.75000
vt 0.51000 0.51000
vt 0.99000 0.51000
vt 0.75000 0.75000
vt 0.51000 0.51000
vt 0.99000 0.51000
vt 0.75000 0.75000
vt 0.51000 0.51000
vt 0.99000 0.51000
vt 0.75000 0.75000
vt 0.51000 0.51000
vt 0.99000 0.51000
vt 0.75000 0.75000
vt 0.51000 0.51000
vt 0.99000 0.51000
vt 0.51000 0.01000
vt 0.99000 0.01000
vt 0.99000 0.49000
vt 0.51000 0.49000
vt 0.01000 0.01000
vt 0.49000 0.01000
vt 0.49000 0.49000
vt 0.01000 0.49000
vt 0.01000 0.01000
vt 0.49000 0.01000
vt 0.49000 0.49000
vt 0.01000 0.49000
vt 0.51000 0.01000
vt 0.99000 0.01000
vt 0.99000 0.49000
vt 0.51000 0.49000
vt 0.51000 0.01000
vt 0.99000 0.01000
vt 0.99000 0.49000
vt 0.51000 0.49000
vt 0.01000 0.51000
vt 0.49000 0.51000
vt 0.49000 0.99000
vt 0.01000 0.99000
vt 0.01000 0.51000
vt 0.49000 0.51000
vt 0.49000 0.99000
vt 0.01000 0.99000
vt 0.01000 0.51000
vt 0.49000 0.51000
vt 0.49000 0.99000
vt 0.01000 0.99000
vt 0.01000 0.51000
vt 0.49000 0.51000
vt 0.49000 0.99000
vt 0.01000 0.99000
vt 0.01000 0.51000
vt 0.49000 0.51000
vt 0.49000 0.99000
vt 0.01000 0.99000
vt 0.01000 0.51000
vt 0.49000 0.51000
vt 0.49000 0.99000
vt 0.01000 0.99000
vt 0.01000 0.01000
vt 0.49000 0.01000
vt 0.49000 0.49000
vt 0.01000 0.49000
vt 0.01000 0.01000
vt 0.49000 0.01000
vt 0.49000 0.49000
vt 0.01000 0.49000
vt 0.01000 0.01000
vt 0.49000 0.01000
vt 0.49000 0.49000
vt 0.01000 0.49000
vt 0.01000 0.01000
vt 0.49000 0.01000
vt 0.49000 0.49000
vt 0.01000 0.49000
vt 0.01000 0.01000
vt 0.49000 0.01000
vt 0.49000 0.49000
vt 0.01000 0.49000
vt 0.01000 0.01000
vt 0.49000 0.01000
vt 0.49000 0.49000
vt 0.01000 0.49000
vt 0.01000 0.01000
vt 0.49000 0.01000
vt 0.49000 0.49000
vt 0.01000 0.49000
vt 0.01000 0.01000
vt 0.49000 0.01000
vt 0.49000 0.49000
vt 0.01000 0.49000
vt 0.01000 0.01000
vt 0.49000 0.01000
vt 0.49000 0.49000
vt 0.01000 0.49000
vt 0.01000 0.01000
vt 0.49000 0.01000
vt 0.49000 0.49000
vt 0.01000 0.49000
vt 0.01000 0.01000
vt 0.49000 0.01000
vt 0.49000 0.49000
vt 0.01000 0.49000
vt 0.01000 0.01000
vt 0.49000 0.01000
vt 0.49000 0.49000
vt 0.01000 0.49000
vt 0.01000 0.01000
vt 0.49000 0.01000
vt 0.49000 0.49000
vt 0.01000 0.49000
vt 0.01000 0.01000
vt 0.49000 0.01000
vt 0.49000 0.49000
vt 0.01000 0.49000
vt 0.01000 0.01000
vt 0.49000 0.01000
vt 0.49000 0.49000
vt 0.01000 0.49000
vt 0.01000 0.01000
vt 0.49000 0.01000
vt 0.49000 0.49000
vt 0.01000 0.49000
vt 0.01000 0.01000
vt 0.49000 0.01000
vt 0.49000 0.49000
vt 0.01000 0.49000
vt 0.01000 0.01000
vt 0.49000 0.01000
vt 0.49000 0.49000
vt 0.01000 0.49000
vt 0.01000 0.01000
vt 0.49000 0.01000
vt 0.49000 0.49000
vt 0.01000 0.49000
vt 0.01000 0.01000
vt 0.49000 0.01000
vt 0.49000 0.49000
vt 0.01000 0.49000
vt 0.01000 0.01000
vt 0.49000 0.01000
vt 0.49000 0.49000
vt 0.01000 0.49000
vt 0.01000 0.01000
vt 0.49000 0.01000
vt 0.49000 0.49000
vt 0.01000 0.49000
vt 0.01000 0.01000
vt 0.49000 0.01000
vt 0.49000 0.49000
vt 0.01000 0.49000
vt 0.01000 0.01000
vt 0.49000 0.01000
vt 0.49000 0.49000
vt 0.01000 0.49000
vt 0.01000 0.01000
vt 0.49000 0.01000
vt 0.49000 0.49000
vt 0.01000 0.49000
vt 0.01000 0.01000
vt 0.49000 0.01000
vt 0.49000 0.49000
vt 0.01000 0.49000
vt 0.01000 0.01000
vt 0.49000 0.01000
vt 0.49000 0.49000
vt 0.01000 0.49000
vt 0.01000 0.01000
vt 0.49000 0.01000
vt 0.49000 0.49000
vt 0.01000 0.49000
vt 0.01000 0.01000
vt 0.49000 0.01000
vt 0.49000 0.49000
vt 0.01000 0.49000
vt 0.01000 0.01000
vt 0.49000 0.01000
vt 0.49000 0.49000
vt 0.01000 0.49000
vt 0.51000 0.01000
vt 0.99000 0.01000
vt 0.99000 0.49000
vt 0.51000 0.49000
vt 0.51000 0.01000
vt 0.99000 0.01000
vt 0.99000 0.49000
vt 0.51000 0.49000
vt 0.51000 0.01000
vt 0.99000 0.01000
vt 0.99000 0.49000
vt 0.51000 0.49000
vt 0.51000 0.01000
vt 0.99000 0.01000
vt 0.99000 0.49000
vt 0.51000 0.49000
vt 0.51000 0.01000
vt 0.99000 0.01000
vt 0.99000 0.49000
vt 0.51000 0.49000
vt 0.51000 0.01000
vt 0.99000 0.01000
vt 0.99000 0.49000
vt 0.51000 0.49000
vt 0.01000 0.01000
vt 0.49000 0.01000
vt 0.49000 0.49000
vt 0.01000 0.49000
vt 0.01000 0.01000
vt 0.49000 0.01000
vt 0.49000 0.49000
vt 0.01000 0.49000
vt 0.01000 0.01000
vt 0.49000 0.01000
vt 0.49000 0.49000
vt 0.01000 0.49000
vt 0.01000 0.01000
vt 0.49000 0.01000
vt 0.49000 0.49000
vt 0.01000 0.49000
vt 0.01000 0.01000
vt 0.49000 0.01000
vt 0.49000 0.49000
vt 0.01000 0.49000
vt 0.01000 0.01000
vt 0.49000 0.01000
vt 0.49000 0.49000
vt 0.01000 0.49000
vt 0.51000 0.01000
vt 0.99000 0.01000
vt 0.99000 0.49000
vt 0.51000 0.49000
vt 0.51000 0.01000
vt 0.99000 0.01000
vt 0.99000 0.49000
vt 0.51000 0.49000
vt 0.51000 0.01000
vt 0.99000 0.01000
vt 0.99000 0.49000
vt 0.51000 0.49000
vt 0.51000 0.01000
vt 0.99000 0.01000
vt 0.99000 0.49000
vt 0.51000 0.49000
vt 0.51000 0.01000
vt 0.99000 0.01000
vt 0.99000 0.49000
vt 0.51000 0.49000
vt 0.51000 0.01000
vt 0.99000 0.01000
vt 0.99000 0.49000
vt 0.51000 0.49000
vt 0.01000 0.01000
vt 0.49000 0.01000
vt 0.49000 0.49000
vt 0.01000 0.49000
vt 0.01000 0.01000
vt 0.49000 0.01000
vt 0.49000 0.49000
vt 0.01000 0.49000
vt 0.01000 0.01000
vt 0.49000 0.01000
vt 0.49000 0.49000
vt 0.01000 0.49000
vt 0.01000 0.01000
vt 0.49000 0.01000
vt 0.49000 0.49000
vt 0.01000 0.49000
vt 0.01000 0.01000
vt 0.49000 0.01000
vt 0.49000 0.49000
vt 0.01000 0.49000
vt 0.01000 0.01000
vt 0.49000 0.01000
vt 0.49000 0.49000
vt 0.01000 0.49000
vt 0.51000 0.01000
vt 0.99000 0.01000
vt 0.99000 0.49000
vt 0.51000 0.49000
vt 0.51000 0.01000
vt 0.99000 0.01000
vt 0.99000 0.49000
vt 0.51000 0.49000
vt 0.51000 0.01000
vt 0.99000 0.01000
vt 0.99000 0.49000
vt 0.51000 0.49000
vt 0.51000 0.01000
vt 0.99000 0.01000
vt 0.99000 0.49000
vt 0.51000 0.49000
vt 0.51000 0.01000
vt 0.99000 0.01000
vt 0.99000 0.49000
vt 0.51000 0.49000
vt 0.51000 0.01000
vt 0.99000 0.01000
vt 0.99000 0.49000
vt 0.51000 0.49000
vt 0.01000 0.01000
vt 0.49000 0.01000
vt 0.49000 0.49000
vt 0.01000 0.49000
vt 0.01000 0.01000
vt 0.49000 0.01000
vt 0.49000 0.49000
vt 0.01000 0.49000
vt 0.01000 0.01000
vt 0.49000 0.01000
vt 0.49000 0.49000
vt 0.01000 0.49000
vt 0.01000 0.01000
vt 0.49000 0.01000
vt 0.49000 0.49000
vt 0.01000 0.49000
vt 0.01000 0.01000
vt 0.49000 0.01000
vt 0.49000 0.49000
vt 0.01000 0.49000
vt 0.01000 0.01000
vt 0.49000 0.01000
vt 0.49000 0.49000
vt 0.01000 0.49000
vt 0.51000 0.01000
vt 0.99000 0.01000
vt 0.99000 0.49000
vt 0.51000 0.49000
vt 0.51000 0.01000
vt 0.99000 0.01000
vt 0.99000 0.49000
vt 0.51000 0.49000
vt 0.51000 0.01000
vt 0.99000 0.01000
vt 0.99000 0.49000
vt 0.51000 0.49000
vt 0.51000 0.01000
vt 0.99000 0.01000
vt 0.99000 0.49000
vt 0.51000 0.49000
vt 0.51000 0.01000
vt 0.99000 0.01000
vt 0.99000 0.49000
vt 0.51000 0.49000
vt 0.51000 0.01000
vt 0.99000 0.01000
vt 0.99000 0.49000
vt 0.51000 0.49000
vt 0.01000 0.01000
vt 0.49000 0.01000
vt 0.49000 0.49000
vt 0.01000 0.49000
vt 0.51000 0.01000
vt 0.99000 0.01000
vt 0.99000 0.49000
vt 0.51000 0.49000
vt 0.51000 0.01000
vt 0.99000 0.01000
vt 0.99000 0.49000
vt 0.51000 0.49000
vt 0.51000 0.01000
vt 0.99000 0.01000
vt 0.99000 0.49000
vt 0.51000 0.49000
vt 0.51000 0.01000
vt 0.99000 0.01000
vt 0.99000 0.49000
vt 0.51000 0.49000
vt 0.51000 0.01000
vt 0.99000 0.01000
vt 0.99000 0.49000
vt 0.51000 0.49000
vt 0.51000 0.01000
vt 0.99000 0.01000
vt 0.99000 0.49000
vt 0.51000 0.49000
vt 0.51000 0.01000
vt 0.99000 0.01000
vt 0.99000 0.49000
vt 0.51000 0.49000
vt 0.01000 0.01000
vt 0.49000 0.01000
vt 0.49000 0.49000
vt 0.01000 0.49000
vt 0.51000 0.01000
vt 0.99000 0.01000
vt 0.99000 0.49000
vt 0.51000 0.49000
vt 0.51000 0.01000
vt 0.99000 0.01000
vt 0.99000 0.49000
vt 0.51000 0.49000
vt 0.51000 0.01000
vt 0.99000 0.01000
vt 0.99000 0.49000
vt 0.51000 0.49000
vt 0.51000 0.01000
vt 0.99000 0.01000
vt 0.99000 0.49000
vt 0.51000 0.49000
vt 0.51000 0.01000
vt 0.99000 0.01000
vt 0.99000 0.49000
vt 0.51000 0.49000
vt 0.51000 0.01000
vt 0.99000 0.01000
vt 0.99000 0.49000
vt 0.51000 0.49000
vt 0.51000 0.01000
vt 0.99000 0.01000
vt 0.99000 0.49000
vt 0.51000 0.49000
vt 0.01000 0.01000
vt 0.49000 0.01000
vt 0.49000 0.49000
vt 0.01000 0.49000
vt 0.51000 0.01000
vt 0.99000 0.01000
vt 0.99000 0.49000
vt 0.51000 0.49000
vt 0.51000 0.01000
vt 0.99000 0.01000
vt 0.99000 0.49000
vt 0.51000 0.49000
vt 0.51000 0.01000
vt 0.99000 0.01000
vt 0.99000 0.49000
vt 0.51000 0.49000
vt 0.51000 0.01000
vt 0.99000 0.01000
vt 0.99000 0.49000
vt 0.51000 0.49000
vt 0.51000 0.01000
vt 0.99000 0.01000
vt 0.99000 0.49000
vt 0.51000 0.49000
vt 0.51000 0.01000
vt 0.99000 0.01000
vt 0.99000 0.49000
vt 0.51000 0.49000
vt 0.51000 0.01000
vt 0.99000 0.01000
vt 0.99000 0.49000
vt 0.51000 0.49000
vt 0.01000 0.01000
vt 0.49000 0.01000
vt 0.49000 0.49000
vt 0.01000 0.49000
vt 0.51000 0.01000
vt 0.99000 0.01000
vt 0.99000 0.49000
vt 0.51000 0.49000
vt 0.51000 0.01000
vt 0.99000 0.01000
vt 0.99000 0.49000
vt 0.51000 0.49000
vt 0.51000 0.01000
vt 0.99000 0.01000
vt 0.99000 0.49000
vt 0.51000 0.49000
vt 0.51000 0.01000
vt 0.99000 0.01000
vt 0.99000 0.49000
vt 0.51000 0.49000
vt 0.51000 0.01000
vt 0.99000 0.01000
vt 0.99000 0.49000
vt 0.51000 0.49000
vt 0.51000 0.01000
vt 0.99000 0.01000
vt 0.99000 0.49000
vt 0.51000 0.49000
vt 0.51000 0.01000
vt 0.99000 0.01000
vt 0.99000 0.49000
vt 0.51000 0.49000
vt 0.01000 0.01000
vt 0.49000 0.01000
vt 0.49000 0.49000
vt 0.01000 0.49000
vt 0.01000 0.01000
vt 0.49000 0.01000
vt 0.49000 0.49000
vt 0.01000 0.49000
vt 0.01000 0.01000
vt 0.49000 0.01000
vt 0.49000 0.49000
vt 0.01000 0.49000
vt 0.01000 0.01000
vt 0.49000 0.01000
vt 0.49000 0.49000
vt 0.01000 0.49000
vt 0.01000 0.01000
vt 0.49000 0.01000
vt 0.49000 0.49000
vt 0.01000 0.49000
vt 0.01000 0.01000
vt 0.49000 0.01000
vt 0.49000 0.49000
vt 0.01000 0.49000
vt 0.51000 0.51000
vt 0.99000 0.51000
vt 0.99000 0.99000
vt 0.51000 0.99000
vt 0.51000 0.51000
vt 0.99000 0.51000
vt 0.99000 0.99000
vt 0.51000 0.99000
vt 0.51000 0.51000
vt 0.99000 0.51000
vt 0.99000 0.99000
vt 0.51000 0.99000
vt 0.51000 0.51000
vt 0.99000 0.51000
vt 0.99000 0.99000
vt 0.51000 0.99000
vt 0.51000 0.51000
vt 0.99000 0.51000
vt 0.99000 0.99000
vt 0.51000 0.99000
vt 0.51000 0.51000
vt 0.99000 0.51000
vt 0.99000 0.99000
vt 0.51000 0.99000
vt 0.51000 0.01000
vt 0.99000 0.01000
vt 0.99000 0.49000
vt 0.51000 0.49000
vt 0.51000 0.01000
vt 0.99000 0.01000
vt 0.99000 0.49000
vt 0.51000 0.49000
vt 0.51000 0.01000
vt 0.99000 0.01000
vt 0.99000 0.49000
vt 0.51000 0.49000
vt 0.51000 0.01000
vt 0.99000 0.01000
vt 0.99000 0.49000
vt 0.51000 0.49000
vt 0.51000 0.01000
vt 0.99000 0.01000
vt 0.99000 0.49000
vt 0.51000 0.49000
vt 0.51000 0.01000
vt 0.99000 0.01000
vt 0.99000 0.49000
vt 0.51000 0.49000
g Body
f 1/1 2/2 3/3 4/4
f 5/5 6/6 7/7 8/8
f 9/9 10/10 11/11 12/12
f 13/13 14/14 15/15 16/16
f 17/17 18/18 19/19 20/20
f 21/21 22/22 23/23 24/24
f 25/25 26/26 27/27 28/28
f 29/29 30/30 31/31 32/32
f 33/33 34/34 35/35 36/36
f 37/37 38/38 39/39 40/40
f 41/41 42/42 43/43 44/44
f 45/45 46/46 47/47 48/48
f 49/49 50/50 51/51 52/52
f 53/53 54/54 55/55 56/56
f 57/57 58/58 59/59 60/60
f 61/61 62/62 63/63 64/64
f 65/65 66/66 67/67 68/68
f 69/69 70/70 71/71 72/72
f 73/73 74/74 75/75 76/76
f 77/77 78/78 79/79 80/80
f 81/81 82/82 83/83 84/84
f 85/85 86/86 87/87 88/88
f 89/89 90/90 91/91 92/92
f 93/93 94/94 95/95 96/96
f 97/97 98/98 99/99 100/100
f 101/101 102/102 103/103 104/104
f 105/105 106/106 107/107 108/108
f 109/109 110/110 111/111 111/111
f 112/112 113/113 114/114 114/114
f 115/115 116/116 117/117 117/117
f 118/118 119/119 120/120 120/120
f 121/121 122/122 123/123 123/123
f 124/124 125/125 126/126 126/126
f 127/127 128/128 129/129 129/129
f 130/130 131/131 132/132 132/132
f 133/133 134/134 135/135 135/135
f 136/136 137/137 138/138 138/138
f 139/139 140/140 141/141 141/141
f 142/142 143/143 144/144 144/144
f 145/145 146/146 147/147 147/147
f 148/148 149/149 150/150 150/150
f 151/151 152/152 153/153 153/153
f 154/154 155/155 156/156 156/156
f 157/157 158/158 159/159 159/159
f 160/160 161/161 162/162 162/162
f 163/163 164/164 165/165 165/165
f 166/166 167/167 168/168 168/168
f 169/169 170/170 171/171 171/171
f 172/172 173/173 174/174 174/174
f 175/175 176/176 177/177 177/177
f 178/178 179/179 180/180 180/180
f 181/181 182/182 183/183 183/183
f 184/184 185/185 186/186 186/186
f 187/187 188/188 189/189 189/189
f 190/190 191/191 192/192 192/192
f 193/193 194/194 195/195 195/195
f 196/196 197/197 198/198 198/198
f 199/199 200/200 201/201 201/201
f 202/202 203/203 204/204 204/204
f 205/205 206/206 207/207 208/208
f 209/209 210/210 211/211 212/212
f 213/213 214/214 215/215 216/216
f 217/217 218/218 219/219 220/220
f 221/221 222/222 223/223 224/224
f 225/225 226/226 227/227 228/228
f 229/229 230/230 231/231 232/232
f 233/233 234/234 235/235 236/236
f 237/237 238/238 239/239 240/240
f 241/241 242/242 243/243 244/244
f 245/245 246/246 247/247 248/248
f 249/249 250/250 251/251 252/252
f 253/253 254/254 255/255 255/255
f 256/256 257/257 258/258 258/258
f 259/259 260/260 261/261 261/261
f 262/262 263/263 264/264 264/264
f 265/265 266/266 267/267 267/267
f 268/268 269/269 270/270 270/270
f 271/271 272/272 273/273 273/273
f 274/274 275/275 276/276 276/276
f 277/277 278/278 279/279 279/279
f 280/280 281/281 282/282 282/282
f 283/283 284/284 285/285 285/285
f 286/286 287/287 288/288 288/288
f 289/289 290/290 291/291 291/291
f 292/292 293/293 294/294 294/294
f 295/295 296/296 297/297 297/297
f 298/298 299/299 300/300 300/300
f 301/301 302/302 303/303 303/303
f 304/304 305/305 306/306 306/306
f 307/307 308/308 309/309 309/309
f 310/310 311/311 312/312 312/312
f 313/313 314/314 315/315 315/315
f 316/316 317/317 318/318 318/318
f 319/319 320/320 321/321 321/321
f 322/322 323/323 324/324 324/324
f 325/325 326/326 327/327 327/327
f 328/328 329/329 330/330 330/330
f 331/331 332/332 333/333 333/333
f 334/334 335/335 336/336 336/336
f 337/337 338/338 339/339 339/339
f 340/340 341/341 342/342 342/342
f 343/343 344/344 345/345 345/345
f 346/346 347/347 348/348 348/348
f 349/349 350/350 351/351 352/352
f 353/353 354/354 355/355 356/356
f 357/357 358/358 359/359 360/360
f 361/361 362/362 363/363 364/364
f 365/365 366/366 367/367 368/368
f 369/369 370/370 371/371 372/372
f 373/373 374/374 375/375 376/376
f 377/377 378/378 379/379 380/380
f 381/381 382/382 383/383 384/384
f 385/385 386/386 387/387 388/388
f 389/389 390/390 391/391 392/392
f 393/393 394/394 395/395 396/396
f 397/397 398/398 399/399 399/399
f 400/400 401/401 402/402 402/402
f 403/403 404/404 405/405 405/405
f 406/406 407/407 408/408 408/408
f 409/409 410/410 411/411 411/411
f 412/412 413/413 414/414 414/414
f 415/415 416/416 417/417 417/417
f 418/418 419/419 420/420 420/420
f 421/421 422/422 423/423 423/423
f 424/424 425/425 426/426 426/426
f 427/427 428/428 429/429 429/429
f 430/430 431/431 432/432 432/432
f 433/433 434/434 435/435 435/435
f 436/436 437/437 438/438 438/438
f 439/439 440/440 441/441 441/441
f 442/442 443/443 444/444 444/444
f 445/445 446/446 447/447 447/447
f 448/448 449/449 450/450 450/450
f 451/451 452/452 453/453 453/453
f 454/454 455/455 456/456 456/456
f 457/457 458/458 459/459 459/459
f 460/460 461/461 462/462 462/462
f 463/463 464/464 465/465 465/465
f 466/466 467/467 468/468 468/468
f 469/469 470/470 471/471 471/471
f 472/472 473/473 474/474 474/474
f 475/475 476/476 477/477 477/477
f 478/478 479/479 480/480 480/480
f 481/481 482/482 483/483 483/483
f 484/484 485/485 486/486 486/486
f 487/487 488/488 489/489 489/489
f 490/490 491/491 492/492 492/492
f 493/493 494/494 495/495 496/496
f 497/497 498/498 499/499 500/500
f 501/501 502/502 503/503 504/504
f 505/505 506/506 507/507 508/508
f 509/509 510/510 511/511 512/512
f 513/513 514/514 515/515 516/516
f 517/517 518/518 519/519 520/520
f 521/521 522/522 523/523 524/524
f 525/525 526/526 527/527 528/528
f 529/529 530/530 531/531 532/532
f 533/533 534/534 535/535 536/536
f 537/537 538/538 539/539 540/540
f 541/541 542/542 543/543 543/543
f 544/544 545/545 546/546 546/546
f 547/547 548/548 549/549 549/549
f 550/550 551/551 552/552 552/552
f 553/553 554/554 555/555 555/555
f 556/556 557/557 558/558 558/558
f 559/559 560/560 561/561 561/561
f 562/562 563/563 564/564 564/564
f 565/565 566/566 567/567 567/567
f 568/568 569/569 570/570 570/570
f 571/571 572/572 573/573 573/573
f 574/574 575/575 576/576 576/576
f 577/577 578/578 579/579 579/579
f 580/580 581/581 582/582 582/582
f 583/583 584/584 585/585 585/585
f 586/586 587/587 588/588 588/588
f 589/589 590/590 591/591 591/591
f 592/592 593/593 594/594 594/594
f 595/595 596/596 597/597 597/597
f 598/598 599/599 600/600 600/600
f 601/601 602/602 603/603 603/603
f 604/604 605/605 606/606 606/606
f 607/607 608/608 609/609 609/609
f 610/610 611/611 612/612 612/612
f 613/613 614/614 615/615 615/615
f 616/616 617/617 618/618 618/618
f 619/619 620/620 621/621 621/621
f 622/622 623/623 624/624 624/624
f 625/625 626/626 627/627 627/627
f 628/628 629/629 630/630 630/630
f 631/631 632/632 633/633 633/633
f 634/634 635/635 636/636 636/636
f 637/637 638/638 639/639 640/640
f 641/641 642/642 643/643 644/644
f 645/645 646/646 647/647 648/648
f 649/649 650/650 651/651 652/652
f 653/653 654/654 655/655 656/656
g Roof
f 657/657 658/658 659/659 660/660
f 661/661 662/662 663/663 664/664
f 665/665 666/666 667/667 668/668
f 669/669 670/670 671/671 672/672
f 673/673 674/674 675/675 676/676
f 677/677 678/678 679/679 680/680
f 681/681 682/682 683/683 684/684
f 685/685 686/686 687/687 688/688
f 689/689 690/690 691/691 692/692
f 693/693 694/694 695/695 696/696
f 697/697 698/698 699/699 700/700
f 701/701 702/702 703/703 704/704
f 705/705 706/706 707/707 708/708
f 709/709 710/710 711/711 712/712
f 713/713 714/714 715/715 716/716
f 717/717 718/718 719/719 720/720
f 721/721 722/722 723/723 724/724
f 725/725 726/726 727/727 728/728
f 729/729 730/730 731/731 732/732
f 733/733 734/734 735/735 736/736
f 737/737 738/738 739/739 740/740
f 741/741 742/742 743/743 744/744
f 745/745 746/746 747/747 748/748
f 749/749 750/750 751/751 752/752
f 753/753 754/754 755/755 756/756
f 757/757 758/758 759/759 760/760
f 761/761 762/762 763/763 764/764
f 765/765 766/766 767/767 768/768
f 769/769 770/770 771/771 772/772
f 773/773 774/774 775/775 776/776
f 777/777 778/778 779/779 780/780
f 781/781 782/782 783/783 784/784
f 785/785 786/786 787/787 788/788
f 789/789 790/790 791/791 792/792
f 793/793 794/794 795/795 796/796
f 797/797 798/798 799/799 800/800
f 801/801 802/802 803/803 804/804
f 805/805 806/806 807/807 808/808
f 809/809 810/810 811/811 812/812
f 813/813 814/814 815/815 816/816
f 817/817 818/818 819/819 820/820
f 821/821 822/822 823/823 824/824
f 825/825 826/826 827/827 828/828
f 829/829 830/830 831/831 832/832
f 833/833 834/834 835/835 836/836
f 837/837 838/838 839/839 840/840
f 841/841 842/842 843/843 844/844
f 845/845 846/846 847/847 848/848
f 849/849 850/850 851/851 852/852
f 853/853 854/854 855/855 856/856
f 857/857 858/858 859/859 860/860
f 861/861 862/862 863/863 864/864
f 865/865 866/866 867/867 868/868
f 869/869 870/870 871/871 872/872
f 873/873 874/874 875/875 876/876
f 877/877 878/878 879/879 880/880
f 881/881 882/882 883/883 884/884
f 885/885 886/886 887/887 888/888
f 889/889 890/890 891/891 892/892
f 893/893 894/894 895/895 896/896
f 897/897 898/898 899/899 900/900
f 901/901 902/902 903/903 904/904
f 905/905 906/906 907/907 908/908
f 909/909 910/910 911/911 912/912
f 913/913 914/914 915/915 916/916
f 917/917 918/918 919/919 920/920
f 921/921 922/922 923/923 924/924
f 925/925 926/926 927/927 928/928
f 929/929 930/930 931/931 932/932
f 933/933 934/934 935/935 936/936
f 937/937 938/938 939/939 940/940
f 941/941 942/942 943/943 944/944
f 945/945 946/946 947/947 948/948
f 949/949 950/950 951/951 952/952
f 953/953 954/954 955/955 956/956
f 957/957 958/958 959/959 960/960
f 961/961 962/962 963/963 964/964
f 965/965 966/966 967/967 968/968
g Details
f 969/969 970/970 971/971 972/972
f 973/973 974/974 975/975 976/976
f 977/977 978/978 979/979 980/980
f 981/981 982/982 983/983 984/984
f 985/985 986/986 987/987 988/988
f 989/989 990/990 991/991 992/992
f 993/993 994/994 995/995 996/996
f 997/997 998/998 999/999 1000/1000
f 1001/1001 1002/1002 1003/1003 1004/1004
f 1005/1005 1006/1006 1007/1007 1008/1008
f 1009/1009 1010/1010 1011/1011 1012/1012
f 1013/1013 1014/1014 1015/1015 1016/1016
f 1017/1017 1018/1018 1019/1019 1020/1020
f 1021/1021 1022/1022 1023/1023 1024/1024
f 1025/1025 1026/1026 1027/1027 1028/1028
f 1029/1029 1030/1030 1031/1031 1032/1032
f 1033/1033 1034/1034 1035/1035 1036/1036
f 1037/1037 1038/1038 1039/1039 1040/1040
f 1041/1041 1042/1042 1043/1043 1044/1044
f 1045/1045 1046/1046 1047/1047 1048/1048
f 1049/1049 1050/1050 1051/1051 1052/1052
f 1053/1053 1054/1054 1055/1055 1056/1056
f 1057/1057 1058/1058 1059/1059 1060/1060
f 1061/1061 1062/1062 1063/1063 1064/1064
f 1065/1065 1066/1066 1067/1067 1068/1068
f 1069/1069 1070/1070 1071/1071 1072/1072
f 1073/1073 1074/1074 1075/1075 1076/1076
f 1077/1077 1078/1078 1079/1079 1080/1080
f 1081/1081 1082/1082 1083/1083 1084/1084
f 1085/1085 1086/1086 1087/1087 1088/1088
f 1089/1089 1090/1090 1091/1091 1092/1092
f 1093/1093 1094/1094 1095/1095 1096/1096
g Interior
f 1097/1097 1098/1098 1099/1099 1100/1100
f 1101/1101 1102/1102 1103/1103 1104/1104
f 1105/1105 1106/1106 1107/1107 1108/1108
f 1109/1109 1110/1110 1111/1111 1112/1112
f 1113/1113 1114/1114 1115/1115 1116/1116
f 1117/1117 1118/1118 1119/1119 1120/1120
f 1121/1121 1122/1122 1123/1123 1124/1124
f 1125/1125 1126/1126 1127/1127 1128/1128
f 1129/1129 1130/1130 1131/1131 1132/1132
f 1133/1133 1134/1134 1135/1135 1136/1136
f 1137/1137 1138/1138 1139/1139 1140/1140
f 1141/1141 1142/1142 1143/1143 1144/1144
f 1145/1145 1146/1146 1147/1147 1148/1148
f 1149/1149 1150/1150 1151/1151 1152/1152
f 1153/1153 1154/1154 1155/1155 1156/1156
f 1157/1157 1158/1158 1159/1159 1160/1160
f 1161/1161 1162/1162 1163/1163 1164/1164
f 1165/1165 1166/1166 1167/1167 1168/1168
